<?xml version="1.0" standalone="no"?>
<!DOCTYPE svg PUBLIC "-//W3C//DTD SVG 20010904//EN"
 "http://www.w3.org/TR/2001/REC-SVG-20010904/DTD/svg10.dtd">
<svg version="1.0" xmlns="http://www.w3.org/2000/svg"
 width="260.000000pt" height="260.000000pt" viewBox="0 0 260.000000 260.000000"
 preserveAspectRatio="xMidYMid meet">
<metadata>
Created by potrace 1.11, written by Peter Selinger 2001-2013
</metadata>
<g transform="translate(0.000000,260.000000) scale(0.100000,-0.100000)"
fill="#000000" stroke="none">
<path d="M794 2590 c-28 -11 -41 -54 -49 -155 -3 -44 -8 -96 -10 -115 -2 -19
-6 -71 -10 -115 -3 -44 -8 -102 -10 -130 -11 -115 -15 -154 -20 -230 -3 -44
-8 -102 -10 -130 -2 -27 -11 -142 -20 -255 -8 -113 -17 -225 -20 -250 -26
-253 -27 -859 -2 -999 21 -112 46 -173 80 -196 30 -19 30 -19 402 31 425 57
598 85 632 101 67 31 138 132 177 249 43 132 50 245 31 532 -6 87 -4 152 5
222 18 133 8 171 -89 368 -145 292 -488 944 -522 993 -37 53 -130 71 -429 84
-63 2 -125 0 -136 -5z m376 -46 c134 -13 148 -25 237 -195 247 -475 488 -947
503 -987 l19 -49 -24 5 c-17 3 -27 -2 -36 -19 l-12 -23 -8 23 c-7 17 -16 22
-36 21 -42 -3 -53 -1 -53 10 0 14 55 40 83 40 28 0 43 26 26 46 -16 20 -37 17
-51 -6 -15 -23 -28 -26 -28 -6 0 17 -24 28 -44 20 -8 -3 -23 -1 -32 4 -16 9
-14 12 17 31 18 11 41 18 50 16 20 -7 43 20 35 40 -8 22 -36 18 -64 -7 -13
-13 -23 -18 -22 -13 6 28 -2 36 -35 33 -19 -1 -38 2 -42 6 -13 12 37 46 68 46
38 0 58 34 30 50 -23 12 -51 3 -51 -16 0 -8 -4 -14 -10 -14 -5 0 -10 6 -10 14
0 17 -24 28 -44 20 -8 -3 -23 -1 -32 4 -16 9 -14 12 17 31 18 11 41 18 50 16
20 -7 43 20 35 40 -7 19 -52 20 -60 0 -7 -20 -26 -19 -26 0 0 12 -9 15 -35 13
-19 -1 -38 1 -42 6 -12 11 38 45 72 48 22 2 31 9 33 24 3 23 -18 37 -43 28 -8
-4 -15 -12 -15 -20 0 -20 -13 -17 -28 6 -9 15 -19 18 -41 14 -16 -3 -32 -1
-35 5 -9 14 54 52 75 46 21 -7 41 17 33 39 -8 21 -43 21 -60 -1 -13 -17 -15
-17 -25 0 -6 10 -20 17 -32 16 -43 -3 -56 1 -51 15 6 16 45 33 84 38 28 3 40
36 18 49 -19 13 -26 11 -45 -10 -15 -19 -17 -19 -29 -3 -7 10 -26 17 -45 17
-18 0 -34 5 -36 11 -4 13 62 45 80 38 18 -7 39 19 31 40 -8 21 -43 21 -60 -1
-13 -17 -15 -17 -25 0 -6 10 -20 17 -32 16 -43 -3 -56 1 -51 15 6 16 45 33 84
38 28 3 40 36 18 49 -19 13 -26 11 -45 -10 -15 -19 -17 -19 -29 -3 -7 10 -26
17 -45 17 -18 0 -34 5 -36 11 -3 10 45 37 72 40 6 0 16 2 23 2 6 1 12 13 12
27 0 20 -5 25 -25 25 -15 0 -29 -8 -36 -22 l-12 -22 -8 22 c-9 23 -38 29 -56
11 -8 -8 -14 -5 -23 11 -10 19 -10 24 4 32 23 13 20 49 -4 55 -16 4 -18 8 -9
19 6 8 9 20 6 28 -5 11 -36 14 -169 13 l-163 -2 2 -27 c1 -19 -4 -29 -19 -33
-15 -5 -18 -13 -14 -30 4 -14 0 -27 -9 -35 -15 -13 -21 -50 -7 -50 4 0 8 -276
10 -614 l3 -613 -52 -5 c-28 -3 -54 -10 -58 -17 -5 -8 -7 -614 -2 -702 1 -9
12 -21 25 -27 32 -14 27 -38 -12 -62 -31 -19 -38 -37 -45 -120 -7 -92 -30 197
-31 390 -1 199 11 587 18 599 2 3 7 62 11 131 3 69 8 134 10 145 2 11 7 58 10
105 4 47 8 103 10 125 2 22 7 78 10 125 3 47 7 99 9 115 2 17 7 71 10 120 4
50 9 108 11 130 2 22 7 76 10 120 11 148 24 255 31 266 7 11 218 7 364 -7z
m-195 -144 c3 -5 -1 -10 -10 -10 -9 0 -13 5 -10 10 3 6 8 10 10 10 2 0 7 -4
10 -10z m956 -1218 c-16 -118 -17 -245 -1 -367 7 -56 9 -130 6 -170 -9 -96
-27 -195 -35 -195 -3 0 -7 145 -8 322 -3 348 -1 338 -59 338 -30 0 -31 2 -32
43 0 23 5 53 11 65 13 26 62 56 77 47 6 -3 18 -2 27 4 10 5 20 8 22 5 2 -2 -2
-44 -8 -92z m-81 -444 l0 -338 -187 -1 c-104 0 -347 -2 -540 -4 l-352 -3 -3
316 c-2 175 -2 326 0 337 3 20 9 21 464 23 254 1 462 3 464 4 1 2 36 3 78 3
l76 0 0 -337z m18 -399 c-6 -16 -12 -28 -14 -26 -5 5 13 57 20 57 3 0 0 -14
-6 -31z m-429 17 c-2 -2 -38 -7 -79 -11 -41 -4 -181 -17 -309 -30 -129 -13
-238 -22 -241 -20 -6 3 -6 23 -1 55 1 3 144 7 318 8 174 2 315 1 312 -2z m321
-6 c0 -5 -4 -10 -9 -10 -11 0 -824 -95 -903 -106 -20 -3 -39 -1 -42 4 -11 18
12 30 74 36 131 13 176 17 215 21 22 3 117 11 210 20 94 8 185 18 202 20 18 3
68 8 110 11 43 4 80 8 82 10 9 9 61 3 61 -6z m60 5 c0 -26 -45 -115 -60 -120
-25 -8 -178 -33 -619 -101 -18 -3 -43 -7 -54 -10 -11 -2 -83 -13 -159 -25
-138 -22 -139 -22 -159 -3 -24 24 -35 108 -20 146 16 42 29 34 29 -18 0 -25 2
-47 4 -49 3 -3 204 19 357 39 41 6 114 14 186 22 28 3 61 7 75 9 14 2 68 9
120 15 52 6 109 13 125 15 17 2 56 7 88 10 57 7 57 7 57 41 0 24 5 34 15 34 8
0 15 -2 15 -5z m-127 -52 c-7 -2 -19 -2 -25 0 -7 3 -2 5 12 5 14 0 19 -2 13
-5z m-90 -10 c-7 -2 -19 -2 -25 0 -7 3 -2 5 12 5 14 0 19 -2 13 -5z m-80 -10
c-7 -2 -21 -2 -30 0 -10 3 -4 5 12 5 17 0 24 -2 18 -5z m-80 -10 c-7 -2 -21
-2 -30 0 -10 3 -4 5 12 5 17 0 24 -2 18 -5z m-100 -10 c-7 -2 -19 -2 -25 0 -7
3 -2 5 12 5 14 0 19 -2 13 -5z m-86 -9 c-3 -3 -12 -4 -19 -1 -8 3 -5 6 6 6 11
1 17 -2 13 -5z m-50 -10 c-3 -3 -12 -4 -19 -1 -8 3 -5 6 6 6 11 1 17 -2 13 -5z
m-184 -21 c-7 -2 -21 -2 -30 0 -10 3 -4 5 12 5 17 0 24 -2 18 -5z m-86 -9 c-3
-3 -12 -4 -19 -1 -8 3 -5 6 6 6 11 1 17 -2 13 -5z m-84 -11 c-7 -2 -21 -2 -30
0 -10 3 -4 5 12 5 17 0 24 -2 18 -5z m885 -24 c-15 -8 -238 -47 -377 -64 -30
-4 -62 -8 -71 -10 -9 -2 -41 -6 -71 -10 -30 -3 -62 -8 -71 -11 -10 -3 -18 -2
-18 3 0 5 53 16 118 26 64 9 131 20 147 22 169 30 315 53 335 54 21 0 22 -1 8
-10z m-638 -99 c-14 -4 -41 -8 -60 -8 l-35 1 35 7 c19 4 46 8 60 8 l25 0 -25
-8z m-329 -29 l24 -10 -25 0 c-16 -1 -30 7 -39 22 -12 19 -12 20 0 10 8 -7 26
-17 40 -22z m222 12 c-7 -2 -21 -2 -30 0 -10 3 -4 5 12 5 17 0 24 -2 18 -5z
m-80 -10 c-7 -2 -19 -2 -25 0 -7 3 -2 5 12 5 14 0 19 -2 13 -5z m-76 -9 c-3
-3 -12 -4 -19 -1 -8 3 -5 6 6 6 11 1 17 -2 13 -5z"/>
<path d="M1319 958 c-1 -15 -3 -32 -25 -168 -8 -52 -17 -111 -20 -130 -12 -92
-17 -83 -55 104 -21 104 -41 192 -44 195 -13 12 -22 -25 -44 -172 -22 -146
-30 -183 -32 -141 0 10 -2 27 -4 37 -2 10 -9 50 -16 88 -11 63 -23 89 -35 77
-2 -3 -9 -41 -16 -86 -6 -45 -14 -82 -18 -82 -4 0 -12 18 -19 40 -6 22 -16 40
-20 40 -11 0 -35 -85 -28 -102 3 -8 9 -2 18 15 l13 29 13 -46 c19 -66 39 -59
47 15 8 66 24 121 25 84 2 -50 37 -205 46 -205 10 0 54 246 56 310 0 25 0 25
9 3 5 -12 23 -91 40 -175 41 -204 39 -198 49 -198 10 0 17 25 27 95 14 101 45
289 47 292 2 1 15 -77 30 -174 15 -97 29 -178 32 -181 14 -15 25 25 45 158 11
80 24 154 29 164 5 13 15 -37 30 -139 12 -88 25 -163 28 -168 11 -18 23 21 29
98 4 43 10 90 14 104 l8 26 1 -27 c2 -50 23 -129 34 -125 6 2 16 21 22 43 12
39 12 39 20 12 4 -16 13 -28 21 -28 11 0 10 11 -6 50 -11 28 -20 53 -20 55 0
3 -4 5 -8 5 -5 0 -13 -17 -18 -37 -10 -37 -10 -37 -27 51 -26 136 -35 132 -52
-21 -12 -116 -10 -116 -30 8 -2 13 -8 56 -15 94 -6 39 -12 80 -13 93 -1 12 -6
22 -13 22 -7 0 -22 -66 -40 -180 -15 -99 -29 -178 -31 -176 -2 2 -16 84 -31
181 -17 111 -32 180 -40 183 -6 2 -12 -2 -13 -10z"/>
</g>
</svg>
