%TF.GenerationSoftware,KiCad,Pcbnew,(5.1.6-0-10_14)*%
%TF.CreationDate,2020-09-12T12:57:19-04:00*%
%TF.ProjectId,smart-o-harp,736d6172-742d-46f2-9d68-6172702e6b69,rev?*%
%TF.SameCoordinates,Original*%
%TF.FileFunction,Soldermask,Bot*%
%TF.FilePolarity,Negative*%
%FSLAX46Y46*%
G04 Gerber Fmt 4.6, Leading zero omitted, Abs format (unit mm)*
G04 Created by KiCad (PCBNEW (5.1.6-0-10_14)) date 2020-09-12 12:57:19*
%MOMM*%
%LPD*%
G01*
G04 APERTURE LIST*
%ADD10O,1.500000X1.500000*%
%ADD11C,1.500000*%
%ADD12C,3.100000*%
%ADD13R,3.100000X3.100000*%
%ADD14O,1.900000X1.900000*%
%ADD15R,1.900000X1.900000*%
%ADD16R,1.700000X1.700000*%
%ADD17O,1.700000X1.700000*%
%ADD18C,3.300000*%
%ADD19R,1.800000X1.800000*%
%ADD20O,1.800000X1.800000*%
G04 APERTURE END LIST*
D10*
%TO.C,R16*%
X250190000Y-83820000D03*
D11*
X245110000Y-83820000D03*
%TD*%
D10*
%TO.C,R15*%
X242570000Y-83820000D03*
D11*
X237490000Y-83820000D03*
%TD*%
D10*
%TO.C,R14*%
X250190000Y-87630000D03*
D11*
X245110000Y-87630000D03*
%TD*%
D10*
%TO.C,R13*%
X242570000Y-87630000D03*
D11*
X237490000Y-87630000D03*
%TD*%
D10*
%TO.C,R12*%
X250190000Y-91440000D03*
D11*
X245110000Y-91440000D03*
%TD*%
D10*
%TO.C,R11*%
X242570000Y-91440000D03*
D11*
X237490000Y-91440000D03*
%TD*%
D10*
%TO.C,R10*%
X250190000Y-95250000D03*
D11*
X245110000Y-95250000D03*
%TD*%
D10*
%TO.C,R9*%
X242570000Y-95250000D03*
D11*
X237490000Y-95250000D03*
%TD*%
D10*
%TO.C,R8*%
X250190000Y-101600000D03*
D11*
X245110000Y-101600000D03*
%TD*%
D10*
%TO.C,R7*%
X242570000Y-101600000D03*
D11*
X237490000Y-101600000D03*
%TD*%
D10*
%TO.C,R6*%
X250190000Y-105410000D03*
D11*
X245110000Y-105410000D03*
%TD*%
D10*
%TO.C,R5*%
X242570000Y-105410000D03*
D11*
X237490000Y-105410000D03*
%TD*%
D10*
%TO.C,R4*%
X250190000Y-109220000D03*
D11*
X245110000Y-109220000D03*
%TD*%
D10*
%TO.C,R3*%
X242570000Y-109220000D03*
D11*
X237490000Y-109220000D03*
%TD*%
D10*
%TO.C,R2*%
X250190000Y-113030000D03*
D11*
X245110000Y-113030000D03*
%TD*%
D10*
%TO.C,R1*%
X242570000Y-113030000D03*
D11*
X237490000Y-113030000D03*
%TD*%
D12*
%TO.C,C#_D_D#2*%
X191770000Y-157640000D03*
X191770000Y-162640000D03*
D13*
X191770000Y-167640000D03*
%TD*%
D12*
%TO.C,E_F_F#1*%
X191770000Y-66200000D03*
X191770000Y-71200000D03*
D13*
X191770000Y-76200000D03*
%TD*%
D14*
%TO.C,D8*%
X209550000Y-120650000D03*
D15*
X209550000Y-115570000D03*
%TD*%
D16*
%TO.C,U2*%
X252730000Y-83820000D03*
D17*
X260350000Y-101600000D03*
X252730000Y-86360000D03*
X260350000Y-99060000D03*
X252730000Y-88900000D03*
X260350000Y-96520000D03*
X252730000Y-91440000D03*
X260350000Y-93980000D03*
X252730000Y-93980000D03*
X260350000Y-91440000D03*
X252730000Y-96520000D03*
X260350000Y-88900000D03*
X252730000Y-99060000D03*
X260350000Y-86360000D03*
X252730000Y-101600000D03*
X260350000Y-83820000D03*
%TD*%
D12*
%TO.C,J3*%
X191770000Y-249000000D03*
D13*
X191770000Y-254000000D03*
%TD*%
D12*
%TO.C,J2*%
X191770000Y-259160000D03*
D13*
X191770000Y-264160000D03*
%TD*%
D12*
%TO.C,G_G#_A2*%
X191770000Y-127000000D03*
X191770000Y-132000000D03*
D13*
X191770000Y-137000000D03*
%TD*%
D12*
%TO.C,G_G#_A1*%
X191770000Y-50960000D03*
X191770000Y-55960000D03*
D13*
X191770000Y-60960000D03*
%TD*%
%TO.C,F_G_C1*%
X191770000Y-243840000D03*
D12*
X191770000Y-238840000D03*
X191770000Y-233840000D03*
%TD*%
D13*
%TO.C,F#_G_A1*%
X191770000Y-213360000D03*
D12*
X191770000Y-208360000D03*
X191770000Y-203360000D03*
%TD*%
%TO.C,E_F_F#2*%
X191770000Y-142400000D03*
X191770000Y-147400000D03*
D13*
X191770000Y-152400000D03*
%TD*%
%TO.C,D_E_F1*%
X191770000Y-228600000D03*
D12*
X191770000Y-223600000D03*
X191770000Y-218600000D03*
%TD*%
%TO.C,C#_D_D#1*%
X191770000Y-81440000D03*
X191770000Y-86440000D03*
D13*
X191770000Y-91440000D03*
%TD*%
%TO.C,Bb_B_C3*%
X191770000Y-198120000D03*
D12*
X191770000Y-193120000D03*
X191770000Y-188120000D03*
%TD*%
%TO.C,Bb_B_C2*%
X191770000Y-111920000D03*
X191770000Y-116920000D03*
D13*
X191770000Y-121920000D03*
%TD*%
%TO.C,Bb_B_C1*%
X191770000Y-45720000D03*
D12*
X191770000Y-40720000D03*
X191770000Y-35720000D03*
%TD*%
D18*
%TO.C,H4*%
X181610000Y-288290000D03*
%TD*%
%TO.C,H3*%
X252730000Y-35560000D03*
%TD*%
%TO.C,H2*%
X246380000Y-120650000D03*
%TD*%
%TO.C,H1*%
X194310000Y-176530000D03*
%TD*%
D14*
%TO.C,D17*%
X205740000Y-110490000D03*
D15*
X205740000Y-105410000D03*
%TD*%
D14*
%TO.C,D16*%
X209550000Y-110490000D03*
D15*
X209550000Y-105410000D03*
%TD*%
D14*
%TO.C,D15*%
X213360000Y-110490000D03*
D15*
X213360000Y-105410000D03*
%TD*%
D14*
%TO.C,D14*%
X217170000Y-110490000D03*
D15*
X217170000Y-105410000D03*
%TD*%
D14*
%TO.C,D13*%
X220980000Y-110490000D03*
D15*
X220980000Y-105410000D03*
%TD*%
D14*
%TO.C,D12*%
X224790000Y-110490000D03*
D15*
X224790000Y-105410000D03*
%TD*%
D14*
%TO.C,D11*%
X228600000Y-110490000D03*
D15*
X228600000Y-105410000D03*
%TD*%
D14*
%TO.C,D10*%
X232410000Y-110490000D03*
D15*
X232410000Y-105410000D03*
%TD*%
D14*
%TO.C,D9*%
X205740000Y-120650000D03*
D15*
X205740000Y-115570000D03*
%TD*%
D14*
%TO.C,D6*%
X213360000Y-120650000D03*
D15*
X213360000Y-115570000D03*
%TD*%
D14*
%TO.C,D5*%
X217170000Y-120650000D03*
D15*
X217170000Y-115570000D03*
%TD*%
D14*
%TO.C,D4*%
X220980000Y-120650000D03*
D15*
X220980000Y-115570000D03*
%TD*%
D14*
%TO.C,D3*%
X224790000Y-120650000D03*
D15*
X224790000Y-115570000D03*
%TD*%
D14*
%TO.C,D2*%
X228600000Y-120650000D03*
D15*
X228600000Y-115570000D03*
%TD*%
D14*
%TO.C,D1*%
X232410000Y-120650000D03*
D15*
X232410000Y-115570000D03*
%TD*%
D18*
%TO.C,REF\u002A\u002A*%
X195580000Y-99060000D03*
%TD*%
D19*
%TO.C,J1*%
X200660000Y-269240000D03*
D20*
X200660000Y-271780000D03*
X198120000Y-269240000D03*
X198120000Y-271780000D03*
%TD*%
D16*
%TO.C,A1*%
X245110000Y-38100000D03*
D17*
X260350000Y-71120000D03*
X245110000Y-40640000D03*
X260350000Y-68580000D03*
X245110000Y-43180000D03*
X260350000Y-66040000D03*
X245110000Y-45720000D03*
X260350000Y-63500000D03*
X245110000Y-48260000D03*
X260350000Y-60960000D03*
X245110000Y-50800000D03*
X260350000Y-58420000D03*
X245110000Y-53340000D03*
X260350000Y-55880000D03*
X245110000Y-55880000D03*
X260350000Y-53340000D03*
X245110000Y-58420000D03*
X260350000Y-50800000D03*
X245110000Y-60960000D03*
X260350000Y-48260000D03*
X245110000Y-63500000D03*
X260350000Y-45720000D03*
X245110000Y-66040000D03*
X260350000Y-43180000D03*
X245110000Y-68580000D03*
X260350000Y-40640000D03*
X245110000Y-71120000D03*
X260350000Y-38100000D03*
X245110000Y-73660000D03*
X260350000Y-73660000D03*
%TD*%
D19*
%TO.C,keypad1*%
X240030000Y-66040000D03*
D20*
X240030000Y-63500000D03*
X240030000Y-60960000D03*
X240030000Y-58420000D03*
X240030000Y-55880000D03*
X240030000Y-53340000D03*
X240030000Y-50800000D03*
X240030000Y-48260000D03*
%TD*%
D19*
%TO.C,solenoid_power1*%
X187960000Y-271780000D03*
D20*
X187960000Y-269240000D03*
X190500000Y-271780000D03*
X190500000Y-269240000D03*
X193040000Y-271780000D03*
X193040000Y-269240000D03*
%TD*%
D17*
%TO.C,U1*%
X260350000Y-106680000D03*
X252730000Y-124460000D03*
X260350000Y-109220000D03*
X252730000Y-121920000D03*
X260350000Y-111760000D03*
X252730000Y-119380000D03*
X260350000Y-114300000D03*
X252730000Y-116840000D03*
X260350000Y-116840000D03*
X252730000Y-114300000D03*
X260350000Y-119380000D03*
X252730000Y-111760000D03*
X260350000Y-121920000D03*
X252730000Y-109220000D03*
X260350000Y-124460000D03*
D16*
X252730000Y-106680000D03*
%TD*%
M02*
