%TF.GenerationSoftware,KiCad,Pcbnew,(5.1.6-0-10_14)*%
%TF.CreationDate,2020-09-12T12:57:19-04:00*%
%TF.ProjectId,smart-o-harp,736d6172-742d-46f2-9d68-6172702e6b69,rev?*%
%TF.SameCoordinates,Original*%
%TF.FileFunction,Legend,Bot*%
%TF.FilePolarity,Positive*%
%FSLAX46Y46*%
G04 Gerber Fmt 4.6, Leading zero omitted, Abs format (unit mm)*
G04 Created by KiCad (PCBNEW (5.1.6-0-10_14)) date 2020-09-12 12:57:19*
%MOMM*%
%LPD*%
G01*
G04 APERTURE LIST*
%ADD10C,0.150000*%
G04 APERTURE END LIST*
%TO.C,REF\u002A\u002A*%
D10*
X196913333Y-103712380D02*
X197246666Y-103236190D01*
X197484761Y-103712380D02*
X197484761Y-102712380D01*
X197103809Y-102712380D01*
X197008571Y-102760000D01*
X196960952Y-102807619D01*
X196913333Y-102902857D01*
X196913333Y-103045714D01*
X196960952Y-103140952D01*
X197008571Y-103188571D01*
X197103809Y-103236190D01*
X197484761Y-103236190D01*
X196484761Y-103188571D02*
X196151428Y-103188571D01*
X196008571Y-103712380D02*
X196484761Y-103712380D01*
X196484761Y-102712380D01*
X196008571Y-102712380D01*
X195246666Y-103188571D02*
X195580000Y-103188571D01*
X195580000Y-103712380D02*
X195580000Y-102712380D01*
X195103809Y-102712380D01*
X194580000Y-102712380D02*
X194580000Y-102950476D01*
X194818095Y-102855238D02*
X194580000Y-102950476D01*
X194341904Y-102855238D01*
X194722857Y-103140952D02*
X194580000Y-102950476D01*
X194437142Y-103140952D01*
X193818095Y-102712380D02*
X193818095Y-102950476D01*
X194056190Y-102855238D02*
X193818095Y-102950476D01*
X193580000Y-102855238D01*
X193960952Y-103140952D02*
X193818095Y-102950476D01*
X193675238Y-103140952D01*
%TD*%
M02*
