M48
; DRILL file {KiCad (5.1.6-0-10_14)} date Saturday, September 12, 2020 at 12:57:26 PM
; FORMAT={-:-/ absolute / inch / decimal}
; #@! TF.CreationDate,2020-09-12T12:57:26-04:00
; #@! TF.GenerationSoftware,Kicad,Pcbnew,(5.1.6-0-10_14)
FMAT,2
INCH
T1C0.0157
T2C0.0276
T3C0.0315
T4C0.0354
T5C0.0394
T6C0.0591
T7C0.1260
%
G90
G05
T1
X8.25Y-4.05
X9.15Y-2.2
T2
X9.65Y-3.6
X9.85Y-3.6
X9.35Y-3.75
X9.55Y-3.75
X9.65Y-4.0
X9.85Y-4.0
X9.35Y-4.0
X9.55Y-4.0
X9.65Y-4.15
X9.85Y-4.15
X9.35Y-4.15
X9.55Y-4.15
X9.65Y-4.3
X9.85Y-4.3
X9.35Y-4.3
X9.55Y-4.3
X9.65Y-3.3
X9.85Y-3.3
X9.65Y-4.45
X9.85Y-4.45
X9.35Y-3.3
X9.55Y-3.3
X9.35Y-3.6
X9.55Y-3.6
X9.35Y-4.45
X9.55Y-4.45
X9.65Y-3.45
X9.85Y-3.45
X9.35Y-3.45
X9.55Y-3.45
X9.65Y-3.75
X9.85Y-3.75
T3
X9.95Y-3.3
X9.95Y-3.4
X9.95Y-3.5
X9.95Y-3.6
X9.95Y-3.7
X9.95Y-3.8
X9.95Y-3.9
X9.95Y-4.0
X10.25Y-3.3
X10.25Y-3.4
X10.25Y-3.5
X10.25Y-3.6
X10.25Y-3.7
X10.25Y-3.8
X10.25Y-3.9
X10.25Y-4.0
X9.95Y-4.2
X9.95Y-4.3
X9.95Y-4.4
X9.95Y-4.5
X9.95Y-4.6
X9.95Y-4.7
X9.95Y-4.8
X9.95Y-4.9
X10.25Y-4.2
X10.25Y-4.3
X10.25Y-4.4
X10.25Y-4.5
X10.25Y-4.6
X10.25Y-4.7
X10.25Y-4.8
X10.25Y-4.9
T4
X8.55Y-4.15
X8.55Y-4.35
X9.15Y-4.15
X9.15Y-4.35
X8.7Y-4.55
X8.7Y-4.75
X8.1Y-4.55
X8.1Y-4.75
X8.85Y-4.55
X8.85Y-4.75
X8.85Y-4.15
X8.85Y-4.35
X8.4Y-4.55
X8.4Y-4.75
X8.4Y-4.15
X8.4Y-4.35
X9.0Y-4.15
X9.0Y-4.35
X8.55Y-4.55
X8.55Y-4.75
X9.15Y-4.55
X9.15Y-4.75
X8.25Y-4.55
X8.25Y-4.75
X8.1Y-4.15
X8.1Y-4.35
X8.7Y-4.15
X8.7Y-4.35
X8.25Y-4.15
X8.25Y-4.35
X9.0Y-4.55
X9.0Y-4.75
T5
X7.8Y-10.6
X7.8Y-10.7
X7.9Y-10.6
X7.9Y-10.7
X9.45Y-1.9
X9.45Y-2.0
X9.45Y-2.1
X9.45Y-2.2
X9.45Y-2.3
X9.45Y-2.4
X9.45Y-2.5
X9.45Y-2.6
X9.65Y-1.5
X9.65Y-1.6
X9.65Y-1.7
X9.65Y-1.8
X9.65Y-1.9
X9.65Y-2.0
X9.65Y-2.1
X9.65Y-2.2
X9.65Y-2.3
X9.65Y-2.4
X9.65Y-2.5
X9.65Y-2.6
X9.65Y-2.7
X9.65Y-2.8
X9.65Y-2.9
X10.25Y-1.5
X10.25Y-1.6
X10.25Y-1.7
X10.25Y-1.8
X10.25Y-1.9
X10.25Y-2.0
X10.25Y-2.1
X10.25Y-2.2
X10.25Y-2.3
X10.25Y-2.4
X10.25Y-2.5
X10.25Y-2.6
X10.25Y-2.7
X10.25Y-2.8
X10.25Y-2.9
X7.4Y-10.6
X7.4Y-10.7
X7.5Y-10.6
X7.5Y-10.7
X7.6Y-10.6
X7.6Y-10.7
T6
X7.55Y-4.4063
X7.55Y-4.6031
X7.55Y-4.8
X7.55Y-2.6063
X7.55Y-2.8031
X7.55Y-3.0
X7.55Y-2.0063
X7.55Y-2.2031
X7.55Y-2.4
X7.55Y-8.6063
X7.55Y-8.8031
X7.55Y-9.0
X7.55Y-10.2031
X7.55Y-10.4
X7.55Y-9.2063
X7.55Y-9.4031
X7.55Y-9.6
X7.55Y-1.4063
X7.55Y-1.6031
X7.55Y-1.8
X7.55Y-3.2063
X7.55Y-3.4031
X7.55Y-3.6
X7.55Y-9.8031
X7.55Y-10.0
X7.55Y-8.0063
X7.55Y-8.2031
X7.55Y-8.4
X7.55Y-6.2063
X7.55Y-6.4031
X7.55Y-6.6
X7.55Y-5.0
X7.55Y-5.1969
X7.55Y-5.3937
X7.55Y-7.4063
X7.55Y-7.6031
X7.55Y-7.8
X7.55Y-5.6063
X7.55Y-5.8031
X7.55Y-6.0
T7
X9.7Y-4.75
X7.7Y-3.9
X7.15Y-11.35
X7.65Y-6.95
X9.95Y-1.4
T0
M30
