%TF.GenerationSoftware,KiCad,Pcbnew,(5.1.6-0-10_14)*%
%TF.CreationDate,2020-09-12T12:57:19-04:00*%
%TF.ProjectId,smart-o-harp,736d6172-742d-46f2-9d68-6172702e6b69,rev?*%
%TF.SameCoordinates,Original*%
%TF.FileFunction,Legend,Top*%
%TF.FilePolarity,Positive*%
%FSLAX46Y46*%
G04 Gerber Fmt 4.6, Leading zero omitted, Abs format (unit mm)*
G04 Created by KiCad (PCBNEW (5.1.6-0-10_14)) date 2020-09-12 12:57:19*
%MOMM*%
%LPD*%
G01*
G04 APERTURE LIST*
%ADD10C,0.150000*%
%ADD11C,0.120000*%
%ADD12C,0.010000*%
G04 APERTURE END LIST*
D10*
X238410952Y-115514380D02*
X237839523Y-115514380D01*
X238125238Y-115514380D02*
X238125238Y-114514380D01*
X238030000Y-114657238D01*
X237934761Y-114752476D01*
X237839523Y-114800095D01*
X239030000Y-114514380D02*
X239125238Y-114514380D01*
X239220476Y-114562000D01*
X239268095Y-114609619D01*
X239315714Y-114704857D01*
X239363333Y-114895333D01*
X239363333Y-115133428D01*
X239315714Y-115323904D01*
X239268095Y-115419142D01*
X239220476Y-115466761D01*
X239125238Y-115514380D01*
X239030000Y-115514380D01*
X238934761Y-115466761D01*
X238887142Y-115419142D01*
X238839523Y-115323904D01*
X238791904Y-115133428D01*
X238791904Y-114895333D01*
X238839523Y-114704857D01*
X238887142Y-114609619D01*
X238934761Y-114562000D01*
X239030000Y-114514380D01*
X239982380Y-114514380D02*
X240077619Y-114514380D01*
X240172857Y-114562000D01*
X240220476Y-114609619D01*
X240268095Y-114704857D01*
X240315714Y-114895333D01*
X240315714Y-115133428D01*
X240268095Y-115323904D01*
X240220476Y-115419142D01*
X240172857Y-115466761D01*
X240077619Y-115514380D01*
X239982380Y-115514380D01*
X239887142Y-115466761D01*
X239839523Y-115419142D01*
X239791904Y-115323904D01*
X239744285Y-115133428D01*
X239744285Y-114895333D01*
X239791904Y-114704857D01*
X239839523Y-114609619D01*
X239887142Y-114562000D01*
X239982380Y-114514380D01*
X241458571Y-115514380D02*
X241696666Y-115514380D01*
X241696666Y-115323904D01*
X241601428Y-115276285D01*
X241506190Y-115181047D01*
X241458571Y-115038190D01*
X241458571Y-114800095D01*
X241506190Y-114657238D01*
X241601428Y-114562000D01*
X241744285Y-114514380D01*
X241934761Y-114514380D01*
X242077619Y-114562000D01*
X242172857Y-114657238D01*
X242220476Y-114800095D01*
X242220476Y-115038190D01*
X242172857Y-115181047D01*
X242077619Y-115276285D01*
X241982380Y-115323904D01*
X241982380Y-115514380D01*
X242220476Y-115514380D01*
D11*
X180340000Y-179578000D02*
X180340000Y-182626000D01*
X180340000Y-175514000D02*
X180340000Y-172212000D01*
D10*
X180792380Y-178165047D02*
X180792380Y-178736476D01*
X180792380Y-178450761D02*
X179792380Y-178450761D01*
X179935238Y-178546000D01*
X180030476Y-178641238D01*
X180078095Y-178736476D01*
X179887619Y-177784095D02*
X179840000Y-177736476D01*
X179792380Y-177641238D01*
X179792380Y-177403142D01*
X179840000Y-177307904D01*
X179887619Y-177260285D01*
X179982857Y-177212666D01*
X180078095Y-177212666D01*
X180220952Y-177260285D01*
X180792380Y-177831714D01*
X180792380Y-177212666D01*
X179792380Y-176926952D02*
X180792380Y-176593619D01*
X179792380Y-176260285D01*
X183388095Y-271280000D02*
X183292857Y-271232380D01*
X183150000Y-271232380D01*
X183007142Y-271280000D01*
X182911904Y-271375238D01*
X182864285Y-271470476D01*
X182816666Y-271660952D01*
X182816666Y-271803809D01*
X182864285Y-271994285D01*
X182911904Y-272089523D01*
X183007142Y-272184761D01*
X183150000Y-272232380D01*
X183245238Y-272232380D01*
X183388095Y-272184761D01*
X183435714Y-272137142D01*
X183435714Y-271803809D01*
X183245238Y-271803809D01*
X183864285Y-272232380D02*
X183864285Y-271232380D01*
X184435714Y-272232380D01*
X184435714Y-271232380D01*
X184911904Y-272232380D02*
X184911904Y-271232380D01*
X185150000Y-271232380D01*
X185292857Y-271280000D01*
X185388095Y-271375238D01*
X185435714Y-271470476D01*
X185483333Y-271660952D01*
X185483333Y-271803809D01*
X185435714Y-271994285D01*
X185388095Y-272089523D01*
X185292857Y-272184761D01*
X185150000Y-272232380D01*
X184911904Y-272232380D01*
X183530952Y-269692380D02*
X182959523Y-269692380D01*
X183245238Y-269692380D02*
X183245238Y-268692380D01*
X183150000Y-268835238D01*
X183054761Y-268930476D01*
X182959523Y-268978095D01*
X183911904Y-268787619D02*
X183959523Y-268740000D01*
X184054761Y-268692380D01*
X184292857Y-268692380D01*
X184388095Y-268740000D01*
X184435714Y-268787619D01*
X184483333Y-268882857D01*
X184483333Y-268978095D01*
X184435714Y-269120952D01*
X183864285Y-269692380D01*
X184483333Y-269692380D01*
X184769047Y-268692380D02*
X185102380Y-269692380D01*
X185435714Y-268692380D01*
D11*
X202692000Y-117348000D02*
X202692000Y-120650000D01*
X202438000Y-106934000D02*
X202438000Y-109728000D01*
X203200000Y-117348000D02*
X202184000Y-117348000D01*
X202184000Y-116586000D02*
X203200000Y-116586000D01*
X201930000Y-106172000D02*
X202946000Y-106172000D01*
X201930000Y-106934000D02*
X202946000Y-106934000D01*
X202438000Y-106172000D02*
X202946000Y-106934000D01*
X201930000Y-106934000D02*
X202438000Y-106172000D01*
D10*
X201818952Y-105862380D02*
X201247523Y-105862380D01*
X201533238Y-105862380D02*
X201533238Y-104862380D01*
X201438000Y-105005238D01*
X201342761Y-105100476D01*
X201247523Y-105148095D01*
X202199904Y-104957619D02*
X202247523Y-104910000D01*
X202342761Y-104862380D01*
X202580857Y-104862380D01*
X202676095Y-104910000D01*
X202723714Y-104957619D01*
X202771333Y-105052857D01*
X202771333Y-105148095D01*
X202723714Y-105290952D01*
X202152285Y-105862380D01*
X202771333Y-105862380D01*
X203057047Y-104862380D02*
X203390380Y-105862380D01*
X203723714Y-104862380D01*
D11*
X202692000Y-116586000D02*
X203200000Y-117348000D01*
X202184000Y-117348000D02*
X202692000Y-116586000D01*
D10*
X201818952Y-116022380D02*
X201247523Y-116022380D01*
X201533238Y-116022380D02*
X201533238Y-115022380D01*
X201438000Y-115165238D01*
X201342761Y-115260476D01*
X201247523Y-115308095D01*
X202199904Y-115117619D02*
X202247523Y-115070000D01*
X202342761Y-115022380D01*
X202580857Y-115022380D01*
X202676095Y-115070000D01*
X202723714Y-115117619D01*
X202771333Y-115212857D01*
X202771333Y-115308095D01*
X202723714Y-115450952D01*
X202152285Y-116022380D01*
X202771333Y-116022380D01*
X203057047Y-115022380D02*
X203390380Y-116022380D01*
X203723714Y-115022380D01*
D11*
X226568000Y-98552000D02*
X226314000Y-98298000D01*
X226314000Y-98806000D02*
X226568000Y-98552000D01*
X226568000Y-99060000D02*
X226314000Y-98806000D01*
X226314000Y-99314000D02*
X226568000Y-99060000D01*
X226568000Y-99568000D02*
X226314000Y-99314000D01*
X226314000Y-99822000D02*
X226568000Y-99568000D01*
X226568000Y-100076000D02*
X226314000Y-99822000D01*
X226314000Y-100330000D02*
X226568000Y-100076000D01*
X226314000Y-98552000D02*
X226060000Y-98298000D01*
X226060000Y-98806000D02*
X226314000Y-98552000D01*
X226314000Y-99060000D02*
X226060000Y-98806000D01*
X226060000Y-99314000D02*
X226314000Y-99060000D01*
X226314000Y-99568000D02*
X226060000Y-99314000D01*
X226060000Y-99822000D02*
X226314000Y-99568000D01*
X226314000Y-100076000D02*
X226060000Y-99822000D01*
X226060000Y-100330000D02*
X226314000Y-100076000D01*
X228600000Y-97028000D02*
X228600000Y-101600000D01*
X219710000Y-99060000D02*
X225044000Y-97028000D01*
X228600000Y-97028000D02*
X225044000Y-97028000D01*
D10*
X232608380Y-98788571D02*
X231608380Y-98788571D01*
X232227428Y-98693333D02*
X232608380Y-98407619D01*
X231941714Y-98407619D02*
X232322666Y-98788571D01*
X232560761Y-97598095D02*
X232608380Y-97693333D01*
X232608380Y-97883809D01*
X232560761Y-97979047D01*
X232465523Y-98026666D01*
X232084571Y-98026666D01*
X231989333Y-97979047D01*
X231941714Y-97883809D01*
X231941714Y-97693333D01*
X231989333Y-97598095D01*
X232084571Y-97550476D01*
X232179809Y-97550476D01*
X232275047Y-98026666D01*
X231941714Y-97121904D02*
X232608380Y-97121904D01*
X232036952Y-97121904D02*
X231989333Y-97074285D01*
X231941714Y-96979047D01*
X231941714Y-96836190D01*
X231989333Y-96740952D01*
X232084571Y-96693333D01*
X232608380Y-96693333D01*
X232608380Y-95788571D02*
X232084571Y-95788571D01*
X231989333Y-95836190D01*
X231941714Y-95931428D01*
X231941714Y-96121904D01*
X231989333Y-96217142D01*
X232560761Y-95788571D02*
X232608380Y-95883809D01*
X232608380Y-96121904D01*
X232560761Y-96217142D01*
X232465523Y-96264761D01*
X232370285Y-96264761D01*
X232275047Y-96217142D01*
X232227428Y-96121904D01*
X232227428Y-95883809D01*
X232179809Y-95788571D01*
X231941714Y-95312380D02*
X232608380Y-95312380D01*
X232036952Y-95312380D02*
X231989333Y-95264761D01*
X231941714Y-95169523D01*
X231941714Y-95026666D01*
X231989333Y-94931428D01*
X232084571Y-94883809D01*
X232608380Y-94883809D01*
X232608380Y-94407619D02*
X231608380Y-94407619D01*
X231989333Y-94407619D02*
X231941714Y-94312380D01*
X231941714Y-94121904D01*
X231989333Y-94026666D01*
X232036952Y-93979047D01*
X232132190Y-93931428D01*
X232417904Y-93931428D01*
X232513142Y-93979047D01*
X232560761Y-94026666D01*
X232608380Y-94121904D01*
X232608380Y-94312380D01*
X232560761Y-94407619D01*
X232608380Y-93502857D02*
X231941714Y-93502857D01*
X231608380Y-93502857D02*
X231656000Y-93550476D01*
X231703619Y-93502857D01*
X231656000Y-93455238D01*
X231608380Y-93502857D01*
X231703619Y-93502857D01*
X231941714Y-93169523D02*
X231941714Y-92788571D01*
X231608380Y-93026666D02*
X232465523Y-93026666D01*
X232560761Y-92979047D01*
X232608380Y-92883809D01*
X232608380Y-92788571D01*
X232513142Y-92455238D02*
X232560761Y-92407619D01*
X232608380Y-92455238D01*
X232560761Y-92502857D01*
X232513142Y-92455238D01*
X232608380Y-92455238D01*
X231941714Y-91550476D02*
X232751238Y-91550476D01*
X232846476Y-91598095D01*
X232894095Y-91645714D01*
X232941714Y-91740952D01*
X232941714Y-91883809D01*
X232894095Y-91979047D01*
X232560761Y-91550476D02*
X232608380Y-91645714D01*
X232608380Y-91836190D01*
X232560761Y-91931428D01*
X232513142Y-91979047D01*
X232417904Y-92026666D01*
X232132190Y-92026666D01*
X232036952Y-91979047D01*
X231989333Y-91931428D01*
X231941714Y-91836190D01*
X231941714Y-91645714D01*
X231989333Y-91550476D01*
X232608380Y-91074285D02*
X231941714Y-91074285D01*
X231608380Y-91074285D02*
X231656000Y-91121904D01*
X231703619Y-91074285D01*
X231656000Y-91026666D01*
X231608380Y-91074285D01*
X231703619Y-91074285D01*
X231941714Y-90740952D02*
X231941714Y-90360000D01*
X231608380Y-90598095D02*
X232465523Y-90598095D01*
X232560761Y-90550476D01*
X232608380Y-90455238D01*
X232608380Y-90360000D01*
X232608380Y-90026666D02*
X231608380Y-90026666D01*
X232608380Y-89598095D02*
X232084571Y-89598095D01*
X231989333Y-89645714D01*
X231941714Y-89740952D01*
X231941714Y-89883809D01*
X231989333Y-89979047D01*
X232036952Y-90026666D01*
X231941714Y-88693333D02*
X232608380Y-88693333D01*
X231941714Y-89121904D02*
X232465523Y-89121904D01*
X232560761Y-89074285D01*
X232608380Y-88979047D01*
X232608380Y-88836190D01*
X232560761Y-88740952D01*
X232513142Y-88693333D01*
X232608380Y-88217142D02*
X231608380Y-88217142D01*
X231989333Y-88217142D02*
X231941714Y-88121904D01*
X231941714Y-87931428D01*
X231989333Y-87836190D01*
X232036952Y-87788571D01*
X232132190Y-87740952D01*
X232417904Y-87740952D01*
X232513142Y-87788571D01*
X232560761Y-87836190D01*
X232608380Y-87931428D01*
X232608380Y-88121904D01*
X232560761Y-88217142D01*
X232513142Y-87312380D02*
X232560761Y-87264761D01*
X232608380Y-87312380D01*
X232560761Y-87360000D01*
X232513142Y-87312380D01*
X232608380Y-87312380D01*
X232608380Y-86836190D02*
X231941714Y-86836190D01*
X231608380Y-86836190D02*
X231656000Y-86883809D01*
X231703619Y-86836190D01*
X231656000Y-86788571D01*
X231608380Y-86836190D01*
X231703619Y-86836190D01*
X232608380Y-86217142D02*
X232560761Y-86312380D01*
X232513142Y-86360000D01*
X232417904Y-86407619D01*
X232132190Y-86407619D01*
X232036952Y-86360000D01*
X231989333Y-86312380D01*
X231941714Y-86217142D01*
X231941714Y-86074285D01*
X231989333Y-85979047D01*
X232036952Y-85931428D01*
X232132190Y-85883809D01*
X232417904Y-85883809D01*
X232513142Y-85931428D01*
X232560761Y-85979047D01*
X232608380Y-86074285D01*
X232608380Y-86217142D01*
X231560761Y-84740952D02*
X232846476Y-85598095D01*
X232560761Y-84455238D02*
X232608380Y-84360000D01*
X232608380Y-84169523D01*
X232560761Y-84074285D01*
X232465523Y-84026666D01*
X232417904Y-84026666D01*
X232322666Y-84074285D01*
X232275047Y-84169523D01*
X232275047Y-84312380D01*
X232227428Y-84407619D01*
X232132190Y-84455238D01*
X232084571Y-84455238D01*
X231989333Y-84407619D01*
X231941714Y-84312380D01*
X231941714Y-84169523D01*
X231989333Y-84074285D01*
X232608380Y-83598095D02*
X231941714Y-83598095D01*
X232036952Y-83598095D02*
X231989333Y-83550476D01*
X231941714Y-83455238D01*
X231941714Y-83312380D01*
X231989333Y-83217142D01*
X232084571Y-83169523D01*
X232608380Y-83169523D01*
X232084571Y-83169523D02*
X231989333Y-83121904D01*
X231941714Y-83026666D01*
X231941714Y-82883809D01*
X231989333Y-82788571D01*
X232084571Y-82740952D01*
X232608380Y-82740952D01*
X232608380Y-81836190D02*
X232084571Y-81836190D01*
X231989333Y-81883809D01*
X231941714Y-81979047D01*
X231941714Y-82169523D01*
X231989333Y-82264761D01*
X232560761Y-81836190D02*
X232608380Y-81931428D01*
X232608380Y-82169523D01*
X232560761Y-82264761D01*
X232465523Y-82312380D01*
X232370285Y-82312380D01*
X232275047Y-82264761D01*
X232227428Y-82169523D01*
X232227428Y-81931428D01*
X232179809Y-81836190D01*
X232608380Y-81360000D02*
X231941714Y-81360000D01*
X232132190Y-81360000D02*
X232036952Y-81312380D01*
X231989333Y-81264761D01*
X231941714Y-81169523D01*
X231941714Y-81074285D01*
X231941714Y-80883809D02*
X231941714Y-80502857D01*
X231608380Y-80740952D02*
X232465523Y-80740952D01*
X232560761Y-80693333D01*
X232608380Y-80598095D01*
X232608380Y-80502857D01*
X232227428Y-80169523D02*
X232227428Y-79407619D01*
X232608380Y-78788571D02*
X232560761Y-78883809D01*
X232513142Y-78931428D01*
X232417904Y-78979047D01*
X232132190Y-78979047D01*
X232036952Y-78931428D01*
X231989333Y-78883809D01*
X231941714Y-78788571D01*
X231941714Y-78645714D01*
X231989333Y-78550476D01*
X232036952Y-78502857D01*
X232132190Y-78455238D01*
X232417904Y-78455238D01*
X232513142Y-78502857D01*
X232560761Y-78550476D01*
X232608380Y-78645714D01*
X232608380Y-78788571D01*
X232227428Y-78026666D02*
X232227428Y-77264761D01*
X232608380Y-76788571D02*
X231608380Y-76788571D01*
X232608380Y-76360000D02*
X232084571Y-76360000D01*
X231989333Y-76407619D01*
X231941714Y-76502857D01*
X231941714Y-76645714D01*
X231989333Y-76740952D01*
X232036952Y-76788571D01*
X232608380Y-75455238D02*
X232084571Y-75455238D01*
X231989333Y-75502857D01*
X231941714Y-75598095D01*
X231941714Y-75788571D01*
X231989333Y-75883809D01*
X232560761Y-75455238D02*
X232608380Y-75550476D01*
X232608380Y-75788571D01*
X232560761Y-75883809D01*
X232465523Y-75931428D01*
X232370285Y-75931428D01*
X232275047Y-75883809D01*
X232227428Y-75788571D01*
X232227428Y-75550476D01*
X232179809Y-75455238D01*
X232608380Y-74979047D02*
X231941714Y-74979047D01*
X232132190Y-74979047D02*
X232036952Y-74931428D01*
X231989333Y-74883809D01*
X231941714Y-74788571D01*
X231941714Y-74693333D01*
X231941714Y-74360000D02*
X232941714Y-74360000D01*
X231989333Y-74360000D02*
X231941714Y-74264761D01*
X231941714Y-74074285D01*
X231989333Y-73979047D01*
X232036952Y-73931428D01*
X232132190Y-73883809D01*
X232417904Y-73883809D01*
X232513142Y-73931428D01*
X232560761Y-73979047D01*
X232608380Y-74074285D01*
X232608380Y-74264761D01*
X232560761Y-74360000D01*
D11*
X225425000Y-98044000D02*
X225425000Y-98171000D01*
X227076000Y-98044000D02*
X225425000Y-98044000D01*
X227076000Y-100584000D02*
X227076000Y-98044000D01*
X225425000Y-100584000D02*
X227076000Y-100584000D01*
X225425000Y-98171000D02*
X225425000Y-100584000D01*
X219710000Y-99060000D02*
X219710000Y-101600000D01*
X219710000Y-101600000D02*
X220980000Y-101600000D01*
X220980000Y-101600000D02*
X228600000Y-101600000D01*
D10*
X234894380Y-98718285D02*
X233894380Y-98718285D01*
X233894380Y-98337333D01*
X233942000Y-98242095D01*
X233989619Y-98194476D01*
X234084857Y-98146857D01*
X234227714Y-98146857D01*
X234322952Y-98194476D01*
X234370571Y-98242095D01*
X234418190Y-98337333D01*
X234418190Y-98718285D01*
X234799142Y-97146857D02*
X234846761Y-97194476D01*
X234894380Y-97337333D01*
X234894380Y-97432571D01*
X234846761Y-97575428D01*
X234751523Y-97670666D01*
X234656285Y-97718285D01*
X234465809Y-97765904D01*
X234322952Y-97765904D01*
X234132476Y-97718285D01*
X234037238Y-97670666D01*
X233942000Y-97575428D01*
X233894380Y-97432571D01*
X233894380Y-97337333D01*
X233942000Y-97194476D01*
X233989619Y-97146857D01*
X234370571Y-96384952D02*
X234418190Y-96242095D01*
X234465809Y-96194476D01*
X234561047Y-96146857D01*
X234703904Y-96146857D01*
X234799142Y-96194476D01*
X234846761Y-96242095D01*
X234894380Y-96337333D01*
X234894380Y-96718285D01*
X233894380Y-96718285D01*
X233894380Y-96384952D01*
X233942000Y-96289714D01*
X233989619Y-96242095D01*
X234084857Y-96194476D01*
X234180095Y-96194476D01*
X234275333Y-96242095D01*
X234322952Y-96289714D01*
X234370571Y-96384952D01*
X234370571Y-96718285D01*
X234227714Y-95051619D02*
X234894380Y-94813523D01*
X234227714Y-94575428D01*
X234894380Y-93670666D02*
X234894380Y-94242095D01*
X234894380Y-93956380D02*
X233894380Y-93956380D01*
X234037238Y-94051619D01*
X234132476Y-94146857D01*
X234180095Y-94242095D01*
X234799142Y-93242095D02*
X234846761Y-93194476D01*
X234894380Y-93242095D01*
X234846761Y-93289714D01*
X234799142Y-93242095D01*
X234894380Y-93242095D01*
X233894380Y-92575428D02*
X233894380Y-92480190D01*
X233942000Y-92384952D01*
X233989619Y-92337333D01*
X234084857Y-92289714D01*
X234275333Y-92242095D01*
X234513428Y-92242095D01*
X234703904Y-92289714D01*
X234799142Y-92337333D01*
X234846761Y-92384952D01*
X234894380Y-92480190D01*
X234894380Y-92575428D01*
X234846761Y-92670666D01*
X234799142Y-92718285D01*
X234703904Y-92765904D01*
X234513428Y-92813523D01*
X234275333Y-92813523D01*
X234084857Y-92765904D01*
X233989619Y-92718285D01*
X233942000Y-92670666D01*
X233894380Y-92575428D01*
X222449523Y-95440000D02*
X222544761Y-95154285D01*
X222544761Y-94678095D01*
X222449523Y-94487619D01*
X222354285Y-94392380D01*
X222163809Y-94297142D01*
X221973333Y-94297142D01*
X221782857Y-94392380D01*
X221687619Y-94487619D01*
X221592380Y-94678095D01*
X221497142Y-95059047D01*
X221401904Y-95249523D01*
X221306666Y-95344761D01*
X221116190Y-95440000D01*
X220925714Y-95440000D01*
X220735238Y-95344761D01*
X220640000Y-95249523D01*
X220544761Y-95059047D01*
X220544761Y-94582857D01*
X220640000Y-94297142D01*
X222544761Y-93440000D02*
X221211428Y-93440000D01*
X221401904Y-93440000D02*
X221306666Y-93344761D01*
X221211428Y-93154285D01*
X221211428Y-92868571D01*
X221306666Y-92678095D01*
X221497142Y-92582857D01*
X222544761Y-92582857D01*
X221497142Y-92582857D02*
X221306666Y-92487619D01*
X221211428Y-92297142D01*
X221211428Y-92011428D01*
X221306666Y-91820952D01*
X221497142Y-91725714D01*
X222544761Y-91725714D01*
X222544761Y-89916190D02*
X221497142Y-89916190D01*
X221306666Y-90011428D01*
X221211428Y-90201904D01*
X221211428Y-90582857D01*
X221306666Y-90773333D01*
X222449523Y-89916190D02*
X222544761Y-90106666D01*
X222544761Y-90582857D01*
X222449523Y-90773333D01*
X222259047Y-90868571D01*
X222068571Y-90868571D01*
X221878095Y-90773333D01*
X221782857Y-90582857D01*
X221782857Y-90106666D01*
X221687619Y-89916190D01*
X222544761Y-88963809D02*
X221211428Y-88963809D01*
X221592380Y-88963809D02*
X221401904Y-88868571D01*
X221306666Y-88773333D01*
X221211428Y-88582857D01*
X221211428Y-88392380D01*
X221211428Y-88011428D02*
X221211428Y-87249523D01*
X220544761Y-87725714D02*
X222259047Y-87725714D01*
X222449523Y-87630476D01*
X222544761Y-87440000D01*
X222544761Y-87249523D01*
X224932857Y-94344761D02*
X224932857Y-92820952D01*
X225694761Y-91582857D02*
X225599523Y-91773333D01*
X225504285Y-91868571D01*
X225313809Y-91963809D01*
X224742380Y-91963809D01*
X224551904Y-91868571D01*
X224456666Y-91773333D01*
X224361428Y-91582857D01*
X224361428Y-91297142D01*
X224456666Y-91106666D01*
X224551904Y-91011428D01*
X224742380Y-90916190D01*
X225313809Y-90916190D01*
X225504285Y-91011428D01*
X225599523Y-91106666D01*
X225694761Y-91297142D01*
X225694761Y-91582857D01*
X224932857Y-90059047D02*
X224932857Y-88535238D01*
X228844761Y-94440000D02*
X226844761Y-94440000D01*
X227797142Y-94440000D02*
X227797142Y-93297142D01*
X228844761Y-93297142D02*
X226844761Y-93297142D01*
X228844761Y-91487619D02*
X227797142Y-91487619D01*
X227606666Y-91582857D01*
X227511428Y-91773333D01*
X227511428Y-92154285D01*
X227606666Y-92344761D01*
X228749523Y-91487619D02*
X228844761Y-91678095D01*
X228844761Y-92154285D01*
X228749523Y-92344761D01*
X228559047Y-92440000D01*
X228368571Y-92440000D01*
X228178095Y-92344761D01*
X228082857Y-92154285D01*
X228082857Y-91678095D01*
X227987619Y-91487619D01*
X228844761Y-90535238D02*
X227511428Y-90535238D01*
X227892380Y-90535238D02*
X227701904Y-90440000D01*
X227606666Y-90344761D01*
X227511428Y-90154285D01*
X227511428Y-89963809D01*
X227511428Y-89297142D02*
X229511428Y-89297142D01*
X227606666Y-89297142D02*
X227511428Y-89106666D01*
X227511428Y-88725714D01*
X227606666Y-88535238D01*
X227701904Y-88440000D01*
X227892380Y-88344761D01*
X228463809Y-88344761D01*
X228654285Y-88440000D01*
X228749523Y-88535238D01*
X228844761Y-88725714D01*
X228844761Y-89106666D01*
X228749523Y-89297142D01*
D11*
X256540000Y-69850000D02*
X248920000Y-69850000D01*
X256540000Y-80010000D02*
X256540000Y-69850000D01*
X248920000Y-80010000D02*
X256540000Y-80010000D01*
X248920000Y-69850000D02*
X248920000Y-80010000D01*
D12*
%TO.C,REF\u002A\u002A*%
G36*
X235091918Y-69964256D02*
G01*
X235119568Y-69908799D01*
X235170480Y-69859852D01*
X235189338Y-69846371D01*
X235214015Y-69831686D01*
X235240816Y-69822158D01*
X235276587Y-69816707D01*
X235328169Y-69814253D01*
X235396267Y-69813714D01*
X235489588Y-69816148D01*
X235559657Y-69824606D01*
X235611931Y-69840826D01*
X235651869Y-69866546D01*
X235684929Y-69903503D01*
X235686886Y-69906218D01*
X235706908Y-69942640D01*
X235716815Y-69986498D01*
X235719257Y-70042276D01*
X235719257Y-70132952D01*
X235807283Y-70132990D01*
X235856308Y-70133834D01*
X235885065Y-70138976D01*
X235902311Y-70152413D01*
X235916808Y-70178142D01*
X235919769Y-70184321D01*
X235933648Y-70213236D01*
X235942414Y-70235624D01*
X235943171Y-70252271D01*
X235933023Y-70263964D01*
X235909073Y-70271490D01*
X235868426Y-70275634D01*
X235808186Y-70277185D01*
X235725455Y-70276929D01*
X235617339Y-70275651D01*
X235585000Y-70275252D01*
X235473524Y-70273815D01*
X235400603Y-70272528D01*
X235400603Y-70133029D01*
X235462499Y-70132245D01*
X235502997Y-70128760D01*
X235529708Y-70120876D01*
X235550244Y-70106895D01*
X235560260Y-70097403D01*
X235589567Y-70058596D01*
X235591952Y-70024237D01*
X235567750Y-69988784D01*
X235566857Y-69987886D01*
X235548153Y-69973461D01*
X235522732Y-69964687D01*
X235483584Y-69960261D01*
X235423697Y-69958882D01*
X235410430Y-69958857D01*
X235327901Y-69962188D01*
X235270691Y-69973031D01*
X235235766Y-69992660D01*
X235220094Y-70022350D01*
X235218514Y-70039509D01*
X235225926Y-70080234D01*
X235250330Y-70108168D01*
X235294980Y-70124983D01*
X235363130Y-70132350D01*
X235400603Y-70133029D01*
X235400603Y-70272528D01*
X235387245Y-70272292D01*
X235322333Y-70270323D01*
X235274958Y-70267550D01*
X235241290Y-70263612D01*
X235217498Y-70258151D01*
X235199753Y-70250808D01*
X235184224Y-70241223D01*
X235178381Y-70237113D01*
X235123185Y-70182595D01*
X235091890Y-70113664D01*
X235083165Y-70033928D01*
X235091918Y-69964256D01*
G37*
X235091918Y-69964256D02*
X235119568Y-69908799D01*
X235170480Y-69859852D01*
X235189338Y-69846371D01*
X235214015Y-69831686D01*
X235240816Y-69822158D01*
X235276587Y-69816707D01*
X235328169Y-69814253D01*
X235396267Y-69813714D01*
X235489588Y-69816148D01*
X235559657Y-69824606D01*
X235611931Y-69840826D01*
X235651869Y-69866546D01*
X235684929Y-69903503D01*
X235686886Y-69906218D01*
X235706908Y-69942640D01*
X235716815Y-69986498D01*
X235719257Y-70042276D01*
X235719257Y-70132952D01*
X235807283Y-70132990D01*
X235856308Y-70133834D01*
X235885065Y-70138976D01*
X235902311Y-70152413D01*
X235916808Y-70178142D01*
X235919769Y-70184321D01*
X235933648Y-70213236D01*
X235942414Y-70235624D01*
X235943171Y-70252271D01*
X235933023Y-70263964D01*
X235909073Y-70271490D01*
X235868426Y-70275634D01*
X235808186Y-70277185D01*
X235725455Y-70276929D01*
X235617339Y-70275651D01*
X235585000Y-70275252D01*
X235473524Y-70273815D01*
X235400603Y-70272528D01*
X235400603Y-70133029D01*
X235462499Y-70132245D01*
X235502997Y-70128760D01*
X235529708Y-70120876D01*
X235550244Y-70106895D01*
X235560260Y-70097403D01*
X235589567Y-70058596D01*
X235591952Y-70024237D01*
X235567750Y-69988784D01*
X235566857Y-69987886D01*
X235548153Y-69973461D01*
X235522732Y-69964687D01*
X235483584Y-69960261D01*
X235423697Y-69958882D01*
X235410430Y-69958857D01*
X235327901Y-69962188D01*
X235270691Y-69973031D01*
X235235766Y-69992660D01*
X235220094Y-70022350D01*
X235218514Y-70039509D01*
X235225926Y-70080234D01*
X235250330Y-70108168D01*
X235294980Y-70124983D01*
X235363130Y-70132350D01*
X235400603Y-70133029D01*
X235400603Y-70272528D01*
X235387245Y-70272292D01*
X235322333Y-70270323D01*
X235274958Y-70267550D01*
X235241290Y-70263612D01*
X235217498Y-70258151D01*
X235199753Y-70250808D01*
X235184224Y-70241223D01*
X235178381Y-70237113D01*
X235123185Y-70182595D01*
X235091890Y-70113664D01*
X235083165Y-70033928D01*
X235091918Y-69964256D01*
G36*
X235099780Y-68847907D02*
G01*
X235126723Y-68801328D01*
X235153466Y-68768943D01*
X235181484Y-68745258D01*
X235215748Y-68728941D01*
X235261227Y-68718661D01*
X235322892Y-68713086D01*
X235405711Y-68710884D01*
X235465246Y-68710629D01*
X235684391Y-68710629D01*
X235712044Y-68772314D01*
X235739697Y-68834000D01*
X235499670Y-68841257D01*
X235410028Y-68844256D01*
X235344962Y-68847402D01*
X235300026Y-68851299D01*
X235270770Y-68856553D01*
X235252748Y-68863769D01*
X235241511Y-68873550D01*
X235239079Y-68876688D01*
X235220083Y-68924239D01*
X235227600Y-68972303D01*
X235247543Y-69000914D01*
X235261675Y-69012553D01*
X235280220Y-69020609D01*
X235308334Y-69025729D01*
X235351173Y-69028559D01*
X235413895Y-69029744D01*
X235479261Y-69029943D01*
X235561268Y-69029982D01*
X235619316Y-69031386D01*
X235658465Y-69036086D01*
X235683780Y-69046013D01*
X235700323Y-69063097D01*
X235713156Y-69089268D01*
X235726491Y-69124225D01*
X235741007Y-69162404D01*
X235483389Y-69157859D01*
X235390519Y-69156029D01*
X235321889Y-69153888D01*
X235272711Y-69150819D01*
X235238198Y-69146206D01*
X235213562Y-69139432D01*
X235194016Y-69129881D01*
X235176770Y-69118366D01*
X235121680Y-69062810D01*
X235089822Y-68995020D01*
X235082191Y-68921287D01*
X235099780Y-68847907D01*
G37*
X235099780Y-68847907D02*
X235126723Y-68801328D01*
X235153466Y-68768943D01*
X235181484Y-68745258D01*
X235215748Y-68728941D01*
X235261227Y-68718661D01*
X235322892Y-68713086D01*
X235405711Y-68710884D01*
X235465246Y-68710629D01*
X235684391Y-68710629D01*
X235712044Y-68772314D01*
X235739697Y-68834000D01*
X235499670Y-68841257D01*
X235410028Y-68844256D01*
X235344962Y-68847402D01*
X235300026Y-68851299D01*
X235270770Y-68856553D01*
X235252748Y-68863769D01*
X235241511Y-68873550D01*
X235239079Y-68876688D01*
X235220083Y-68924239D01*
X235227600Y-68972303D01*
X235247543Y-69000914D01*
X235261675Y-69012553D01*
X235280220Y-69020609D01*
X235308334Y-69025729D01*
X235351173Y-69028559D01*
X235413895Y-69029744D01*
X235479261Y-69029943D01*
X235561268Y-69029982D01*
X235619316Y-69031386D01*
X235658465Y-69036086D01*
X235683780Y-69046013D01*
X235700323Y-69063097D01*
X235713156Y-69089268D01*
X235726491Y-69124225D01*
X235741007Y-69162404D01*
X235483389Y-69157859D01*
X235390519Y-69156029D01*
X235321889Y-69153888D01*
X235272711Y-69150819D01*
X235238198Y-69146206D01*
X235213562Y-69139432D01*
X235194016Y-69129881D01*
X235176770Y-69118366D01*
X235121680Y-69062810D01*
X235089822Y-68995020D01*
X235082191Y-68921287D01*
X235099780Y-68847907D01*
G36*
X235093962Y-70522885D02*
G01*
X235129733Y-70454855D01*
X235187301Y-70404649D01*
X235224312Y-70386815D01*
X235279882Y-70372937D01*
X235350096Y-70365833D01*
X235426727Y-70365160D01*
X235501552Y-70370573D01*
X235566342Y-70381730D01*
X235612873Y-70398286D01*
X235620887Y-70403374D01*
X235680707Y-70463645D01*
X235716535Y-70535231D01*
X235727020Y-70612908D01*
X235710810Y-70691452D01*
X235701092Y-70713311D01*
X235671143Y-70755878D01*
X235631433Y-70793237D01*
X235626397Y-70796768D01*
X235602124Y-70811119D01*
X235576178Y-70820606D01*
X235542022Y-70826210D01*
X235493119Y-70828914D01*
X235422935Y-70829701D01*
X235407200Y-70829714D01*
X235402192Y-70829678D01*
X235402192Y-70684571D01*
X235468430Y-70683727D01*
X235512386Y-70680404D01*
X235540779Y-70673417D01*
X235560325Y-70661584D01*
X235566857Y-70655543D01*
X235591680Y-70620814D01*
X235590548Y-70587097D01*
X235569016Y-70553005D01*
X235546029Y-70532671D01*
X235512478Y-70520629D01*
X235459569Y-70513866D01*
X235453399Y-70513402D01*
X235357513Y-70512248D01*
X235286299Y-70524312D01*
X235240194Y-70549430D01*
X235219635Y-70587440D01*
X235218514Y-70601008D01*
X235224152Y-70636636D01*
X235243686Y-70661006D01*
X235281042Y-70675907D01*
X235340150Y-70683125D01*
X235402192Y-70684571D01*
X235402192Y-70829678D01*
X235332413Y-70829174D01*
X235280159Y-70826904D01*
X235243949Y-70821932D01*
X235217299Y-70813287D01*
X235193722Y-70799995D01*
X235189338Y-70797057D01*
X235130249Y-70747687D01*
X235095947Y-70693891D01*
X235082331Y-70628398D01*
X235081665Y-70606158D01*
X235093962Y-70522885D01*
G37*
X235093962Y-70522885D02*
X235129733Y-70454855D01*
X235187301Y-70404649D01*
X235224312Y-70386815D01*
X235279882Y-70372937D01*
X235350096Y-70365833D01*
X235426727Y-70365160D01*
X235501552Y-70370573D01*
X235566342Y-70381730D01*
X235612873Y-70398286D01*
X235620887Y-70403374D01*
X235680707Y-70463645D01*
X235716535Y-70535231D01*
X235727020Y-70612908D01*
X235710810Y-70691452D01*
X235701092Y-70713311D01*
X235671143Y-70755878D01*
X235631433Y-70793237D01*
X235626397Y-70796768D01*
X235602124Y-70811119D01*
X235576178Y-70820606D01*
X235542022Y-70826210D01*
X235493119Y-70828914D01*
X235422935Y-70829701D01*
X235407200Y-70829714D01*
X235402192Y-70829678D01*
X235402192Y-70684571D01*
X235468430Y-70683727D01*
X235512386Y-70680404D01*
X235540779Y-70673417D01*
X235560325Y-70661584D01*
X235566857Y-70655543D01*
X235591680Y-70620814D01*
X235590548Y-70587097D01*
X235569016Y-70553005D01*
X235546029Y-70532671D01*
X235512478Y-70520629D01*
X235459569Y-70513866D01*
X235453399Y-70513402D01*
X235357513Y-70512248D01*
X235286299Y-70524312D01*
X235240194Y-70549430D01*
X235219635Y-70587440D01*
X235218514Y-70601008D01*
X235224152Y-70636636D01*
X235243686Y-70661006D01*
X235281042Y-70675907D01*
X235340150Y-70683125D01*
X235402192Y-70684571D01*
X235402192Y-70829678D01*
X235332413Y-70829174D01*
X235280159Y-70826904D01*
X235243949Y-70821932D01*
X235217299Y-70813287D01*
X235193722Y-70799995D01*
X235189338Y-70797057D01*
X235130249Y-70747687D01*
X235095947Y-70693891D01*
X235082331Y-70628398D01*
X235081665Y-70606158D01*
X235093962Y-70522885D01*
G36*
X235103239Y-69395697D02*
G01*
X235141735Y-69338473D01*
X235197335Y-69294251D01*
X235268086Y-69267833D01*
X235320162Y-69262490D01*
X235341893Y-69263097D01*
X235358531Y-69268178D01*
X235373437Y-69282145D01*
X235389973Y-69309411D01*
X235411498Y-69354388D01*
X235441374Y-69421489D01*
X235441524Y-69421829D01*
X235469813Y-69483593D01*
X235494933Y-69534241D01*
X235514179Y-69568596D01*
X235524848Y-69581482D01*
X235524934Y-69581486D01*
X235548166Y-69570128D01*
X235573774Y-69543569D01*
X235592221Y-69513077D01*
X235595886Y-69497630D01*
X235583212Y-69455485D01*
X235551471Y-69419192D01*
X235516572Y-69401483D01*
X235490845Y-69384448D01*
X235461546Y-69351078D01*
X235436235Y-69311851D01*
X235422471Y-69277244D01*
X235421714Y-69270007D01*
X235434160Y-69261861D01*
X235465972Y-69261370D01*
X235508866Y-69267357D01*
X235554558Y-69278643D01*
X235594761Y-69294050D01*
X235596322Y-69294829D01*
X235661062Y-69341196D01*
X235705097Y-69401289D01*
X235726711Y-69469535D01*
X235724185Y-69540362D01*
X235695804Y-69608196D01*
X235693808Y-69611212D01*
X235645448Y-69664573D01*
X235582352Y-69699660D01*
X235499387Y-69719078D01*
X235476078Y-69721684D01*
X235366055Y-69726299D01*
X235314748Y-69720767D01*
X235314748Y-69581486D01*
X235346753Y-69579676D01*
X235356093Y-69569778D01*
X235349105Y-69545102D01*
X235332587Y-69506205D01*
X235311881Y-69462725D01*
X235311333Y-69461644D01*
X235291949Y-69424791D01*
X235279013Y-69410000D01*
X235265451Y-69413647D01*
X235247632Y-69429005D01*
X235221845Y-69468077D01*
X235219950Y-69510154D01*
X235238717Y-69547897D01*
X235274915Y-69573966D01*
X235314748Y-69581486D01*
X235314748Y-69720767D01*
X235278027Y-69716806D01*
X235208212Y-69692450D01*
X235159302Y-69658544D01*
X235109878Y-69597347D01*
X235085359Y-69529937D01*
X235083797Y-69461120D01*
X235103239Y-69395697D01*
G37*
X235103239Y-69395697D02*
X235141735Y-69338473D01*
X235197335Y-69294251D01*
X235268086Y-69267833D01*
X235320162Y-69262490D01*
X235341893Y-69263097D01*
X235358531Y-69268178D01*
X235373437Y-69282145D01*
X235389973Y-69309411D01*
X235411498Y-69354388D01*
X235441374Y-69421489D01*
X235441524Y-69421829D01*
X235469813Y-69483593D01*
X235494933Y-69534241D01*
X235514179Y-69568596D01*
X235524848Y-69581482D01*
X235524934Y-69581486D01*
X235548166Y-69570128D01*
X235573774Y-69543569D01*
X235592221Y-69513077D01*
X235595886Y-69497630D01*
X235583212Y-69455485D01*
X235551471Y-69419192D01*
X235516572Y-69401483D01*
X235490845Y-69384448D01*
X235461546Y-69351078D01*
X235436235Y-69311851D01*
X235422471Y-69277244D01*
X235421714Y-69270007D01*
X235434160Y-69261861D01*
X235465972Y-69261370D01*
X235508866Y-69267357D01*
X235554558Y-69278643D01*
X235594761Y-69294050D01*
X235596322Y-69294829D01*
X235661062Y-69341196D01*
X235705097Y-69401289D01*
X235726711Y-69469535D01*
X235724185Y-69540362D01*
X235695804Y-69608196D01*
X235693808Y-69611212D01*
X235645448Y-69664573D01*
X235582352Y-69699660D01*
X235499387Y-69719078D01*
X235476078Y-69721684D01*
X235366055Y-69726299D01*
X235314748Y-69720767D01*
X235314748Y-69581486D01*
X235346753Y-69579676D01*
X235356093Y-69569778D01*
X235349105Y-69545102D01*
X235332587Y-69506205D01*
X235311881Y-69462725D01*
X235311333Y-69461644D01*
X235291949Y-69424791D01*
X235279013Y-69410000D01*
X235265451Y-69413647D01*
X235247632Y-69429005D01*
X235221845Y-69468077D01*
X235219950Y-69510154D01*
X235238717Y-69547897D01*
X235274915Y-69573966D01*
X235314748Y-69581486D01*
X235314748Y-69720767D01*
X235278027Y-69716806D01*
X235208212Y-69692450D01*
X235159302Y-69658544D01*
X235109878Y-69597347D01*
X235085359Y-69529937D01*
X235083797Y-69461120D01*
X235103239Y-69395697D01*
G36*
X235023289Y-68188114D02*
G01*
X235082613Y-68183861D01*
X235117572Y-68178975D01*
X235132820Y-68172205D01*
X235133015Y-68162298D01*
X235131195Y-68159086D01*
X235118015Y-68116356D01*
X235118785Y-68060773D01*
X235132333Y-68004263D01*
X235149861Y-67968918D01*
X235177861Y-67932679D01*
X235209549Y-67906187D01*
X235249813Y-67888001D01*
X235303543Y-67876678D01*
X235375626Y-67870778D01*
X235470951Y-67868857D01*
X235489237Y-67868823D01*
X235694646Y-67868800D01*
X235710580Y-67914509D01*
X235721420Y-67946973D01*
X235726468Y-67964785D01*
X235726514Y-67965309D01*
X235712828Y-67967063D01*
X235675076Y-67968556D01*
X235618224Y-67969674D01*
X235547234Y-67970303D01*
X235504073Y-67970400D01*
X235418973Y-67970602D01*
X235357981Y-67971642D01*
X235316177Y-67974169D01*
X235288642Y-67978836D01*
X235270456Y-67986293D01*
X235256698Y-67997189D01*
X235250073Y-68003993D01*
X235223375Y-68050728D01*
X235221375Y-68101728D01*
X235243955Y-68147999D01*
X235252107Y-68156556D01*
X235267436Y-68169107D01*
X235285618Y-68177812D01*
X235311909Y-68183369D01*
X235351562Y-68186474D01*
X235409832Y-68187824D01*
X235490173Y-68188114D01*
X235694646Y-68188114D01*
X235710580Y-68233823D01*
X235721420Y-68266287D01*
X235726468Y-68284099D01*
X235726514Y-68284623D01*
X235712623Y-68285963D01*
X235673439Y-68287172D01*
X235612700Y-68288199D01*
X235534141Y-68288998D01*
X235441498Y-68289519D01*
X235338509Y-68289714D01*
X234941342Y-68289714D01*
X234921444Y-68242543D01*
X234901547Y-68195371D01*
X235023289Y-68188114D01*
G37*
X235023289Y-68188114D02*
X235082613Y-68183861D01*
X235117572Y-68178975D01*
X235132820Y-68172205D01*
X235133015Y-68162298D01*
X235131195Y-68159086D01*
X235118015Y-68116356D01*
X235118785Y-68060773D01*
X235132333Y-68004263D01*
X235149861Y-67968918D01*
X235177861Y-67932679D01*
X235209549Y-67906187D01*
X235249813Y-67888001D01*
X235303543Y-67876678D01*
X235375626Y-67870778D01*
X235470951Y-67868857D01*
X235489237Y-67868823D01*
X235694646Y-67868800D01*
X235710580Y-67914509D01*
X235721420Y-67946973D01*
X235726468Y-67964785D01*
X235726514Y-67965309D01*
X235712828Y-67967063D01*
X235675076Y-67968556D01*
X235618224Y-67969674D01*
X235547234Y-67970303D01*
X235504073Y-67970400D01*
X235418973Y-67970602D01*
X235357981Y-67971642D01*
X235316177Y-67974169D01*
X235288642Y-67978836D01*
X235270456Y-67986293D01*
X235256698Y-67997189D01*
X235250073Y-68003993D01*
X235223375Y-68050728D01*
X235221375Y-68101728D01*
X235243955Y-68147999D01*
X235252107Y-68156556D01*
X235267436Y-68169107D01*
X235285618Y-68177812D01*
X235311909Y-68183369D01*
X235351562Y-68186474D01*
X235409832Y-68187824D01*
X235490173Y-68188114D01*
X235694646Y-68188114D01*
X235710580Y-68233823D01*
X235721420Y-68266287D01*
X235726468Y-68284099D01*
X235726514Y-68284623D01*
X235712623Y-68285963D01*
X235673439Y-68287172D01*
X235612700Y-68288199D01*
X235534141Y-68288998D01*
X235441498Y-68289519D01*
X235338509Y-68289714D01*
X234941342Y-68289714D01*
X234921444Y-68242543D01*
X234901547Y-68195371D01*
X235023289Y-68188114D01*
G36*
X235122968Y-67524256D02*
G01*
X235144087Y-67467384D01*
X235144493Y-67466733D01*
X235170380Y-67431560D01*
X235200633Y-67405593D01*
X235240058Y-67387330D01*
X235293462Y-67375268D01*
X235365651Y-67367904D01*
X235461432Y-67363736D01*
X235475078Y-67363371D01*
X235680842Y-67358124D01*
X235703678Y-67402284D01*
X235719110Y-67434237D01*
X235726423Y-67453530D01*
X235726514Y-67454422D01*
X235713022Y-67457761D01*
X235676626Y-67460413D01*
X235623452Y-67462044D01*
X235580393Y-67462400D01*
X235510641Y-67462408D01*
X235466837Y-67465597D01*
X235445944Y-67476712D01*
X235444925Y-67500499D01*
X235460741Y-67541704D01*
X235489815Y-67603914D01*
X235513963Y-67649659D01*
X235534913Y-67673187D01*
X235557747Y-67680104D01*
X235558877Y-67680114D01*
X235598212Y-67668701D01*
X235619462Y-67634908D01*
X235622539Y-67583191D01*
X235622006Y-67545939D01*
X235632735Y-67526297D01*
X235658505Y-67514048D01*
X235691337Y-67506998D01*
X235709966Y-67517158D01*
X235712632Y-67520983D01*
X235723340Y-67556999D01*
X235724856Y-67607434D01*
X235717759Y-67659374D01*
X235704788Y-67696178D01*
X235661585Y-67747062D01*
X235601446Y-67775986D01*
X235554462Y-67781714D01*
X235512082Y-67777343D01*
X235477488Y-67761525D01*
X235446763Y-67730203D01*
X235415990Y-67679322D01*
X235381252Y-67604824D01*
X235379288Y-67600286D01*
X235348287Y-67533179D01*
X235322862Y-67491768D01*
X235300014Y-67474019D01*
X235276745Y-67477893D01*
X235250056Y-67501357D01*
X235243914Y-67508373D01*
X235220100Y-67555370D01*
X235221103Y-67604067D01*
X235244451Y-67646478D01*
X235287675Y-67674616D01*
X235296160Y-67677231D01*
X235337308Y-67702692D01*
X235357128Y-67734999D01*
X235376770Y-67781714D01*
X235325950Y-67781714D01*
X235252082Y-67767504D01*
X235184327Y-67725325D01*
X235161661Y-67703376D01*
X235132569Y-67653483D01*
X235119400Y-67590033D01*
X235122968Y-67524256D01*
G37*
X235122968Y-67524256D02*
X235144087Y-67467384D01*
X235144493Y-67466733D01*
X235170380Y-67431560D01*
X235200633Y-67405593D01*
X235240058Y-67387330D01*
X235293462Y-67375268D01*
X235365651Y-67367904D01*
X235461432Y-67363736D01*
X235475078Y-67363371D01*
X235680842Y-67358124D01*
X235703678Y-67402284D01*
X235719110Y-67434237D01*
X235726423Y-67453530D01*
X235726514Y-67454422D01*
X235713022Y-67457761D01*
X235676626Y-67460413D01*
X235623452Y-67462044D01*
X235580393Y-67462400D01*
X235510641Y-67462408D01*
X235466837Y-67465597D01*
X235445944Y-67476712D01*
X235444925Y-67500499D01*
X235460741Y-67541704D01*
X235489815Y-67603914D01*
X235513963Y-67649659D01*
X235534913Y-67673187D01*
X235557747Y-67680104D01*
X235558877Y-67680114D01*
X235598212Y-67668701D01*
X235619462Y-67634908D01*
X235622539Y-67583191D01*
X235622006Y-67545939D01*
X235632735Y-67526297D01*
X235658505Y-67514048D01*
X235691337Y-67506998D01*
X235709966Y-67517158D01*
X235712632Y-67520983D01*
X235723340Y-67556999D01*
X235724856Y-67607434D01*
X235717759Y-67659374D01*
X235704788Y-67696178D01*
X235661585Y-67747062D01*
X235601446Y-67775986D01*
X235554462Y-67781714D01*
X235512082Y-67777343D01*
X235477488Y-67761525D01*
X235446763Y-67730203D01*
X235415990Y-67679322D01*
X235381252Y-67604824D01*
X235379288Y-67600286D01*
X235348287Y-67533179D01*
X235322862Y-67491768D01*
X235300014Y-67474019D01*
X235276745Y-67477893D01*
X235250056Y-67501357D01*
X235243914Y-67508373D01*
X235220100Y-67555370D01*
X235221103Y-67604067D01*
X235244451Y-67646478D01*
X235287675Y-67674616D01*
X235296160Y-67677231D01*
X235337308Y-67702692D01*
X235357128Y-67734999D01*
X235376770Y-67781714D01*
X235325950Y-67781714D01*
X235252082Y-67767504D01*
X235184327Y-67725325D01*
X235161661Y-67703376D01*
X235132569Y-67653483D01*
X235119400Y-67590033D01*
X235122968Y-67524256D01*
G36*
X235121755Y-67034074D02*
G01*
X235146084Y-66968142D01*
X235189117Y-66914727D01*
X235219409Y-66893836D01*
X235274994Y-66871061D01*
X235315186Y-66871534D01*
X235342217Y-66895438D01*
X235346813Y-66904283D01*
X235361144Y-66942470D01*
X235357472Y-66961972D01*
X235333407Y-66968578D01*
X235320114Y-66968914D01*
X235271210Y-66981008D01*
X235236999Y-67012529D01*
X235220476Y-67056341D01*
X235224634Y-67105305D01*
X235246227Y-67145106D01*
X235258544Y-67158550D01*
X235273487Y-67168079D01*
X235296075Y-67174515D01*
X235331328Y-67178683D01*
X235384266Y-67181403D01*
X235459907Y-67183498D01*
X235483857Y-67184040D01*
X235565790Y-67186019D01*
X235623455Y-67188269D01*
X235661608Y-67191643D01*
X235685004Y-67196994D01*
X235698398Y-67205176D01*
X235706545Y-67217041D01*
X235710144Y-67224638D01*
X235722452Y-67256898D01*
X235726514Y-67275889D01*
X235712948Y-67282164D01*
X235671934Y-67285994D01*
X235602999Y-67287400D01*
X235505669Y-67286402D01*
X235490657Y-67286092D01*
X235401859Y-67283899D01*
X235337019Y-67281307D01*
X235291067Y-67277618D01*
X235258935Y-67272136D01*
X235235553Y-67264165D01*
X235215852Y-67253007D01*
X235207410Y-67247170D01*
X235170057Y-67213704D01*
X235141003Y-67176273D01*
X235138467Y-67171691D01*
X235118443Y-67104574D01*
X235121755Y-67034074D01*
G37*
X235121755Y-67034074D02*
X235146084Y-66968142D01*
X235189117Y-66914727D01*
X235219409Y-66893836D01*
X235274994Y-66871061D01*
X235315186Y-66871534D01*
X235342217Y-66895438D01*
X235346813Y-66904283D01*
X235361144Y-66942470D01*
X235357472Y-66961972D01*
X235333407Y-66968578D01*
X235320114Y-66968914D01*
X235271210Y-66981008D01*
X235236999Y-67012529D01*
X235220476Y-67056341D01*
X235224634Y-67105305D01*
X235246227Y-67145106D01*
X235258544Y-67158550D01*
X235273487Y-67168079D01*
X235296075Y-67174515D01*
X235331328Y-67178683D01*
X235384266Y-67181403D01*
X235459907Y-67183498D01*
X235483857Y-67184040D01*
X235565790Y-67186019D01*
X235623455Y-67188269D01*
X235661608Y-67191643D01*
X235685004Y-67196994D01*
X235698398Y-67205176D01*
X235706545Y-67217041D01*
X235710144Y-67224638D01*
X235722452Y-67256898D01*
X235726514Y-67275889D01*
X235712948Y-67282164D01*
X235671934Y-67285994D01*
X235602999Y-67287400D01*
X235505669Y-67286402D01*
X235490657Y-67286092D01*
X235401859Y-67283899D01*
X235337019Y-67281307D01*
X235291067Y-67277618D01*
X235258935Y-67272136D01*
X235235553Y-67264165D01*
X235215852Y-67253007D01*
X235207410Y-67247170D01*
X235170057Y-67213704D01*
X235141003Y-67176273D01*
X235138467Y-67171691D01*
X235118443Y-67104574D01*
X235121755Y-67034074D01*
G36*
X235237358Y-66373883D02*
G01*
X235345837Y-66374067D01*
X235429287Y-66374781D01*
X235491704Y-66376325D01*
X235537085Y-66378999D01*
X235569429Y-66383106D01*
X235592733Y-66388945D01*
X235610995Y-66396818D01*
X235621418Y-66402779D01*
X235677945Y-66452145D01*
X235713377Y-66514736D01*
X235726090Y-66583987D01*
X235714463Y-66653332D01*
X235693568Y-66694625D01*
X235657422Y-66737975D01*
X235613276Y-66767519D01*
X235555462Y-66785345D01*
X235478313Y-66793537D01*
X235421714Y-66794698D01*
X235417647Y-66794542D01*
X235417647Y-66693143D01*
X235482550Y-66692524D01*
X235525514Y-66689686D01*
X235553622Y-66683160D01*
X235573953Y-66671477D01*
X235589288Y-66657517D01*
X235618890Y-66610635D01*
X235621419Y-66560299D01*
X235596705Y-66512724D01*
X235593356Y-66509021D01*
X235575935Y-66493217D01*
X235555209Y-66483307D01*
X235524362Y-66477942D01*
X235476577Y-66475772D01*
X235423748Y-66475429D01*
X235357381Y-66476173D01*
X235313106Y-66479252D01*
X235284009Y-66485939D01*
X235263173Y-66497504D01*
X235252107Y-66506987D01*
X235224198Y-66551040D01*
X235220843Y-66601776D01*
X235242159Y-66650204D01*
X235250073Y-66659550D01*
X235267647Y-66675460D01*
X235288587Y-66685390D01*
X235319782Y-66690722D01*
X235368122Y-66692837D01*
X235417647Y-66693143D01*
X235417647Y-66794542D01*
X235330568Y-66791190D01*
X235262086Y-66779274D01*
X235210600Y-66756865D01*
X235170443Y-66721876D01*
X235149861Y-66694625D01*
X235127625Y-66645093D01*
X235117304Y-66587684D01*
X235120067Y-66534318D01*
X235131212Y-66504457D01*
X235134383Y-66492739D01*
X235122557Y-66484963D01*
X235090866Y-66479535D01*
X235042593Y-66475429D01*
X234988829Y-66470933D01*
X234956482Y-66464687D01*
X234937985Y-66453324D01*
X234925770Y-66433472D01*
X234920362Y-66421000D01*
X234900601Y-66373829D01*
X235237358Y-66373883D01*
G37*
X235237358Y-66373883D02*
X235345837Y-66374067D01*
X235429287Y-66374781D01*
X235491704Y-66376325D01*
X235537085Y-66378999D01*
X235569429Y-66383106D01*
X235592733Y-66388945D01*
X235610995Y-66396818D01*
X235621418Y-66402779D01*
X235677945Y-66452145D01*
X235713377Y-66514736D01*
X235726090Y-66583987D01*
X235714463Y-66653332D01*
X235693568Y-66694625D01*
X235657422Y-66737975D01*
X235613276Y-66767519D01*
X235555462Y-66785345D01*
X235478313Y-66793537D01*
X235421714Y-66794698D01*
X235417647Y-66794542D01*
X235417647Y-66693143D01*
X235482550Y-66692524D01*
X235525514Y-66689686D01*
X235553622Y-66683160D01*
X235573953Y-66671477D01*
X235589288Y-66657517D01*
X235618890Y-66610635D01*
X235621419Y-66560299D01*
X235596705Y-66512724D01*
X235593356Y-66509021D01*
X235575935Y-66493217D01*
X235555209Y-66483307D01*
X235524362Y-66477942D01*
X235476577Y-66475772D01*
X235423748Y-66475429D01*
X235357381Y-66476173D01*
X235313106Y-66479252D01*
X235284009Y-66485939D01*
X235263173Y-66497504D01*
X235252107Y-66506987D01*
X235224198Y-66551040D01*
X235220843Y-66601776D01*
X235242159Y-66650204D01*
X235250073Y-66659550D01*
X235267647Y-66675460D01*
X235288587Y-66685390D01*
X235319782Y-66690722D01*
X235368122Y-66692837D01*
X235417647Y-66693143D01*
X235417647Y-66794542D01*
X235330568Y-66791190D01*
X235262086Y-66779274D01*
X235210600Y-66756865D01*
X235170443Y-66721876D01*
X235149861Y-66694625D01*
X235127625Y-66645093D01*
X235117304Y-66587684D01*
X235120067Y-66534318D01*
X235131212Y-66504457D01*
X235134383Y-66492739D01*
X235122557Y-66484963D01*
X235090866Y-66479535D01*
X235042593Y-66475429D01*
X234988829Y-66470933D01*
X234956482Y-66464687D01*
X234937985Y-66453324D01*
X234925770Y-66433472D01*
X234920362Y-66421000D01*
X234900601Y-66373829D01*
X235237358Y-66373883D01*
G36*
X235130663Y-65784167D02*
G01*
X235168850Y-65781952D01*
X235226886Y-65780216D01*
X235300180Y-65779101D01*
X235377055Y-65778743D01*
X235637196Y-65778743D01*
X235683127Y-65824674D01*
X235711429Y-65856325D01*
X235722893Y-65884110D01*
X235722168Y-65922085D01*
X235720321Y-65937160D01*
X235714948Y-65984274D01*
X235711869Y-66023244D01*
X235711585Y-66032743D01*
X235713445Y-66064767D01*
X235718114Y-66110568D01*
X235720321Y-66128326D01*
X235723735Y-66171943D01*
X235716320Y-66201255D01*
X235693427Y-66230320D01*
X235683127Y-66240812D01*
X235637196Y-66286743D01*
X235150602Y-66286743D01*
X235133758Y-66249774D01*
X235121282Y-66217941D01*
X235116914Y-66199317D01*
X235130718Y-66194542D01*
X235169286Y-66190079D01*
X235228356Y-66186225D01*
X235303663Y-66183278D01*
X235367286Y-66181857D01*
X235617657Y-66177886D01*
X235622556Y-66143241D01*
X235619131Y-66111732D01*
X235608041Y-66096292D01*
X235587308Y-66091977D01*
X235543145Y-66088292D01*
X235481146Y-66085531D01*
X235406909Y-66083988D01*
X235368706Y-66083765D01*
X235148783Y-66083543D01*
X235132849Y-66037834D01*
X235122015Y-66005482D01*
X235116962Y-65987885D01*
X235116914Y-65987377D01*
X235130648Y-65985612D01*
X235168730Y-65983671D01*
X235226482Y-65981718D01*
X235299227Y-65979916D01*
X235367286Y-65978657D01*
X235617657Y-65974686D01*
X235617657Y-65887600D01*
X235389240Y-65883604D01*
X235160822Y-65879608D01*
X235138868Y-65837153D01*
X235123793Y-65805808D01*
X235116951Y-65787256D01*
X235116914Y-65786721D01*
X235130663Y-65784167D01*
G37*
X235130663Y-65784167D02*
X235168850Y-65781952D01*
X235226886Y-65780216D01*
X235300180Y-65779101D01*
X235377055Y-65778743D01*
X235637196Y-65778743D01*
X235683127Y-65824674D01*
X235711429Y-65856325D01*
X235722893Y-65884110D01*
X235722168Y-65922085D01*
X235720321Y-65937160D01*
X235714948Y-65984274D01*
X235711869Y-66023244D01*
X235711585Y-66032743D01*
X235713445Y-66064767D01*
X235718114Y-66110568D01*
X235720321Y-66128326D01*
X235723735Y-66171943D01*
X235716320Y-66201255D01*
X235693427Y-66230320D01*
X235683127Y-66240812D01*
X235637196Y-66286743D01*
X235150602Y-66286743D01*
X235133758Y-66249774D01*
X235121282Y-66217941D01*
X235116914Y-66199317D01*
X235130718Y-66194542D01*
X235169286Y-66190079D01*
X235228356Y-66186225D01*
X235303663Y-66183278D01*
X235367286Y-66181857D01*
X235617657Y-66177886D01*
X235622556Y-66143241D01*
X235619131Y-66111732D01*
X235608041Y-66096292D01*
X235587308Y-66091977D01*
X235543145Y-66088292D01*
X235481146Y-66085531D01*
X235406909Y-66083988D01*
X235368706Y-66083765D01*
X235148783Y-66083543D01*
X235132849Y-66037834D01*
X235122015Y-66005482D01*
X235116962Y-65987885D01*
X235116914Y-65987377D01*
X235130648Y-65985612D01*
X235168730Y-65983671D01*
X235226482Y-65981718D01*
X235299227Y-65979916D01*
X235367286Y-65978657D01*
X235617657Y-65974686D01*
X235617657Y-65887600D01*
X235389240Y-65883604D01*
X235160822Y-65879608D01*
X235138868Y-65837153D01*
X235123793Y-65805808D01*
X235116951Y-65787256D01*
X235116914Y-65786721D01*
X235130663Y-65784167D01*
G36*
X235128335Y-65419124D02*
G01*
X235147344Y-65377333D01*
X235170378Y-65344531D01*
X235196133Y-65320497D01*
X235229358Y-65303903D01*
X235274800Y-65293423D01*
X235337207Y-65287729D01*
X235421327Y-65285493D01*
X235476721Y-65285257D01*
X235692826Y-65285257D01*
X235709670Y-65322226D01*
X235721981Y-65351344D01*
X235726514Y-65365769D01*
X235713025Y-65368528D01*
X235676653Y-65370718D01*
X235623542Y-65372058D01*
X235581372Y-65372343D01*
X235520447Y-65373566D01*
X235472115Y-65376864D01*
X235442518Y-65381679D01*
X235436229Y-65385504D01*
X235442652Y-65411217D01*
X235459125Y-65451582D01*
X235481458Y-65498321D01*
X235505457Y-65543155D01*
X235526930Y-65577807D01*
X235541685Y-65593998D01*
X235541845Y-65594062D01*
X235569152Y-65592670D01*
X235595219Y-65580182D01*
X235616392Y-65558257D01*
X235623474Y-65526257D01*
X235622649Y-65498908D01*
X235622042Y-65460174D01*
X235631116Y-65439842D01*
X235655092Y-65427631D01*
X235659613Y-65426091D01*
X235693806Y-65420797D01*
X235714568Y-65434953D01*
X235724462Y-65471852D01*
X235726292Y-65511711D01*
X235712727Y-65583438D01*
X235693355Y-65620568D01*
X235647845Y-65666424D01*
X235591983Y-65690744D01*
X235532957Y-65692927D01*
X235477953Y-65672371D01*
X235443486Y-65641451D01*
X235424189Y-65610580D01*
X235399759Y-65562058D01*
X235374985Y-65505515D01*
X235371199Y-65496090D01*
X235343791Y-65433981D01*
X235319634Y-65398178D01*
X235295619Y-65386663D01*
X235268635Y-65397420D01*
X235247543Y-65415886D01*
X235221572Y-65459531D01*
X235219624Y-65507554D01*
X235239637Y-65551594D01*
X235279551Y-65583291D01*
X235289848Y-65587451D01*
X235327724Y-65611673D01*
X235355842Y-65647035D01*
X235378917Y-65691657D01*
X235313485Y-65691657D01*
X235273506Y-65689031D01*
X235241997Y-65677770D01*
X235208378Y-65652801D01*
X235182484Y-65628831D01*
X235145817Y-65591559D01*
X235126121Y-65562599D01*
X235118220Y-65531495D01*
X235116914Y-65496287D01*
X235128335Y-65419124D01*
G37*
X235128335Y-65419124D02*
X235147344Y-65377333D01*
X235170378Y-65344531D01*
X235196133Y-65320497D01*
X235229358Y-65303903D01*
X235274800Y-65293423D01*
X235337207Y-65287729D01*
X235421327Y-65285493D01*
X235476721Y-65285257D01*
X235692826Y-65285257D01*
X235709670Y-65322226D01*
X235721981Y-65351344D01*
X235726514Y-65365769D01*
X235713025Y-65368528D01*
X235676653Y-65370718D01*
X235623542Y-65372058D01*
X235581372Y-65372343D01*
X235520447Y-65373566D01*
X235472115Y-65376864D01*
X235442518Y-65381679D01*
X235436229Y-65385504D01*
X235442652Y-65411217D01*
X235459125Y-65451582D01*
X235481458Y-65498321D01*
X235505457Y-65543155D01*
X235526930Y-65577807D01*
X235541685Y-65593998D01*
X235541845Y-65594062D01*
X235569152Y-65592670D01*
X235595219Y-65580182D01*
X235616392Y-65558257D01*
X235623474Y-65526257D01*
X235622649Y-65498908D01*
X235622042Y-65460174D01*
X235631116Y-65439842D01*
X235655092Y-65427631D01*
X235659613Y-65426091D01*
X235693806Y-65420797D01*
X235714568Y-65434953D01*
X235724462Y-65471852D01*
X235726292Y-65511711D01*
X235712727Y-65583438D01*
X235693355Y-65620568D01*
X235647845Y-65666424D01*
X235591983Y-65690744D01*
X235532957Y-65692927D01*
X235477953Y-65672371D01*
X235443486Y-65641451D01*
X235424189Y-65610580D01*
X235399759Y-65562058D01*
X235374985Y-65505515D01*
X235371199Y-65496090D01*
X235343791Y-65433981D01*
X235319634Y-65398178D01*
X235295619Y-65386663D01*
X235268635Y-65397420D01*
X235247543Y-65415886D01*
X235221572Y-65459531D01*
X235219624Y-65507554D01*
X235239637Y-65551594D01*
X235279551Y-65583291D01*
X235289848Y-65587451D01*
X235327724Y-65611673D01*
X235355842Y-65647035D01*
X235378917Y-65691657D01*
X235313485Y-65691657D01*
X235273506Y-65689031D01*
X235241997Y-65677770D01*
X235208378Y-65652801D01*
X235182484Y-65628831D01*
X235145817Y-65591559D01*
X235126121Y-65562599D01*
X235118220Y-65531495D01*
X235116914Y-65496287D01*
X235128335Y-65419124D01*
G36*
X235130752Y-64911400D02*
G01*
X235138334Y-64894052D01*
X235171128Y-64852644D01*
X235218547Y-64817235D01*
X235269151Y-64795336D01*
X235294098Y-64791771D01*
X235328927Y-64803721D01*
X235347357Y-64829933D01*
X235358516Y-64858036D01*
X235360572Y-64870905D01*
X235345649Y-64877171D01*
X235313175Y-64889544D01*
X235298502Y-64894972D01*
X235247744Y-64925410D01*
X235222427Y-64969480D01*
X235223206Y-65025990D01*
X235224203Y-65030175D01*
X235238507Y-65060345D01*
X235266393Y-65082524D01*
X235311287Y-65097673D01*
X235376615Y-65106750D01*
X235465804Y-65110714D01*
X235513261Y-65111086D01*
X235588071Y-65111270D01*
X235639069Y-65112478D01*
X235671471Y-65115691D01*
X235690495Y-65121891D01*
X235701356Y-65132060D01*
X235709272Y-65147181D01*
X235709670Y-65148054D01*
X235721981Y-65177172D01*
X235726514Y-65191597D01*
X235712809Y-65193814D01*
X235674925Y-65195711D01*
X235617715Y-65197153D01*
X235546027Y-65198002D01*
X235493565Y-65198171D01*
X235392047Y-65197308D01*
X235315032Y-65193930D01*
X235258023Y-65186858D01*
X235216526Y-65174912D01*
X235186043Y-65156910D01*
X235162080Y-65131673D01*
X235145355Y-65106753D01*
X235123097Y-65046829D01*
X235118076Y-64977089D01*
X235130752Y-64911400D01*
G37*
X235130752Y-64911400D02*
X235138334Y-64894052D01*
X235171128Y-64852644D01*
X235218547Y-64817235D01*
X235269151Y-64795336D01*
X235294098Y-64791771D01*
X235328927Y-64803721D01*
X235347357Y-64829933D01*
X235358516Y-64858036D01*
X235360572Y-64870905D01*
X235345649Y-64877171D01*
X235313175Y-64889544D01*
X235298502Y-64894972D01*
X235247744Y-64925410D01*
X235222427Y-64969480D01*
X235223206Y-65025990D01*
X235224203Y-65030175D01*
X235238507Y-65060345D01*
X235266393Y-65082524D01*
X235311287Y-65097673D01*
X235376615Y-65106750D01*
X235465804Y-65110714D01*
X235513261Y-65111086D01*
X235588071Y-65111270D01*
X235639069Y-65112478D01*
X235671471Y-65115691D01*
X235690495Y-65121891D01*
X235701356Y-65132060D01*
X235709272Y-65147181D01*
X235709670Y-65148054D01*
X235721981Y-65177172D01*
X235726514Y-65191597D01*
X235712809Y-65193814D01*
X235674925Y-65195711D01*
X235617715Y-65197153D01*
X235546027Y-65198002D01*
X235493565Y-65198171D01*
X235392047Y-65197308D01*
X235315032Y-65193930D01*
X235258023Y-65186858D01*
X235216526Y-65174912D01*
X235186043Y-65156910D01*
X235162080Y-65131673D01*
X235145355Y-65106753D01*
X235123097Y-65046829D01*
X235118076Y-64977089D01*
X235130752Y-64911400D01*
G36*
X235138966Y-64410405D02*
G01*
X235176497Y-64352979D01*
X235210096Y-64325281D01*
X235271064Y-64303338D01*
X235319308Y-64301595D01*
X235383816Y-64305543D01*
X235448934Y-64454314D01*
X235482202Y-64526651D01*
X235508964Y-64573916D01*
X235532144Y-64598493D01*
X235554667Y-64602763D01*
X235579455Y-64589111D01*
X235595886Y-64574057D01*
X235622235Y-64530254D01*
X235624081Y-64482611D01*
X235603546Y-64438855D01*
X235562752Y-64406711D01*
X235548347Y-64400962D01*
X235503356Y-64373424D01*
X235484182Y-64341742D01*
X235467779Y-64298286D01*
X235529966Y-64298286D01*
X235572283Y-64302128D01*
X235607969Y-64317177D01*
X235648943Y-64348720D01*
X235654267Y-64353408D01*
X235690720Y-64388494D01*
X235710283Y-64418653D01*
X235719283Y-64456385D01*
X235722230Y-64487665D01*
X235722965Y-64543615D01*
X235713660Y-64583445D01*
X235699846Y-64608292D01*
X235669467Y-64647344D01*
X235636613Y-64674375D01*
X235595294Y-64691483D01*
X235539521Y-64700762D01*
X235463305Y-64704307D01*
X235424622Y-64704590D01*
X235378247Y-64703628D01*
X235378247Y-64615993D01*
X235403126Y-64614977D01*
X235407200Y-64612444D01*
X235401665Y-64595726D01*
X235387017Y-64559751D01*
X235366190Y-64511669D01*
X235361714Y-64501614D01*
X235330814Y-64440848D01*
X235303657Y-64407368D01*
X235278220Y-64400010D01*
X235252481Y-64417609D01*
X235241109Y-64432144D01*
X235218364Y-64484590D01*
X235222122Y-64533678D01*
X235249884Y-64574773D01*
X235299152Y-64603242D01*
X235338257Y-64612369D01*
X235378247Y-64615993D01*
X235378247Y-64703628D01*
X235334249Y-64702715D01*
X235267384Y-64695804D01*
X235218695Y-64682116D01*
X235182849Y-64659904D01*
X235154513Y-64627426D01*
X235145355Y-64613267D01*
X235121507Y-64548947D01*
X235120006Y-64478527D01*
X235138966Y-64410405D01*
G37*
X235138966Y-64410405D02*
X235176497Y-64352979D01*
X235210096Y-64325281D01*
X235271064Y-64303338D01*
X235319308Y-64301595D01*
X235383816Y-64305543D01*
X235448934Y-64454314D01*
X235482202Y-64526651D01*
X235508964Y-64573916D01*
X235532144Y-64598493D01*
X235554667Y-64602763D01*
X235579455Y-64589111D01*
X235595886Y-64574057D01*
X235622235Y-64530254D01*
X235624081Y-64482611D01*
X235603546Y-64438855D01*
X235562752Y-64406711D01*
X235548347Y-64400962D01*
X235503356Y-64373424D01*
X235484182Y-64341742D01*
X235467779Y-64298286D01*
X235529966Y-64298286D01*
X235572283Y-64302128D01*
X235607969Y-64317177D01*
X235648943Y-64348720D01*
X235654267Y-64353408D01*
X235690720Y-64388494D01*
X235710283Y-64418653D01*
X235719283Y-64456385D01*
X235722230Y-64487665D01*
X235722965Y-64543615D01*
X235713660Y-64583445D01*
X235699846Y-64608292D01*
X235669467Y-64647344D01*
X235636613Y-64674375D01*
X235595294Y-64691483D01*
X235539521Y-64700762D01*
X235463305Y-64704307D01*
X235424622Y-64704590D01*
X235378247Y-64703628D01*
X235378247Y-64615993D01*
X235403126Y-64614977D01*
X235407200Y-64612444D01*
X235401665Y-64595726D01*
X235387017Y-64559751D01*
X235366190Y-64511669D01*
X235361714Y-64501614D01*
X235330814Y-64440848D01*
X235303657Y-64407368D01*
X235278220Y-64400010D01*
X235252481Y-64417609D01*
X235241109Y-64432144D01*
X235218364Y-64484590D01*
X235222122Y-64533678D01*
X235249884Y-64574773D01*
X235299152Y-64603242D01*
X235338257Y-64612369D01*
X235378247Y-64615993D01*
X235378247Y-64703628D01*
X235334249Y-64702715D01*
X235267384Y-64695804D01*
X235218695Y-64682116D01*
X235182849Y-64659904D01*
X235154513Y-64627426D01*
X235145355Y-64613267D01*
X235121507Y-64548947D01*
X235120006Y-64478527D01*
X235138966Y-64410405D01*
G36*
X230414348Y-67460090D02*
G01*
X230414778Y-67381546D01*
X230415942Y-67324702D01*
X230418207Y-67285895D01*
X230421940Y-67261462D01*
X230427506Y-67247738D01*
X230435273Y-67241060D01*
X230445605Y-67237764D01*
X230446943Y-67237444D01*
X230471079Y-67232438D01*
X230518701Y-67223171D01*
X230584741Y-67210608D01*
X230664128Y-67195713D01*
X230751796Y-67179449D01*
X230754875Y-67178881D01*
X230840789Y-67162590D01*
X230916696Y-67147348D01*
X230978045Y-67134139D01*
X231020282Y-67123946D01*
X231038855Y-67117752D01*
X231039184Y-67117457D01*
X231048253Y-67099212D01*
X231063367Y-67061595D01*
X231081262Y-67012729D01*
X231081358Y-67012457D01*
X231104493Y-66950907D01*
X231133965Y-66878343D01*
X231163597Y-66809943D01*
X231165062Y-66806706D01*
X231215626Y-66695298D01*
X231047160Y-66448601D01*
X230995803Y-66372923D01*
X230949889Y-66304369D01*
X230912030Y-66246912D01*
X230884837Y-66204524D01*
X230870921Y-66181175D01*
X230869889Y-66178958D01*
X230874484Y-66161990D01*
X230896655Y-66130299D01*
X230937447Y-66082648D01*
X230997905Y-66017802D01*
X231062227Y-65951603D01*
X231125612Y-65887786D01*
X231183451Y-65830671D01*
X231232175Y-65783695D01*
X231268210Y-65750297D01*
X231287984Y-65733915D01*
X231289002Y-65733306D01*
X231302572Y-65731495D01*
X231324733Y-65738317D01*
X231358478Y-65755460D01*
X231406800Y-65784607D01*
X231472692Y-65827445D01*
X231557517Y-65884552D01*
X231632177Y-65935234D01*
X231699140Y-65980539D01*
X231754516Y-66017850D01*
X231794420Y-66044548D01*
X231814962Y-66058015D01*
X231816356Y-66058863D01*
X231836038Y-66057219D01*
X231874293Y-66044755D01*
X231923889Y-66023952D01*
X231939728Y-66016538D01*
X232010290Y-65984186D01*
X232090353Y-65949672D01*
X232159629Y-65921635D01*
X232211045Y-65901432D01*
X232250119Y-65885385D01*
X232270541Y-65876112D01*
X232272114Y-65874959D01*
X232274721Y-65857904D01*
X232281863Y-65817702D01*
X232292523Y-65759698D01*
X232305685Y-65689237D01*
X232320333Y-65611665D01*
X232335449Y-65532328D01*
X232350018Y-65456569D01*
X232363022Y-65389736D01*
X232373445Y-65337172D01*
X232380270Y-65304224D01*
X232382199Y-65296143D01*
X232386962Y-65287795D01*
X232397718Y-65281494D01*
X232418098Y-65276955D01*
X232451734Y-65273896D01*
X232502255Y-65272033D01*
X232573292Y-65271082D01*
X232668476Y-65270760D01*
X232707492Y-65270743D01*
X233024799Y-65270743D01*
X233039839Y-65346943D01*
X233047995Y-65389337D01*
X233059899Y-65452600D01*
X233074116Y-65529038D01*
X233089210Y-65610957D01*
X233093355Y-65633600D01*
X233108053Y-65709194D01*
X233122505Y-65775047D01*
X233135375Y-65825634D01*
X233145322Y-65855426D01*
X233148287Y-65860388D01*
X233169283Y-65872574D01*
X233209967Y-65890047D01*
X233262322Y-65909423D01*
X233273600Y-65913266D01*
X233343523Y-65938661D01*
X233422418Y-65970183D01*
X233493266Y-66001031D01*
X233493595Y-66001183D01*
X233604733Y-66052553D01*
X233853253Y-65883601D01*
X234101772Y-65714648D01*
X234319058Y-65931571D01*
X234383726Y-65997181D01*
X234440733Y-66057021D01*
X234487033Y-66107733D01*
X234519584Y-66145954D01*
X234535343Y-66168325D01*
X234536343Y-66171534D01*
X234528469Y-66190374D01*
X234506578Y-66228820D01*
X234473267Y-66282670D01*
X234431131Y-66347724D01*
X234383943Y-66418060D01*
X234335810Y-66489445D01*
X234293928Y-66553092D01*
X234260871Y-66604959D01*
X234239218Y-66641005D01*
X234231543Y-66657133D01*
X234238037Y-66676811D01*
X234255150Y-66714125D01*
X234279326Y-66761379D01*
X234282013Y-66766388D01*
X234313927Y-66830023D01*
X234329579Y-66873659D01*
X234329745Y-66900798D01*
X234315204Y-66914943D01*
X234315000Y-66915025D01*
X234297779Y-66922095D01*
X234256899Y-66938958D01*
X234195525Y-66964305D01*
X234116819Y-66996829D01*
X234023947Y-67035222D01*
X233920072Y-67078178D01*
X233819502Y-67119778D01*
X233708516Y-67165496D01*
X233605703Y-67207474D01*
X233514215Y-67244452D01*
X233437201Y-67275173D01*
X233377815Y-67298378D01*
X233339209Y-67312810D01*
X233324800Y-67317257D01*
X233308272Y-67306104D01*
X233281930Y-67276931D01*
X233252887Y-67238029D01*
X233161039Y-67127243D01*
X233055759Y-67040649D01*
X232939266Y-66979284D01*
X232813776Y-66944185D01*
X232681507Y-66936392D01*
X232620457Y-66942057D01*
X232493795Y-66972922D01*
X232381941Y-67026080D01*
X232286001Y-67098233D01*
X232207076Y-67186083D01*
X232146270Y-67286335D01*
X232104687Y-67395690D01*
X232083428Y-67510853D01*
X232083599Y-67628525D01*
X232106301Y-67745410D01*
X232152638Y-67858211D01*
X232223713Y-67963631D01*
X232263911Y-68007632D01*
X232367129Y-68092021D01*
X232479925Y-68150778D01*
X232599010Y-68184296D01*
X232721095Y-68192965D01*
X232842893Y-68177177D01*
X232961116Y-68137322D01*
X233072475Y-68073793D01*
X233173684Y-67986979D01*
X233252887Y-67889971D01*
X233283162Y-67849563D01*
X233309219Y-67821018D01*
X233324825Y-67810743D01*
X233341843Y-67816123D01*
X233382500Y-67831425D01*
X233443642Y-67855388D01*
X233522119Y-67886756D01*
X233614780Y-67924268D01*
X233718472Y-67966667D01*
X233819526Y-68008337D01*
X233930607Y-68054310D01*
X234033541Y-68096893D01*
X234125165Y-68134779D01*
X234202316Y-68166660D01*
X234261831Y-68191229D01*
X234300544Y-68207180D01*
X234315000Y-68213090D01*
X234329685Y-68227052D01*
X234329642Y-68254060D01*
X234314099Y-68297587D01*
X234282284Y-68361110D01*
X234282013Y-68361612D01*
X234257323Y-68409440D01*
X234239338Y-68448103D01*
X234231614Y-68469905D01*
X234231543Y-68470867D01*
X234239378Y-68487279D01*
X234261165Y-68523513D01*
X234294328Y-68575526D01*
X234336291Y-68639275D01*
X234383943Y-68709940D01*
X234432191Y-68781884D01*
X234474151Y-68846726D01*
X234507227Y-68900265D01*
X234528821Y-68938303D01*
X234536343Y-68956467D01*
X234526457Y-68973192D01*
X234498826Y-69006820D01*
X234456495Y-69053990D01*
X234402505Y-69111342D01*
X234339899Y-69175516D01*
X234318983Y-69196503D01*
X234101623Y-69413501D01*
X233859220Y-69248332D01*
X233784781Y-69198136D01*
X233717972Y-69154081D01*
X233662665Y-69118638D01*
X233622729Y-69094281D01*
X233602036Y-69083478D01*
X233600563Y-69083162D01*
X233581058Y-69088857D01*
X233541822Y-69104174D01*
X233489430Y-69126463D01*
X233454355Y-69142107D01*
X233387201Y-69171359D01*
X233319358Y-69198906D01*
X233262034Y-69220263D01*
X233244572Y-69226065D01*
X233197938Y-69242548D01*
X233161905Y-69258660D01*
X233148287Y-69267510D01*
X233139952Y-69287040D01*
X233128137Y-69329666D01*
X233114181Y-69389855D01*
X233099422Y-69462078D01*
X233093355Y-69494400D01*
X233078273Y-69576478D01*
X233063669Y-69655205D01*
X233050980Y-69722891D01*
X233041642Y-69771840D01*
X233039839Y-69781057D01*
X233024799Y-69857257D01*
X232707492Y-69857257D01*
X232603154Y-69857086D01*
X232524213Y-69856384D01*
X232467038Y-69854866D01*
X232427999Y-69852251D01*
X232403465Y-69848254D01*
X232389805Y-69842591D01*
X232383389Y-69834980D01*
X232382199Y-69831857D01*
X232377980Y-69813022D01*
X232369562Y-69771412D01*
X232357961Y-69712370D01*
X232344195Y-69641243D01*
X232329280Y-69563375D01*
X232314232Y-69484113D01*
X232300069Y-69408802D01*
X232287806Y-69342787D01*
X232278461Y-69291413D01*
X232273050Y-69260025D01*
X232272114Y-69253041D01*
X232259596Y-69246715D01*
X232226246Y-69232710D01*
X232178377Y-69213645D01*
X232159629Y-69206366D01*
X232087195Y-69177004D01*
X232007170Y-69142429D01*
X231939728Y-69111463D01*
X231888159Y-69088677D01*
X231845785Y-69073518D01*
X231819834Y-69068458D01*
X231816356Y-69069264D01*
X231799936Y-69079959D01*
X231763417Y-69104380D01*
X231710687Y-69139905D01*
X231645635Y-69183913D01*
X231572151Y-69233783D01*
X231557645Y-69243644D01*
X231471704Y-69301508D01*
X231406261Y-69344044D01*
X231358304Y-69372946D01*
X231324820Y-69389910D01*
X231302795Y-69396633D01*
X231289217Y-69394810D01*
X231289131Y-69394764D01*
X231271297Y-69380414D01*
X231236817Y-69348677D01*
X231189268Y-69302990D01*
X231132222Y-69246796D01*
X231069255Y-69183532D01*
X231062227Y-69176398D01*
X230985020Y-69096670D01*
X230928330Y-69035143D01*
X230891110Y-68990579D01*
X230872315Y-68961743D01*
X230869889Y-68949042D01*
X230880471Y-68930506D01*
X230904916Y-68892039D01*
X230940612Y-68837614D01*
X230984947Y-68771202D01*
X231035311Y-68696775D01*
X231047160Y-68679399D01*
X231215626Y-68432703D01*
X231165062Y-68321294D01*
X231135595Y-68253543D01*
X231105959Y-68180817D01*
X231082330Y-68118297D01*
X231081358Y-68115543D01*
X231063457Y-68066640D01*
X231048320Y-68028943D01*
X231039210Y-68010575D01*
X231039184Y-68010544D01*
X231022717Y-68004715D01*
X230982219Y-67994808D01*
X230922242Y-67981805D01*
X230847340Y-67966691D01*
X230762064Y-67950448D01*
X230754875Y-67949119D01*
X230667014Y-67932825D01*
X230587260Y-67917867D01*
X230520681Y-67905209D01*
X230472347Y-67895814D01*
X230447325Y-67890646D01*
X230446943Y-67890556D01*
X230436299Y-67887411D01*
X230428262Y-67881296D01*
X230422467Y-67868547D01*
X230418547Y-67845500D01*
X230416135Y-67808491D01*
X230414865Y-67753856D01*
X230414371Y-67677933D01*
X230414286Y-67577056D01*
X230414286Y-67564000D01*
X230414348Y-67460090D01*
G37*
X230414348Y-67460090D02*
X230414778Y-67381546D01*
X230415942Y-67324702D01*
X230418207Y-67285895D01*
X230421940Y-67261462D01*
X230427506Y-67247738D01*
X230435273Y-67241060D01*
X230445605Y-67237764D01*
X230446943Y-67237444D01*
X230471079Y-67232438D01*
X230518701Y-67223171D01*
X230584741Y-67210608D01*
X230664128Y-67195713D01*
X230751796Y-67179449D01*
X230754875Y-67178881D01*
X230840789Y-67162590D01*
X230916696Y-67147348D01*
X230978045Y-67134139D01*
X231020282Y-67123946D01*
X231038855Y-67117752D01*
X231039184Y-67117457D01*
X231048253Y-67099212D01*
X231063367Y-67061595D01*
X231081262Y-67012729D01*
X231081358Y-67012457D01*
X231104493Y-66950907D01*
X231133965Y-66878343D01*
X231163597Y-66809943D01*
X231165062Y-66806706D01*
X231215626Y-66695298D01*
X231047160Y-66448601D01*
X230995803Y-66372923D01*
X230949889Y-66304369D01*
X230912030Y-66246912D01*
X230884837Y-66204524D01*
X230870921Y-66181175D01*
X230869889Y-66178958D01*
X230874484Y-66161990D01*
X230896655Y-66130299D01*
X230937447Y-66082648D01*
X230997905Y-66017802D01*
X231062227Y-65951603D01*
X231125612Y-65887786D01*
X231183451Y-65830671D01*
X231232175Y-65783695D01*
X231268210Y-65750297D01*
X231287984Y-65733915D01*
X231289002Y-65733306D01*
X231302572Y-65731495D01*
X231324733Y-65738317D01*
X231358478Y-65755460D01*
X231406800Y-65784607D01*
X231472692Y-65827445D01*
X231557517Y-65884552D01*
X231632177Y-65935234D01*
X231699140Y-65980539D01*
X231754516Y-66017850D01*
X231794420Y-66044548D01*
X231814962Y-66058015D01*
X231816356Y-66058863D01*
X231836038Y-66057219D01*
X231874293Y-66044755D01*
X231923889Y-66023952D01*
X231939728Y-66016538D01*
X232010290Y-65984186D01*
X232090353Y-65949672D01*
X232159629Y-65921635D01*
X232211045Y-65901432D01*
X232250119Y-65885385D01*
X232270541Y-65876112D01*
X232272114Y-65874959D01*
X232274721Y-65857904D01*
X232281863Y-65817702D01*
X232292523Y-65759698D01*
X232305685Y-65689237D01*
X232320333Y-65611665D01*
X232335449Y-65532328D01*
X232350018Y-65456569D01*
X232363022Y-65389736D01*
X232373445Y-65337172D01*
X232380270Y-65304224D01*
X232382199Y-65296143D01*
X232386962Y-65287795D01*
X232397718Y-65281494D01*
X232418098Y-65276955D01*
X232451734Y-65273896D01*
X232502255Y-65272033D01*
X232573292Y-65271082D01*
X232668476Y-65270760D01*
X232707492Y-65270743D01*
X233024799Y-65270743D01*
X233039839Y-65346943D01*
X233047995Y-65389337D01*
X233059899Y-65452600D01*
X233074116Y-65529038D01*
X233089210Y-65610957D01*
X233093355Y-65633600D01*
X233108053Y-65709194D01*
X233122505Y-65775047D01*
X233135375Y-65825634D01*
X233145322Y-65855426D01*
X233148287Y-65860388D01*
X233169283Y-65872574D01*
X233209967Y-65890047D01*
X233262322Y-65909423D01*
X233273600Y-65913266D01*
X233343523Y-65938661D01*
X233422418Y-65970183D01*
X233493266Y-66001031D01*
X233493595Y-66001183D01*
X233604733Y-66052553D01*
X233853253Y-65883601D01*
X234101772Y-65714648D01*
X234319058Y-65931571D01*
X234383726Y-65997181D01*
X234440733Y-66057021D01*
X234487033Y-66107733D01*
X234519584Y-66145954D01*
X234535343Y-66168325D01*
X234536343Y-66171534D01*
X234528469Y-66190374D01*
X234506578Y-66228820D01*
X234473267Y-66282670D01*
X234431131Y-66347724D01*
X234383943Y-66418060D01*
X234335810Y-66489445D01*
X234293928Y-66553092D01*
X234260871Y-66604959D01*
X234239218Y-66641005D01*
X234231543Y-66657133D01*
X234238037Y-66676811D01*
X234255150Y-66714125D01*
X234279326Y-66761379D01*
X234282013Y-66766388D01*
X234313927Y-66830023D01*
X234329579Y-66873659D01*
X234329745Y-66900798D01*
X234315204Y-66914943D01*
X234315000Y-66915025D01*
X234297779Y-66922095D01*
X234256899Y-66938958D01*
X234195525Y-66964305D01*
X234116819Y-66996829D01*
X234023947Y-67035222D01*
X233920072Y-67078178D01*
X233819502Y-67119778D01*
X233708516Y-67165496D01*
X233605703Y-67207474D01*
X233514215Y-67244452D01*
X233437201Y-67275173D01*
X233377815Y-67298378D01*
X233339209Y-67312810D01*
X233324800Y-67317257D01*
X233308272Y-67306104D01*
X233281930Y-67276931D01*
X233252887Y-67238029D01*
X233161039Y-67127243D01*
X233055759Y-67040649D01*
X232939266Y-66979284D01*
X232813776Y-66944185D01*
X232681507Y-66936392D01*
X232620457Y-66942057D01*
X232493795Y-66972922D01*
X232381941Y-67026080D01*
X232286001Y-67098233D01*
X232207076Y-67186083D01*
X232146270Y-67286335D01*
X232104687Y-67395690D01*
X232083428Y-67510853D01*
X232083599Y-67628525D01*
X232106301Y-67745410D01*
X232152638Y-67858211D01*
X232223713Y-67963631D01*
X232263911Y-68007632D01*
X232367129Y-68092021D01*
X232479925Y-68150778D01*
X232599010Y-68184296D01*
X232721095Y-68192965D01*
X232842893Y-68177177D01*
X232961116Y-68137322D01*
X233072475Y-68073793D01*
X233173684Y-67986979D01*
X233252887Y-67889971D01*
X233283162Y-67849563D01*
X233309219Y-67821018D01*
X233324825Y-67810743D01*
X233341843Y-67816123D01*
X233382500Y-67831425D01*
X233443642Y-67855388D01*
X233522119Y-67886756D01*
X233614780Y-67924268D01*
X233718472Y-67966667D01*
X233819526Y-68008337D01*
X233930607Y-68054310D01*
X234033541Y-68096893D01*
X234125165Y-68134779D01*
X234202316Y-68166660D01*
X234261831Y-68191229D01*
X234300544Y-68207180D01*
X234315000Y-68213090D01*
X234329685Y-68227052D01*
X234329642Y-68254060D01*
X234314099Y-68297587D01*
X234282284Y-68361110D01*
X234282013Y-68361612D01*
X234257323Y-68409440D01*
X234239338Y-68448103D01*
X234231614Y-68469905D01*
X234231543Y-68470867D01*
X234239378Y-68487279D01*
X234261165Y-68523513D01*
X234294328Y-68575526D01*
X234336291Y-68639275D01*
X234383943Y-68709940D01*
X234432191Y-68781884D01*
X234474151Y-68846726D01*
X234507227Y-68900265D01*
X234528821Y-68938303D01*
X234536343Y-68956467D01*
X234526457Y-68973192D01*
X234498826Y-69006820D01*
X234456495Y-69053990D01*
X234402505Y-69111342D01*
X234339899Y-69175516D01*
X234318983Y-69196503D01*
X234101623Y-69413501D01*
X233859220Y-69248332D01*
X233784781Y-69198136D01*
X233717972Y-69154081D01*
X233662665Y-69118638D01*
X233622729Y-69094281D01*
X233602036Y-69083478D01*
X233600563Y-69083162D01*
X233581058Y-69088857D01*
X233541822Y-69104174D01*
X233489430Y-69126463D01*
X233454355Y-69142107D01*
X233387201Y-69171359D01*
X233319358Y-69198906D01*
X233262034Y-69220263D01*
X233244572Y-69226065D01*
X233197938Y-69242548D01*
X233161905Y-69258660D01*
X233148287Y-69267510D01*
X233139952Y-69287040D01*
X233128137Y-69329666D01*
X233114181Y-69389855D01*
X233099422Y-69462078D01*
X233093355Y-69494400D01*
X233078273Y-69576478D01*
X233063669Y-69655205D01*
X233050980Y-69722891D01*
X233041642Y-69771840D01*
X233039839Y-69781057D01*
X233024799Y-69857257D01*
X232707492Y-69857257D01*
X232603154Y-69857086D01*
X232524213Y-69856384D01*
X232467038Y-69854866D01*
X232427999Y-69852251D01*
X232403465Y-69848254D01*
X232389805Y-69842591D01*
X232383389Y-69834980D01*
X232382199Y-69831857D01*
X232377980Y-69813022D01*
X232369562Y-69771412D01*
X232357961Y-69712370D01*
X232344195Y-69641243D01*
X232329280Y-69563375D01*
X232314232Y-69484113D01*
X232300069Y-69408802D01*
X232287806Y-69342787D01*
X232278461Y-69291413D01*
X232273050Y-69260025D01*
X232272114Y-69253041D01*
X232259596Y-69246715D01*
X232226246Y-69232710D01*
X232178377Y-69213645D01*
X232159629Y-69206366D01*
X232087195Y-69177004D01*
X232007170Y-69142429D01*
X231939728Y-69111463D01*
X231888159Y-69088677D01*
X231845785Y-69073518D01*
X231819834Y-69068458D01*
X231816356Y-69069264D01*
X231799936Y-69079959D01*
X231763417Y-69104380D01*
X231710687Y-69139905D01*
X231645635Y-69183913D01*
X231572151Y-69233783D01*
X231557645Y-69243644D01*
X231471704Y-69301508D01*
X231406261Y-69344044D01*
X231358304Y-69372946D01*
X231324820Y-69389910D01*
X231302795Y-69396633D01*
X231289217Y-69394810D01*
X231289131Y-69394764D01*
X231271297Y-69380414D01*
X231236817Y-69348677D01*
X231189268Y-69302990D01*
X231132222Y-69246796D01*
X231069255Y-69183532D01*
X231062227Y-69176398D01*
X230985020Y-69096670D01*
X230928330Y-69035143D01*
X230891110Y-68990579D01*
X230872315Y-68961743D01*
X230869889Y-68949042D01*
X230880471Y-68930506D01*
X230904916Y-68892039D01*
X230940612Y-68837614D01*
X230984947Y-68771202D01*
X231035311Y-68696775D01*
X231047160Y-68679399D01*
X231215626Y-68432703D01*
X231165062Y-68321294D01*
X231135595Y-68253543D01*
X231105959Y-68180817D01*
X231082330Y-68118297D01*
X231081358Y-68115543D01*
X231063457Y-68066640D01*
X231048320Y-68028943D01*
X231039210Y-68010575D01*
X231039184Y-68010544D01*
X231022717Y-68004715D01*
X230982219Y-67994808D01*
X230922242Y-67981805D01*
X230847340Y-67966691D01*
X230762064Y-67950448D01*
X230754875Y-67949119D01*
X230667014Y-67932825D01*
X230587260Y-67917867D01*
X230520681Y-67905209D01*
X230472347Y-67895814D01*
X230447325Y-67890646D01*
X230446943Y-67890556D01*
X230436299Y-67887411D01*
X230428262Y-67881296D01*
X230422467Y-67868547D01*
X230418547Y-67845500D01*
X230416135Y-67808491D01*
X230414865Y-67753856D01*
X230414371Y-67677933D01*
X230414286Y-67577056D01*
X230414286Y-67564000D01*
X230414348Y-67460090D01*
D11*
%TO.C,J46*%
X179140000Y-133280000D02*
X179140000Y-130880000D01*
X181540000Y-133280000D02*
X179140000Y-133280000D01*
X181540000Y-130880000D02*
X181540000Y-133280000D01*
X179140000Y-130880000D02*
X181540000Y-130880000D01*
%TO.C,J45*%
X179140000Y-250120000D02*
X179140000Y-247720000D01*
X181540000Y-250120000D02*
X179140000Y-250120000D01*
X181540000Y-247720000D02*
X181540000Y-250120000D01*
X179140000Y-247720000D02*
X181540000Y-247720000D01*
%TO.C,J44*%
X179140000Y-194240000D02*
X179140000Y-191840000D01*
X181540000Y-194240000D02*
X179140000Y-194240000D01*
X181540000Y-191840000D02*
X181540000Y-194240000D01*
X179140000Y-191840000D02*
X181540000Y-191840000D01*
%TO.C,J43*%
X179140000Y-224720000D02*
X179140000Y-222320000D01*
X181540000Y-224720000D02*
X179140000Y-224720000D01*
X181540000Y-222320000D02*
X181540000Y-224720000D01*
X179140000Y-222320000D02*
X181540000Y-222320000D01*
%TO.C,J42*%
X179140000Y-255200000D02*
X179140000Y-252800000D01*
X181540000Y-255200000D02*
X179140000Y-255200000D01*
X181540000Y-252800000D02*
X181540000Y-255200000D01*
X179140000Y-252800000D02*
X181540000Y-252800000D01*
%TO.C,J41*%
X179140000Y-138360000D02*
X179140000Y-135960000D01*
X181540000Y-138360000D02*
X179140000Y-138360000D01*
X181540000Y-135960000D02*
X181540000Y-138360000D01*
X179140000Y-135960000D02*
X181540000Y-135960000D01*
%TO.C,J40*%
X179140000Y-199320000D02*
X179140000Y-196920000D01*
X181540000Y-199320000D02*
X179140000Y-199320000D01*
X181540000Y-196920000D02*
X181540000Y-199320000D01*
X179140000Y-196920000D02*
X181540000Y-196920000D01*
%TO.C,J39*%
X179140000Y-209480000D02*
X179140000Y-207080000D01*
X181540000Y-209480000D02*
X179140000Y-209480000D01*
X181540000Y-207080000D02*
X181540000Y-209480000D01*
X179140000Y-207080000D02*
X181540000Y-207080000D01*
%TO.C,J37*%
X179140000Y-143440000D02*
X179140000Y-141040000D01*
X181540000Y-143440000D02*
X179140000Y-143440000D01*
X181540000Y-141040000D02*
X181540000Y-143440000D01*
X179140000Y-141040000D02*
X181540000Y-141040000D01*
%TO.C,J36*%
X179140000Y-204400000D02*
X179140000Y-202000000D01*
X181540000Y-204400000D02*
X179140000Y-204400000D01*
X181540000Y-202000000D02*
X181540000Y-204400000D01*
X179140000Y-202000000D02*
X181540000Y-202000000D01*
%TO.C,J35*%
X179140000Y-260280000D02*
X179140000Y-257880000D01*
X181540000Y-260280000D02*
X179140000Y-260280000D01*
X181540000Y-257880000D02*
X181540000Y-260280000D01*
X179140000Y-257880000D02*
X181540000Y-257880000D01*
%TO.C,J33*%
X179140000Y-148520000D02*
X179140000Y-146120000D01*
X181540000Y-148520000D02*
X179140000Y-148520000D01*
X181540000Y-146120000D02*
X181540000Y-148520000D01*
X179140000Y-146120000D02*
X181540000Y-146120000D01*
%TO.C,J32*%
X179140000Y-214560000D02*
X179140000Y-212160000D01*
X181540000Y-214560000D02*
X179140000Y-214560000D01*
X181540000Y-212160000D02*
X181540000Y-214560000D01*
X179140000Y-212160000D02*
X181540000Y-212160000D01*
%TO.C,J31*%
X179140000Y-265360000D02*
X179140000Y-262960000D01*
X181540000Y-265360000D02*
X179140000Y-265360000D01*
X181540000Y-262960000D02*
X181540000Y-265360000D01*
X179140000Y-262960000D02*
X181540000Y-262960000D01*
%TO.C,J29*%
X179140000Y-153600000D02*
X179140000Y-151200000D01*
X181540000Y-153600000D02*
X179140000Y-153600000D01*
X181540000Y-151200000D02*
X181540000Y-153600000D01*
X179140000Y-151200000D02*
X181540000Y-151200000D01*
%TO.C,J28*%
X179140000Y-219640000D02*
X179140000Y-217240000D01*
X181540000Y-219640000D02*
X179140000Y-219640000D01*
X181540000Y-217240000D02*
X181540000Y-219640000D01*
X179140000Y-217240000D02*
X181540000Y-217240000D01*
%TO.C,J25*%
X179140000Y-158680000D02*
X179140000Y-156280000D01*
X181540000Y-158680000D02*
X179140000Y-158680000D01*
X181540000Y-156280000D02*
X181540000Y-158680000D01*
X179140000Y-156280000D02*
X181540000Y-156280000D01*
%TO.C,J22*%
X179140000Y-163760000D02*
X179140000Y-161360000D01*
X181540000Y-163760000D02*
X179140000Y-163760000D01*
X181540000Y-161360000D02*
X181540000Y-163760000D01*
X179140000Y-161360000D02*
X181540000Y-161360000D01*
%TO.C,J21*%
X179140000Y-189160000D02*
X179140000Y-186760000D01*
X181540000Y-189160000D02*
X179140000Y-189160000D01*
X181540000Y-186760000D02*
X181540000Y-189160000D01*
X179140000Y-186760000D02*
X181540000Y-186760000D01*
%TO.C,J20*%
X179140000Y-168840000D02*
X179140000Y-166440000D01*
X181540000Y-168840000D02*
X179140000Y-168840000D01*
X181540000Y-166440000D02*
X181540000Y-168840000D01*
X179140000Y-166440000D02*
X181540000Y-166440000D01*
%TO.C,J19*%
X179140000Y-125800000D02*
X181540000Y-125800000D01*
X181540000Y-125800000D02*
X181540000Y-128200000D01*
X181540000Y-128200000D02*
X179140000Y-128200000D01*
X179140000Y-128200000D02*
X179140000Y-125800000D01*
%TO.C,J18*%
X179140000Y-59760000D02*
X181540000Y-59760000D01*
X181540000Y-59760000D02*
X181540000Y-62160000D01*
X181540000Y-62160000D02*
X179140000Y-62160000D01*
X179140000Y-62160000D02*
X179140000Y-59760000D01*
%TO.C,J17*%
X179140000Y-64840000D02*
X181540000Y-64840000D01*
X181540000Y-64840000D02*
X181540000Y-67240000D01*
X181540000Y-67240000D02*
X179140000Y-67240000D01*
X179140000Y-67240000D02*
X179140000Y-64840000D01*
%TO.C,J16*%
X179140000Y-120720000D02*
X181540000Y-120720000D01*
X181540000Y-120720000D02*
X181540000Y-123120000D01*
X181540000Y-123120000D02*
X179140000Y-123120000D01*
X179140000Y-123120000D02*
X179140000Y-120720000D01*
%TO.C,J15*%
X179140000Y-69920000D02*
X181540000Y-69920000D01*
X181540000Y-69920000D02*
X181540000Y-72320000D01*
X181540000Y-72320000D02*
X179140000Y-72320000D01*
X179140000Y-72320000D02*
X179140000Y-69920000D01*
%TO.C,J14*%
X179140000Y-110560000D02*
X181540000Y-110560000D01*
X181540000Y-110560000D02*
X181540000Y-112960000D01*
X181540000Y-112960000D02*
X179140000Y-112960000D01*
X179140000Y-112960000D02*
X179140000Y-110560000D01*
%TO.C,J13*%
X179140000Y-115640000D02*
X181540000Y-115640000D01*
X181540000Y-115640000D02*
X181540000Y-118040000D01*
X181540000Y-118040000D02*
X179140000Y-118040000D01*
X179140000Y-118040000D02*
X179140000Y-115640000D01*
%TO.C,J12*%
X179140000Y-75000000D02*
X181540000Y-75000000D01*
X181540000Y-75000000D02*
X181540000Y-77400000D01*
X181540000Y-77400000D02*
X179140000Y-77400000D01*
X179140000Y-77400000D02*
X179140000Y-75000000D01*
%TO.C,J11*%
X179140000Y-80080000D02*
X181540000Y-80080000D01*
X181540000Y-80080000D02*
X181540000Y-82480000D01*
X181540000Y-82480000D02*
X179140000Y-82480000D01*
X179140000Y-82480000D02*
X179140000Y-80080000D01*
%TO.C,J10*%
X179140000Y-85160000D02*
X181540000Y-85160000D01*
X181540000Y-85160000D02*
X181540000Y-87560000D01*
X181540000Y-87560000D02*
X179140000Y-87560000D01*
X179140000Y-87560000D02*
X179140000Y-85160000D01*
%TO.C,J9*%
X179140000Y-49600000D02*
X181540000Y-49600000D01*
X181540000Y-49600000D02*
X181540000Y-52000000D01*
X181540000Y-52000000D02*
X179140000Y-52000000D01*
X179140000Y-52000000D02*
X179140000Y-49600000D01*
%TO.C,J8*%
X179140000Y-90240000D02*
X181540000Y-90240000D01*
X181540000Y-90240000D02*
X181540000Y-92640000D01*
X181540000Y-92640000D02*
X179140000Y-92640000D01*
X179140000Y-92640000D02*
X179140000Y-90240000D01*
%TO.C,J7*%
X179140000Y-34360000D02*
X181540000Y-34360000D01*
X181540000Y-34360000D02*
X181540000Y-36760000D01*
X181540000Y-36760000D02*
X179140000Y-36760000D01*
X179140000Y-36760000D02*
X179140000Y-34360000D01*
%TO.C,J6*%
X179140000Y-44520000D02*
X181540000Y-44520000D01*
X181540000Y-44520000D02*
X181540000Y-46920000D01*
X181540000Y-46920000D02*
X179140000Y-46920000D01*
X179140000Y-46920000D02*
X179140000Y-44520000D01*
%TO.C,J5*%
X179140000Y-54680000D02*
X181540000Y-54680000D01*
X181540000Y-54680000D02*
X181540000Y-57080000D01*
X181540000Y-57080000D02*
X179140000Y-57080000D01*
X179140000Y-57080000D02*
X179140000Y-54680000D01*
%TO.C,J4*%
X179140000Y-39440000D02*
X181540000Y-39440000D01*
X181540000Y-39440000D02*
X181540000Y-41840000D01*
X181540000Y-41840000D02*
X179140000Y-41840000D01*
X179140000Y-41840000D02*
X179140000Y-39440000D01*
%TO.C,R16*%
X245730000Y-82900000D02*
X249570000Y-82900000D01*
X245730000Y-84740000D02*
X249570000Y-84740000D01*
%TO.C,R15*%
X238110000Y-82900000D02*
X241950000Y-82900000D01*
X238110000Y-84740000D02*
X241950000Y-84740000D01*
%TO.C,R14*%
X245730000Y-86710000D02*
X249570000Y-86710000D01*
X245730000Y-88550000D02*
X249570000Y-88550000D01*
%TO.C,R13*%
X238110000Y-86710000D02*
X241950000Y-86710000D01*
X238110000Y-88550000D02*
X241950000Y-88550000D01*
%TO.C,R12*%
X245730000Y-90520000D02*
X249570000Y-90520000D01*
X245730000Y-92360000D02*
X249570000Y-92360000D01*
%TO.C,R11*%
X238110000Y-90520000D02*
X241950000Y-90520000D01*
X238110000Y-92360000D02*
X241950000Y-92360000D01*
%TO.C,R10*%
X245730000Y-94330000D02*
X249570000Y-94330000D01*
X245730000Y-96170000D02*
X249570000Y-96170000D01*
%TO.C,R9*%
X238110000Y-94330000D02*
X241950000Y-94330000D01*
X238110000Y-96170000D02*
X241950000Y-96170000D01*
%TO.C,R8*%
X245730000Y-100680000D02*
X249570000Y-100680000D01*
X245730000Y-102520000D02*
X249570000Y-102520000D01*
%TO.C,R7*%
X238110000Y-100680000D02*
X241950000Y-100680000D01*
X238110000Y-102520000D02*
X241950000Y-102520000D01*
%TO.C,R6*%
X245730000Y-104490000D02*
X249570000Y-104490000D01*
X245730000Y-106330000D02*
X249570000Y-106330000D01*
%TO.C,R5*%
X238110000Y-104490000D02*
X241950000Y-104490000D01*
X238110000Y-106330000D02*
X241950000Y-106330000D01*
%TO.C,R4*%
X245730000Y-108300000D02*
X249570000Y-108300000D01*
X245730000Y-110140000D02*
X249570000Y-110140000D01*
%TO.C,R3*%
X238110000Y-108300000D02*
X241950000Y-108300000D01*
X238110000Y-110140000D02*
X241950000Y-110140000D01*
%TO.C,R2*%
X245730000Y-112110000D02*
X249570000Y-112110000D01*
X245730000Y-113950000D02*
X249570000Y-113950000D01*
%TO.C,R1*%
X238110000Y-112110000D02*
X241950000Y-112110000D01*
X238110000Y-113950000D02*
X241950000Y-113950000D01*
%TO.C,C#_D_D#2*%
X185650000Y-170260000D02*
X198390000Y-170260000D01*
X198390000Y-170260000D02*
X198390000Y-155020000D01*
X185650000Y-155020000D02*
X198390000Y-155020000D01*
X185650000Y-170260000D02*
X185650000Y-155020000D01*
X185650000Y-170260000D02*
X198390000Y-170260000D01*
X198390000Y-170260000D02*
X198390000Y-155020000D01*
X185650000Y-155020000D02*
X198390000Y-155020000D01*
X185650000Y-170260000D02*
X185650000Y-155020000D01*
X185270000Y-170640000D02*
X185270000Y-167640000D01*
X188270000Y-170640000D02*
X185270000Y-170640000D01*
%TO.C,E_F_F#1*%
X185650000Y-78820000D02*
X198390000Y-78820000D01*
X198390000Y-78820000D02*
X198390000Y-63580000D01*
X185650000Y-63580000D02*
X198390000Y-63580000D01*
X185650000Y-78820000D02*
X185650000Y-63580000D01*
X185650000Y-78820000D02*
X198390000Y-78820000D01*
X198390000Y-78820000D02*
X198390000Y-63580000D01*
X185650000Y-63580000D02*
X198390000Y-63580000D01*
X185650000Y-78820000D02*
X185650000Y-63580000D01*
X185270000Y-79200000D02*
X185270000Y-76200000D01*
X188270000Y-79200000D02*
X185270000Y-79200000D01*
%TO.C,D8*%
X211020000Y-115570000D02*
G75*
G03*
X211020000Y-115570000I-1470000J0D01*
G01*
X209550000Y-117040000D02*
X209550000Y-119450000D01*
%TO.C,U2*%
X255540000Y-82490000D02*
X253890000Y-82490000D01*
X253890000Y-82490000D02*
X253890000Y-102930000D01*
X253890000Y-102930000D02*
X259190000Y-102930000D01*
X259190000Y-102930000D02*
X259190000Y-82490000D01*
X259190000Y-82490000D02*
X257540000Y-82490000D01*
X257540000Y-82490000D02*
G75*
G02*
X255540000Y-82490000I-1000000J0D01*
G01*
%TO.C,Q16*%
X232770000Y-41120000D02*
X232770000Y-42620000D01*
X232770000Y-42620000D02*
X232870000Y-42620000D01*
X232870000Y-42620000D02*
X232870000Y-44520000D01*
X239670000Y-41120000D02*
X239670000Y-42620000D01*
X239670000Y-42620000D02*
X239570000Y-42620000D01*
X239570000Y-42620000D02*
X239570000Y-43720000D01*
%TO.C,Q15*%
X224310000Y-41170000D02*
X224310000Y-42670000D01*
X224310000Y-42670000D02*
X224410000Y-42670000D01*
X224410000Y-42670000D02*
X224410000Y-44570000D01*
X231210000Y-41170000D02*
X231210000Y-42670000D01*
X231210000Y-42670000D02*
X231110000Y-42670000D01*
X231110000Y-42670000D02*
X231110000Y-43770000D01*
%TO.C,Q14*%
X215420000Y-41170000D02*
X215420000Y-42670000D01*
X215420000Y-42670000D02*
X215520000Y-42670000D01*
X215520000Y-42670000D02*
X215520000Y-44570000D01*
X222320000Y-41170000D02*
X222320000Y-42670000D01*
X222320000Y-42670000D02*
X222220000Y-42670000D01*
X222220000Y-42670000D02*
X222220000Y-43770000D01*
%TO.C,Q13*%
X206100000Y-41120000D02*
X206100000Y-42620000D01*
X206100000Y-42620000D02*
X206200000Y-42620000D01*
X206200000Y-42620000D02*
X206200000Y-44520000D01*
X213000000Y-41120000D02*
X213000000Y-42620000D01*
X213000000Y-42620000D02*
X212900000Y-42620000D01*
X212900000Y-42620000D02*
X212900000Y-43720000D01*
%TO.C,Q12*%
X228530000Y-54830000D02*
X228530000Y-56330000D01*
X228530000Y-56330000D02*
X228630000Y-56330000D01*
X228630000Y-56330000D02*
X228630000Y-58230000D01*
X235430000Y-54830000D02*
X235430000Y-56330000D01*
X235430000Y-56330000D02*
X235330000Y-56330000D01*
X235330000Y-56330000D02*
X235330000Y-57430000D01*
%TO.C,Q11*%
X219640000Y-54830000D02*
X219640000Y-56330000D01*
X219640000Y-56330000D02*
X219740000Y-56330000D01*
X219740000Y-56330000D02*
X219740000Y-58230000D01*
X226540000Y-54830000D02*
X226540000Y-56330000D01*
X226540000Y-56330000D02*
X226440000Y-56330000D01*
X226440000Y-56330000D02*
X226440000Y-57430000D01*
%TO.C,Q10*%
X210750000Y-54830000D02*
X210750000Y-56330000D01*
X210750000Y-56330000D02*
X210850000Y-56330000D01*
X210850000Y-56330000D02*
X210850000Y-58230000D01*
X217650000Y-54830000D02*
X217650000Y-56330000D01*
X217650000Y-56330000D02*
X217550000Y-56330000D01*
X217550000Y-56330000D02*
X217550000Y-57430000D01*
%TO.C,Q9*%
X201860000Y-54830000D02*
X201860000Y-56330000D01*
X201860000Y-56330000D02*
X201960000Y-56330000D01*
X201960000Y-56330000D02*
X201960000Y-58230000D01*
X208760000Y-54830000D02*
X208760000Y-56330000D01*
X208760000Y-56330000D02*
X208660000Y-56330000D01*
X208660000Y-56330000D02*
X208660000Y-57430000D01*
%TO.C,Q8*%
X219640000Y-68800000D02*
X219640000Y-70300000D01*
X219640000Y-70300000D02*
X219740000Y-70300000D01*
X219740000Y-70300000D02*
X219740000Y-72200000D01*
X226540000Y-68800000D02*
X226540000Y-70300000D01*
X226540000Y-70300000D02*
X226440000Y-70300000D01*
X226440000Y-70300000D02*
X226440000Y-71400000D01*
%TO.C,Q7*%
X210750000Y-68800000D02*
X210750000Y-70300000D01*
X210750000Y-70300000D02*
X210850000Y-70300000D01*
X210850000Y-70300000D02*
X210850000Y-72200000D01*
X217650000Y-68800000D02*
X217650000Y-70300000D01*
X217650000Y-70300000D02*
X217550000Y-70300000D01*
X217550000Y-70300000D02*
X217550000Y-71400000D01*
%TO.C,Q6*%
X201450000Y-68800000D02*
X201450000Y-70300000D01*
X201450000Y-70300000D02*
X201550000Y-70300000D01*
X201550000Y-70300000D02*
X201550000Y-72200000D01*
X208350000Y-68800000D02*
X208350000Y-70300000D01*
X208350000Y-70300000D02*
X208250000Y-70300000D01*
X208250000Y-70300000D02*
X208250000Y-71400000D01*
%TO.C,Q5*%
X219640000Y-82770000D02*
X219640000Y-84270000D01*
X219640000Y-84270000D02*
X219740000Y-84270000D01*
X219740000Y-84270000D02*
X219740000Y-86170000D01*
X226540000Y-82770000D02*
X226540000Y-84270000D01*
X226540000Y-84270000D02*
X226440000Y-84270000D01*
X226440000Y-84270000D02*
X226440000Y-85370000D01*
%TO.C,Q4*%
X210750000Y-82770000D02*
X210750000Y-84270000D01*
X210750000Y-84270000D02*
X210850000Y-84270000D01*
X210850000Y-84270000D02*
X210850000Y-86170000D01*
X217650000Y-82770000D02*
X217650000Y-84270000D01*
X217650000Y-84270000D02*
X217550000Y-84270000D01*
X217550000Y-84270000D02*
X217550000Y-85370000D01*
%TO.C,Q3*%
X201860000Y-82770000D02*
X201860000Y-84270000D01*
X201860000Y-84270000D02*
X201960000Y-84270000D01*
X201960000Y-84270000D02*
X201960000Y-86170000D01*
X208760000Y-82770000D02*
X208760000Y-84270000D01*
X208760000Y-84270000D02*
X208660000Y-84270000D01*
X208660000Y-84270000D02*
X208660000Y-85370000D01*
%TO.C,Q2*%
X210750000Y-98010000D02*
X210750000Y-99510000D01*
X210750000Y-99510000D02*
X210850000Y-99510000D01*
X210850000Y-99510000D02*
X210850000Y-101410000D01*
X217650000Y-98010000D02*
X217650000Y-99510000D01*
X217650000Y-99510000D02*
X217550000Y-99510000D01*
X217550000Y-99510000D02*
X217550000Y-100610000D01*
%TO.C,Q1*%
X201450000Y-98010000D02*
X201450000Y-99510000D01*
X201450000Y-99510000D02*
X201550000Y-99510000D01*
X201550000Y-99510000D02*
X201550000Y-101410000D01*
X208350000Y-98010000D02*
X208350000Y-99510000D01*
X208350000Y-99510000D02*
X208250000Y-99510000D01*
X208250000Y-99510000D02*
X208250000Y-100610000D01*
%TO.C,J3*%
X185650000Y-256620000D02*
X198390000Y-256620000D01*
X198390000Y-256620000D02*
X198390000Y-246380000D01*
X185650000Y-246380000D02*
X198390000Y-246380000D01*
X185650000Y-256620000D02*
X185650000Y-246380000D01*
X185650000Y-256620000D02*
X198390000Y-256620000D01*
X198390000Y-256620000D02*
X198390000Y-246380000D01*
X185650000Y-246380000D02*
X198390000Y-246380000D01*
X185650000Y-256620000D02*
X185650000Y-246380000D01*
X185270000Y-257000000D02*
X185270000Y-254000000D01*
X188270000Y-257000000D02*
X185270000Y-257000000D01*
%TO.C,J2*%
X185650000Y-266780000D02*
X198390000Y-266780000D01*
X198390000Y-266780000D02*
X198390000Y-256540000D01*
X185650000Y-256540000D02*
X198390000Y-256540000D01*
X185650000Y-266780000D02*
X185650000Y-256540000D01*
X185650000Y-266780000D02*
X198390000Y-266780000D01*
X198390000Y-266780000D02*
X198390000Y-256540000D01*
X185650000Y-256540000D02*
X198390000Y-256540000D01*
X185650000Y-266780000D02*
X185650000Y-256540000D01*
X185270000Y-267160000D02*
X185270000Y-264160000D01*
X188270000Y-267160000D02*
X185270000Y-267160000D01*
%TO.C,G_G#_A2*%
X185650000Y-139620000D02*
X198390000Y-139620000D01*
X198390000Y-139620000D02*
X198390000Y-124380000D01*
X185650000Y-124380000D02*
X198390000Y-124380000D01*
X185650000Y-139620000D02*
X185650000Y-124380000D01*
X185650000Y-139620000D02*
X198390000Y-139620000D01*
X198390000Y-139620000D02*
X198390000Y-124380000D01*
X185650000Y-124380000D02*
X198390000Y-124380000D01*
X185650000Y-139620000D02*
X185650000Y-124380000D01*
X185270000Y-140000000D02*
X185270000Y-137000000D01*
X188270000Y-140000000D02*
X185270000Y-140000000D01*
%TO.C,G_G#_A1*%
X185650000Y-63580000D02*
X198390000Y-63580000D01*
X198390000Y-63580000D02*
X198390000Y-48340000D01*
X185650000Y-48340000D02*
X198390000Y-48340000D01*
X185650000Y-63580000D02*
X185650000Y-48340000D01*
X185650000Y-63580000D02*
X198390000Y-63580000D01*
X198390000Y-63580000D02*
X198390000Y-48340000D01*
X185650000Y-48340000D02*
X198390000Y-48340000D01*
X185650000Y-63580000D02*
X185650000Y-48340000D01*
X185270000Y-63960000D02*
X185270000Y-60960000D01*
X188270000Y-63960000D02*
X185270000Y-63960000D01*
%TO.C,F_G_C1*%
X188270000Y-246840000D02*
X185270000Y-246840000D01*
X185270000Y-246840000D02*
X185270000Y-243840000D01*
X185650000Y-246460000D02*
X185650000Y-231220000D01*
X185650000Y-231220000D02*
X198390000Y-231220000D01*
X198390000Y-246460000D02*
X198390000Y-231220000D01*
X185650000Y-246460000D02*
X198390000Y-246460000D01*
X185650000Y-246460000D02*
X185650000Y-231220000D01*
X185650000Y-231220000D02*
X198390000Y-231220000D01*
X198390000Y-246460000D02*
X198390000Y-231220000D01*
X185650000Y-246460000D02*
X198390000Y-246460000D01*
%TO.C,F#_G_A1*%
X188270000Y-216360000D02*
X185270000Y-216360000D01*
X185270000Y-216360000D02*
X185270000Y-213360000D01*
X185650000Y-215980000D02*
X185650000Y-200740000D01*
X185650000Y-200740000D02*
X198390000Y-200740000D01*
X198390000Y-215980000D02*
X198390000Y-200740000D01*
X185650000Y-215980000D02*
X198390000Y-215980000D01*
X185650000Y-215980000D02*
X185650000Y-200740000D01*
X185650000Y-200740000D02*
X198390000Y-200740000D01*
X198390000Y-215980000D02*
X198390000Y-200740000D01*
X185650000Y-215980000D02*
X198390000Y-215980000D01*
%TO.C,E_F_F#2*%
X185650000Y-155020000D02*
X198390000Y-155020000D01*
X198390000Y-155020000D02*
X198390000Y-139780000D01*
X185650000Y-139780000D02*
X198390000Y-139780000D01*
X185650000Y-155020000D02*
X185650000Y-139780000D01*
X185650000Y-155020000D02*
X198390000Y-155020000D01*
X198390000Y-155020000D02*
X198390000Y-139780000D01*
X185650000Y-139780000D02*
X198390000Y-139780000D01*
X185650000Y-155020000D02*
X185650000Y-139780000D01*
X185270000Y-155400000D02*
X185270000Y-152400000D01*
X188270000Y-155400000D02*
X185270000Y-155400000D01*
%TO.C,D_E_F1*%
X188270000Y-231600000D02*
X185270000Y-231600000D01*
X185270000Y-231600000D02*
X185270000Y-228600000D01*
X185650000Y-231220000D02*
X185650000Y-215980000D01*
X185650000Y-215980000D02*
X198390000Y-215980000D01*
X198390000Y-231220000D02*
X198390000Y-215980000D01*
X185650000Y-231220000D02*
X198390000Y-231220000D01*
X185650000Y-231220000D02*
X185650000Y-215980000D01*
X185650000Y-215980000D02*
X198390000Y-215980000D01*
X198390000Y-231220000D02*
X198390000Y-215980000D01*
X185650000Y-231220000D02*
X198390000Y-231220000D01*
%TO.C,C#_D_D#1*%
X185650000Y-94060000D02*
X198390000Y-94060000D01*
X198390000Y-94060000D02*
X198390000Y-78820000D01*
X185650000Y-78820000D02*
X198390000Y-78820000D01*
X185650000Y-94060000D02*
X185650000Y-78820000D01*
X185650000Y-94060000D02*
X198390000Y-94060000D01*
X198390000Y-94060000D02*
X198390000Y-78820000D01*
X185650000Y-78820000D02*
X198390000Y-78820000D01*
X185650000Y-94060000D02*
X185650000Y-78820000D01*
X185270000Y-94440000D02*
X185270000Y-91440000D01*
X188270000Y-94440000D02*
X185270000Y-94440000D01*
%TO.C,Bb_B_C3*%
X188270000Y-201120000D02*
X185270000Y-201120000D01*
X185270000Y-201120000D02*
X185270000Y-198120000D01*
X185650000Y-200740000D02*
X185650000Y-185500000D01*
X185650000Y-185500000D02*
X198390000Y-185500000D01*
X198390000Y-200740000D02*
X198390000Y-185500000D01*
X185650000Y-200740000D02*
X198390000Y-200740000D01*
X185650000Y-200740000D02*
X185650000Y-185500000D01*
X185650000Y-185500000D02*
X198390000Y-185500000D01*
X198390000Y-200740000D02*
X198390000Y-185500000D01*
X185650000Y-200740000D02*
X198390000Y-200740000D01*
%TO.C,Bb_B_C2*%
X185650000Y-124540000D02*
X198390000Y-124540000D01*
X198390000Y-124540000D02*
X198390000Y-109300000D01*
X185650000Y-109300000D02*
X198390000Y-109300000D01*
X185650000Y-124540000D02*
X185650000Y-109300000D01*
X185650000Y-124540000D02*
X198390000Y-124540000D01*
X198390000Y-124540000D02*
X198390000Y-109300000D01*
X185650000Y-109300000D02*
X198390000Y-109300000D01*
X185650000Y-124540000D02*
X185650000Y-109300000D01*
X185270000Y-124920000D02*
X185270000Y-121920000D01*
X188270000Y-124920000D02*
X185270000Y-124920000D01*
%TO.C,Bb_B_C1*%
X188270000Y-48720000D02*
X185270000Y-48720000D01*
X185270000Y-48720000D02*
X185270000Y-45720000D01*
X185650000Y-48340000D02*
X185650000Y-33100000D01*
X185650000Y-33100000D02*
X198390000Y-33100000D01*
X198390000Y-48340000D02*
X198390000Y-33100000D01*
X185650000Y-48340000D02*
X198390000Y-48340000D01*
X185650000Y-48340000D02*
X185650000Y-33100000D01*
X185650000Y-33100000D02*
X198390000Y-33100000D01*
X198390000Y-48340000D02*
X198390000Y-33100000D01*
X185650000Y-48340000D02*
X198390000Y-48340000D01*
%TO.C,D17*%
X207210000Y-105410000D02*
G75*
G03*
X207210000Y-105410000I-1470000J0D01*
G01*
X205740000Y-106880000D02*
X205740000Y-109290000D01*
%TO.C,D16*%
X211020000Y-105410000D02*
G75*
G03*
X211020000Y-105410000I-1470000J0D01*
G01*
X209550000Y-106880000D02*
X209550000Y-109290000D01*
%TO.C,D15*%
X214830000Y-105410000D02*
G75*
G03*
X214830000Y-105410000I-1470000J0D01*
G01*
X213360000Y-106880000D02*
X213360000Y-109290000D01*
%TO.C,D14*%
X218640000Y-105410000D02*
G75*
G03*
X218640000Y-105410000I-1470000J0D01*
G01*
X217170000Y-106880000D02*
X217170000Y-109290000D01*
%TO.C,D13*%
X222450000Y-105410000D02*
G75*
G03*
X222450000Y-105410000I-1470000J0D01*
G01*
X220980000Y-106880000D02*
X220980000Y-109290000D01*
%TO.C,D12*%
X226260000Y-105410000D02*
G75*
G03*
X226260000Y-105410000I-1470000J0D01*
G01*
X224790000Y-106880000D02*
X224790000Y-109290000D01*
%TO.C,D11*%
X230070000Y-105410000D02*
G75*
G03*
X230070000Y-105410000I-1470000J0D01*
G01*
X228600000Y-106880000D02*
X228600000Y-109290000D01*
%TO.C,D10*%
X233880000Y-105410000D02*
G75*
G03*
X233880000Y-105410000I-1470000J0D01*
G01*
X232410000Y-106880000D02*
X232410000Y-109290000D01*
%TO.C,D9*%
X207210000Y-115570000D02*
G75*
G03*
X207210000Y-115570000I-1470000J0D01*
G01*
X205740000Y-117040000D02*
X205740000Y-119450000D01*
%TO.C,D6*%
X214830000Y-115570000D02*
G75*
G03*
X214830000Y-115570000I-1470000J0D01*
G01*
X213360000Y-117040000D02*
X213360000Y-119450000D01*
%TO.C,D5*%
X218640000Y-115570000D02*
G75*
G03*
X218640000Y-115570000I-1470000J0D01*
G01*
X217170000Y-117040000D02*
X217170000Y-119450000D01*
%TO.C,D4*%
X222450000Y-115570000D02*
G75*
G03*
X222450000Y-115570000I-1470000J0D01*
G01*
X220980000Y-117040000D02*
X220980000Y-119450000D01*
%TO.C,D3*%
X226260000Y-115570000D02*
G75*
G03*
X226260000Y-115570000I-1470000J0D01*
G01*
X224790000Y-117040000D02*
X224790000Y-119450000D01*
%TO.C,D2*%
X230070000Y-115570000D02*
G75*
G03*
X230070000Y-115570000I-1470000J0D01*
G01*
X228600000Y-117040000D02*
X228600000Y-119450000D01*
%TO.C,D1*%
X233880000Y-115570000D02*
G75*
G03*
X233880000Y-115570000I-1470000J0D01*
G01*
X232410000Y-117040000D02*
X232410000Y-119450000D01*
%TO.C,J1*%
X196790000Y-267910000D02*
X196790000Y-273110000D01*
X199390000Y-267910000D02*
X196790000Y-267910000D01*
X201990000Y-273110000D02*
X196790000Y-273110000D01*
X199390000Y-267910000D02*
X199390000Y-270510000D01*
X199390000Y-270510000D02*
X201990000Y-270510000D01*
X201990000Y-270510000D02*
X201990000Y-273110000D01*
X200660000Y-267910000D02*
X201990000Y-267910000D01*
X201990000Y-267910000D02*
X201990000Y-269240000D01*
%TO.C,A1*%
X246380000Y-39370000D02*
X246380000Y-36830000D01*
X246380000Y-36830000D02*
X243710000Y-36830000D01*
X243710000Y-39370000D02*
X243710000Y-77600000D01*
X243710000Y-34160000D02*
X243710000Y-36830000D01*
X259080000Y-36830000D02*
X261750000Y-36830000D01*
X259080000Y-36830000D02*
X259080000Y-74930000D01*
X259080000Y-74930000D02*
X261750000Y-74930000D01*
X246380000Y-39370000D02*
X243710000Y-39370000D01*
X246380000Y-39370000D02*
X246380000Y-74930000D01*
X246380000Y-74930000D02*
X243710000Y-74930000D01*
X243710000Y-77600000D02*
X261750000Y-77600000D01*
X261750000Y-77600000D02*
X261750000Y-34160000D01*
X261750000Y-34160000D02*
X243710000Y-34160000D01*
%TO.C,keypad1*%
X241360000Y-46930000D02*
X238700000Y-46930000D01*
X241360000Y-64770000D02*
X241360000Y-46930000D01*
X238700000Y-64770000D02*
X238700000Y-46930000D01*
X241360000Y-64770000D02*
X238700000Y-64770000D01*
X241360000Y-66040000D02*
X241360000Y-67370000D01*
X241360000Y-67370000D02*
X240030000Y-67370000D01*
%TO.C,solenoid_power1*%
X194370000Y-273110000D02*
X194370000Y-267910000D01*
X189230000Y-273110000D02*
X194370000Y-273110000D01*
X186630000Y-267910000D02*
X194370000Y-267910000D01*
X189230000Y-273110000D02*
X189230000Y-270510000D01*
X189230000Y-270510000D02*
X186630000Y-270510000D01*
X186630000Y-270510000D02*
X186630000Y-267910000D01*
X187960000Y-273110000D02*
X186630000Y-273110000D01*
X186630000Y-273110000D02*
X186630000Y-271780000D01*
%TO.C,U1*%
X259190000Y-105350000D02*
X257540000Y-105350000D01*
X259190000Y-125790000D02*
X259190000Y-105350000D01*
X253890000Y-125790000D02*
X259190000Y-125790000D01*
X253890000Y-105350000D02*
X253890000Y-125790000D01*
X255540000Y-105350000D02*
X253890000Y-105350000D01*
X257540000Y-105350000D02*
G75*
G02*
X255540000Y-105350000I-1000000J0D01*
G01*
%TO.C,R16*%
D10*
X247007142Y-82352380D02*
X246673809Y-81876190D01*
X246435714Y-82352380D02*
X246435714Y-81352380D01*
X246816666Y-81352380D01*
X246911904Y-81400000D01*
X246959523Y-81447619D01*
X247007142Y-81542857D01*
X247007142Y-81685714D01*
X246959523Y-81780952D01*
X246911904Y-81828571D01*
X246816666Y-81876190D01*
X246435714Y-81876190D01*
X247959523Y-82352380D02*
X247388095Y-82352380D01*
X247673809Y-82352380D02*
X247673809Y-81352380D01*
X247578571Y-81495238D01*
X247483333Y-81590476D01*
X247388095Y-81638095D01*
X248816666Y-81352380D02*
X248626190Y-81352380D01*
X248530952Y-81400000D01*
X248483333Y-81447619D01*
X248388095Y-81590476D01*
X248340476Y-81780952D01*
X248340476Y-82161904D01*
X248388095Y-82257142D01*
X248435714Y-82304761D01*
X248530952Y-82352380D01*
X248721428Y-82352380D01*
X248816666Y-82304761D01*
X248864285Y-82257142D01*
X248911904Y-82161904D01*
X248911904Y-81923809D01*
X248864285Y-81828571D01*
X248816666Y-81780952D01*
X248721428Y-81733333D01*
X248530952Y-81733333D01*
X248435714Y-81780952D01*
X248388095Y-81828571D01*
X248340476Y-81923809D01*
%TO.C,R15*%
X239387142Y-82352380D02*
X239053809Y-81876190D01*
X238815714Y-82352380D02*
X238815714Y-81352380D01*
X239196666Y-81352380D01*
X239291904Y-81400000D01*
X239339523Y-81447619D01*
X239387142Y-81542857D01*
X239387142Y-81685714D01*
X239339523Y-81780952D01*
X239291904Y-81828571D01*
X239196666Y-81876190D01*
X238815714Y-81876190D01*
X240339523Y-82352380D02*
X239768095Y-82352380D01*
X240053809Y-82352380D02*
X240053809Y-81352380D01*
X239958571Y-81495238D01*
X239863333Y-81590476D01*
X239768095Y-81638095D01*
X241244285Y-81352380D02*
X240768095Y-81352380D01*
X240720476Y-81828571D01*
X240768095Y-81780952D01*
X240863333Y-81733333D01*
X241101428Y-81733333D01*
X241196666Y-81780952D01*
X241244285Y-81828571D01*
X241291904Y-81923809D01*
X241291904Y-82161904D01*
X241244285Y-82257142D01*
X241196666Y-82304761D01*
X241101428Y-82352380D01*
X240863333Y-82352380D01*
X240768095Y-82304761D01*
X240720476Y-82257142D01*
%TO.C,R14*%
X247007142Y-86162380D02*
X246673809Y-85686190D01*
X246435714Y-86162380D02*
X246435714Y-85162380D01*
X246816666Y-85162380D01*
X246911904Y-85210000D01*
X246959523Y-85257619D01*
X247007142Y-85352857D01*
X247007142Y-85495714D01*
X246959523Y-85590952D01*
X246911904Y-85638571D01*
X246816666Y-85686190D01*
X246435714Y-85686190D01*
X247959523Y-86162380D02*
X247388095Y-86162380D01*
X247673809Y-86162380D02*
X247673809Y-85162380D01*
X247578571Y-85305238D01*
X247483333Y-85400476D01*
X247388095Y-85448095D01*
X248816666Y-85495714D02*
X248816666Y-86162380D01*
X248578571Y-85114761D02*
X248340476Y-85829047D01*
X248959523Y-85829047D01*
%TO.C,R13*%
X239387142Y-86162380D02*
X239053809Y-85686190D01*
X238815714Y-86162380D02*
X238815714Y-85162380D01*
X239196666Y-85162380D01*
X239291904Y-85210000D01*
X239339523Y-85257619D01*
X239387142Y-85352857D01*
X239387142Y-85495714D01*
X239339523Y-85590952D01*
X239291904Y-85638571D01*
X239196666Y-85686190D01*
X238815714Y-85686190D01*
X240339523Y-86162380D02*
X239768095Y-86162380D01*
X240053809Y-86162380D02*
X240053809Y-85162380D01*
X239958571Y-85305238D01*
X239863333Y-85400476D01*
X239768095Y-85448095D01*
X240672857Y-85162380D02*
X241291904Y-85162380D01*
X240958571Y-85543333D01*
X241101428Y-85543333D01*
X241196666Y-85590952D01*
X241244285Y-85638571D01*
X241291904Y-85733809D01*
X241291904Y-85971904D01*
X241244285Y-86067142D01*
X241196666Y-86114761D01*
X241101428Y-86162380D01*
X240815714Y-86162380D01*
X240720476Y-86114761D01*
X240672857Y-86067142D01*
%TO.C,R12*%
X247007142Y-89972380D02*
X246673809Y-89496190D01*
X246435714Y-89972380D02*
X246435714Y-88972380D01*
X246816666Y-88972380D01*
X246911904Y-89020000D01*
X246959523Y-89067619D01*
X247007142Y-89162857D01*
X247007142Y-89305714D01*
X246959523Y-89400952D01*
X246911904Y-89448571D01*
X246816666Y-89496190D01*
X246435714Y-89496190D01*
X247959523Y-89972380D02*
X247388095Y-89972380D01*
X247673809Y-89972380D02*
X247673809Y-88972380D01*
X247578571Y-89115238D01*
X247483333Y-89210476D01*
X247388095Y-89258095D01*
X248340476Y-89067619D02*
X248388095Y-89020000D01*
X248483333Y-88972380D01*
X248721428Y-88972380D01*
X248816666Y-89020000D01*
X248864285Y-89067619D01*
X248911904Y-89162857D01*
X248911904Y-89258095D01*
X248864285Y-89400952D01*
X248292857Y-89972380D01*
X248911904Y-89972380D01*
%TO.C,R11*%
X239387142Y-89972380D02*
X239053809Y-89496190D01*
X238815714Y-89972380D02*
X238815714Y-88972380D01*
X239196666Y-88972380D01*
X239291904Y-89020000D01*
X239339523Y-89067619D01*
X239387142Y-89162857D01*
X239387142Y-89305714D01*
X239339523Y-89400952D01*
X239291904Y-89448571D01*
X239196666Y-89496190D01*
X238815714Y-89496190D01*
X240339523Y-89972380D02*
X239768095Y-89972380D01*
X240053809Y-89972380D02*
X240053809Y-88972380D01*
X239958571Y-89115238D01*
X239863333Y-89210476D01*
X239768095Y-89258095D01*
X241291904Y-89972380D02*
X240720476Y-89972380D01*
X241006190Y-89972380D02*
X241006190Y-88972380D01*
X240910952Y-89115238D01*
X240815714Y-89210476D01*
X240720476Y-89258095D01*
%TO.C,R10*%
X247007142Y-93782380D02*
X246673809Y-93306190D01*
X246435714Y-93782380D02*
X246435714Y-92782380D01*
X246816666Y-92782380D01*
X246911904Y-92830000D01*
X246959523Y-92877619D01*
X247007142Y-92972857D01*
X247007142Y-93115714D01*
X246959523Y-93210952D01*
X246911904Y-93258571D01*
X246816666Y-93306190D01*
X246435714Y-93306190D01*
X247959523Y-93782380D02*
X247388095Y-93782380D01*
X247673809Y-93782380D02*
X247673809Y-92782380D01*
X247578571Y-92925238D01*
X247483333Y-93020476D01*
X247388095Y-93068095D01*
X248578571Y-92782380D02*
X248673809Y-92782380D01*
X248769047Y-92830000D01*
X248816666Y-92877619D01*
X248864285Y-92972857D01*
X248911904Y-93163333D01*
X248911904Y-93401428D01*
X248864285Y-93591904D01*
X248816666Y-93687142D01*
X248769047Y-93734761D01*
X248673809Y-93782380D01*
X248578571Y-93782380D01*
X248483333Y-93734761D01*
X248435714Y-93687142D01*
X248388095Y-93591904D01*
X248340476Y-93401428D01*
X248340476Y-93163333D01*
X248388095Y-92972857D01*
X248435714Y-92877619D01*
X248483333Y-92830000D01*
X248578571Y-92782380D01*
%TO.C,R9*%
X239863333Y-93782380D02*
X239530000Y-93306190D01*
X239291904Y-93782380D02*
X239291904Y-92782380D01*
X239672857Y-92782380D01*
X239768095Y-92830000D01*
X239815714Y-92877619D01*
X239863333Y-92972857D01*
X239863333Y-93115714D01*
X239815714Y-93210952D01*
X239768095Y-93258571D01*
X239672857Y-93306190D01*
X239291904Y-93306190D01*
X240339523Y-93782380D02*
X240530000Y-93782380D01*
X240625238Y-93734761D01*
X240672857Y-93687142D01*
X240768095Y-93544285D01*
X240815714Y-93353809D01*
X240815714Y-92972857D01*
X240768095Y-92877619D01*
X240720476Y-92830000D01*
X240625238Y-92782380D01*
X240434761Y-92782380D01*
X240339523Y-92830000D01*
X240291904Y-92877619D01*
X240244285Y-92972857D01*
X240244285Y-93210952D01*
X240291904Y-93306190D01*
X240339523Y-93353809D01*
X240434761Y-93401428D01*
X240625238Y-93401428D01*
X240720476Y-93353809D01*
X240768095Y-93306190D01*
X240815714Y-93210952D01*
%TO.C,R8*%
X247483333Y-100132380D02*
X247150000Y-99656190D01*
X246911904Y-100132380D02*
X246911904Y-99132380D01*
X247292857Y-99132380D01*
X247388095Y-99180000D01*
X247435714Y-99227619D01*
X247483333Y-99322857D01*
X247483333Y-99465714D01*
X247435714Y-99560952D01*
X247388095Y-99608571D01*
X247292857Y-99656190D01*
X246911904Y-99656190D01*
X248054761Y-99560952D02*
X247959523Y-99513333D01*
X247911904Y-99465714D01*
X247864285Y-99370476D01*
X247864285Y-99322857D01*
X247911904Y-99227619D01*
X247959523Y-99180000D01*
X248054761Y-99132380D01*
X248245238Y-99132380D01*
X248340476Y-99180000D01*
X248388095Y-99227619D01*
X248435714Y-99322857D01*
X248435714Y-99370476D01*
X248388095Y-99465714D01*
X248340476Y-99513333D01*
X248245238Y-99560952D01*
X248054761Y-99560952D01*
X247959523Y-99608571D01*
X247911904Y-99656190D01*
X247864285Y-99751428D01*
X247864285Y-99941904D01*
X247911904Y-100037142D01*
X247959523Y-100084761D01*
X248054761Y-100132380D01*
X248245238Y-100132380D01*
X248340476Y-100084761D01*
X248388095Y-100037142D01*
X248435714Y-99941904D01*
X248435714Y-99751428D01*
X248388095Y-99656190D01*
X248340476Y-99608571D01*
X248245238Y-99560952D01*
%TO.C,R7*%
X239863333Y-100132380D02*
X239530000Y-99656190D01*
X239291904Y-100132380D02*
X239291904Y-99132380D01*
X239672857Y-99132380D01*
X239768095Y-99180000D01*
X239815714Y-99227619D01*
X239863333Y-99322857D01*
X239863333Y-99465714D01*
X239815714Y-99560952D01*
X239768095Y-99608571D01*
X239672857Y-99656190D01*
X239291904Y-99656190D01*
X240196666Y-99132380D02*
X240863333Y-99132380D01*
X240434761Y-100132380D01*
%TO.C,R6*%
X247483333Y-103942380D02*
X247150000Y-103466190D01*
X246911904Y-103942380D02*
X246911904Y-102942380D01*
X247292857Y-102942380D01*
X247388095Y-102990000D01*
X247435714Y-103037619D01*
X247483333Y-103132857D01*
X247483333Y-103275714D01*
X247435714Y-103370952D01*
X247388095Y-103418571D01*
X247292857Y-103466190D01*
X246911904Y-103466190D01*
X248340476Y-102942380D02*
X248150000Y-102942380D01*
X248054761Y-102990000D01*
X248007142Y-103037619D01*
X247911904Y-103180476D01*
X247864285Y-103370952D01*
X247864285Y-103751904D01*
X247911904Y-103847142D01*
X247959523Y-103894761D01*
X248054761Y-103942380D01*
X248245238Y-103942380D01*
X248340476Y-103894761D01*
X248388095Y-103847142D01*
X248435714Y-103751904D01*
X248435714Y-103513809D01*
X248388095Y-103418571D01*
X248340476Y-103370952D01*
X248245238Y-103323333D01*
X248054761Y-103323333D01*
X247959523Y-103370952D01*
X247911904Y-103418571D01*
X247864285Y-103513809D01*
%TO.C,R5*%
X239863333Y-103942380D02*
X239530000Y-103466190D01*
X239291904Y-103942380D02*
X239291904Y-102942380D01*
X239672857Y-102942380D01*
X239768095Y-102990000D01*
X239815714Y-103037619D01*
X239863333Y-103132857D01*
X239863333Y-103275714D01*
X239815714Y-103370952D01*
X239768095Y-103418571D01*
X239672857Y-103466190D01*
X239291904Y-103466190D01*
X240768095Y-102942380D02*
X240291904Y-102942380D01*
X240244285Y-103418571D01*
X240291904Y-103370952D01*
X240387142Y-103323333D01*
X240625238Y-103323333D01*
X240720476Y-103370952D01*
X240768095Y-103418571D01*
X240815714Y-103513809D01*
X240815714Y-103751904D01*
X240768095Y-103847142D01*
X240720476Y-103894761D01*
X240625238Y-103942380D01*
X240387142Y-103942380D01*
X240291904Y-103894761D01*
X240244285Y-103847142D01*
%TO.C,R4*%
X247483333Y-107752380D02*
X247150000Y-107276190D01*
X246911904Y-107752380D02*
X246911904Y-106752380D01*
X247292857Y-106752380D01*
X247388095Y-106800000D01*
X247435714Y-106847619D01*
X247483333Y-106942857D01*
X247483333Y-107085714D01*
X247435714Y-107180952D01*
X247388095Y-107228571D01*
X247292857Y-107276190D01*
X246911904Y-107276190D01*
X248340476Y-107085714D02*
X248340476Y-107752380D01*
X248102380Y-106704761D02*
X247864285Y-107419047D01*
X248483333Y-107419047D01*
%TO.C,R3*%
X239863333Y-107752380D02*
X239530000Y-107276190D01*
X239291904Y-107752380D02*
X239291904Y-106752380D01*
X239672857Y-106752380D01*
X239768095Y-106800000D01*
X239815714Y-106847619D01*
X239863333Y-106942857D01*
X239863333Y-107085714D01*
X239815714Y-107180952D01*
X239768095Y-107228571D01*
X239672857Y-107276190D01*
X239291904Y-107276190D01*
X240196666Y-106752380D02*
X240815714Y-106752380D01*
X240482380Y-107133333D01*
X240625238Y-107133333D01*
X240720476Y-107180952D01*
X240768095Y-107228571D01*
X240815714Y-107323809D01*
X240815714Y-107561904D01*
X240768095Y-107657142D01*
X240720476Y-107704761D01*
X240625238Y-107752380D01*
X240339523Y-107752380D01*
X240244285Y-107704761D01*
X240196666Y-107657142D01*
%TO.C,R2*%
X247483333Y-111562380D02*
X247150000Y-111086190D01*
X246911904Y-111562380D02*
X246911904Y-110562380D01*
X247292857Y-110562380D01*
X247388095Y-110610000D01*
X247435714Y-110657619D01*
X247483333Y-110752857D01*
X247483333Y-110895714D01*
X247435714Y-110990952D01*
X247388095Y-111038571D01*
X247292857Y-111086190D01*
X246911904Y-111086190D01*
X247864285Y-110657619D02*
X247911904Y-110610000D01*
X248007142Y-110562380D01*
X248245238Y-110562380D01*
X248340476Y-110610000D01*
X248388095Y-110657619D01*
X248435714Y-110752857D01*
X248435714Y-110848095D01*
X248388095Y-110990952D01*
X247816666Y-111562380D01*
X248435714Y-111562380D01*
%TO.C,R1*%
X239863333Y-111562380D02*
X239530000Y-111086190D01*
X239291904Y-111562380D02*
X239291904Y-110562380D01*
X239672857Y-110562380D01*
X239768095Y-110610000D01*
X239815714Y-110657619D01*
X239863333Y-110752857D01*
X239863333Y-110895714D01*
X239815714Y-110990952D01*
X239768095Y-111038571D01*
X239672857Y-111086190D01*
X239291904Y-111086190D01*
X240815714Y-111562380D02*
X240244285Y-111562380D01*
X240530000Y-111562380D02*
X240530000Y-110562380D01*
X240434761Y-110705238D01*
X240339523Y-110800476D01*
X240244285Y-110848095D01*
%TO.C,C#_D_D#2*%
X184927142Y-170568571D02*
X184974761Y-170616190D01*
X185022380Y-170759047D01*
X185022380Y-170854285D01*
X184974761Y-170997142D01*
X184879523Y-171092380D01*
X184784285Y-171140000D01*
X184593809Y-171187619D01*
X184450952Y-171187619D01*
X184260476Y-171140000D01*
X184165238Y-171092380D01*
X184070000Y-170997142D01*
X184022380Y-170854285D01*
X184022380Y-170759047D01*
X184070000Y-170616190D01*
X184117619Y-170568571D01*
X184355714Y-170187619D02*
X184355714Y-169473333D01*
X183927142Y-169901904D02*
X185212857Y-170187619D01*
X184784285Y-169568571D02*
X184784285Y-170282857D01*
X185212857Y-169854285D02*
X183927142Y-169568571D01*
X185117619Y-169378095D02*
X185117619Y-168616190D01*
X185022380Y-168378095D02*
X184022380Y-168378095D01*
X184022380Y-168140000D01*
X184070000Y-167997142D01*
X184165238Y-167901904D01*
X184260476Y-167854285D01*
X184450952Y-167806666D01*
X184593809Y-167806666D01*
X184784285Y-167854285D01*
X184879523Y-167901904D01*
X184974761Y-167997142D01*
X185022380Y-168140000D01*
X185022380Y-168378095D01*
X185117619Y-167616190D02*
X185117619Y-166854285D01*
X185022380Y-166616190D02*
X184022380Y-166616190D01*
X184022380Y-166378095D01*
X184070000Y-166235238D01*
X184165238Y-166140000D01*
X184260476Y-166092380D01*
X184450952Y-166044761D01*
X184593809Y-166044761D01*
X184784285Y-166092380D01*
X184879523Y-166140000D01*
X184974761Y-166235238D01*
X185022380Y-166378095D01*
X185022380Y-166616190D01*
X184355714Y-165663809D02*
X184355714Y-164949523D01*
X183927142Y-165378095D02*
X185212857Y-165663809D01*
X184784285Y-165044761D02*
X184784285Y-165759047D01*
X185212857Y-165330476D02*
X183927142Y-165044761D01*
X184117619Y-164663809D02*
X184070000Y-164616190D01*
X184022380Y-164520952D01*
X184022380Y-164282857D01*
X184070000Y-164187619D01*
X184117619Y-164140000D01*
X184212857Y-164092380D01*
X184308095Y-164092380D01*
X184450952Y-164140000D01*
X185022380Y-164711428D01*
X185022380Y-164092380D01*
%TO.C,E_F_F#1*%
X184498571Y-79009523D02*
X184498571Y-78676190D01*
X185022380Y-78533333D02*
X185022380Y-79009523D01*
X184022380Y-79009523D01*
X184022380Y-78533333D01*
X185117619Y-78342857D02*
X185117619Y-77580952D01*
X184498571Y-77009523D02*
X184498571Y-77342857D01*
X185022380Y-77342857D02*
X184022380Y-77342857D01*
X184022380Y-76866666D01*
X185117619Y-76723809D02*
X185117619Y-75961904D01*
X184498571Y-75390476D02*
X184498571Y-75723809D01*
X185022380Y-75723809D02*
X184022380Y-75723809D01*
X184022380Y-75247619D01*
X184355714Y-74914285D02*
X184355714Y-74200000D01*
X183927142Y-74628571D02*
X185212857Y-74914285D01*
X184784285Y-74295238D02*
X184784285Y-75009523D01*
X185212857Y-74580952D02*
X183927142Y-74295238D01*
X185022380Y-73342857D02*
X185022380Y-73914285D01*
X185022380Y-73628571D02*
X184022380Y-73628571D01*
X184165238Y-73723809D01*
X184260476Y-73819047D01*
X184308095Y-73914285D01*
%TO.C,D8*%
X212472380Y-118848095D02*
X211472380Y-118848095D01*
X211472380Y-118610000D01*
X211520000Y-118467142D01*
X211615238Y-118371904D01*
X211710476Y-118324285D01*
X211900952Y-118276666D01*
X212043809Y-118276666D01*
X212234285Y-118324285D01*
X212329523Y-118371904D01*
X212424761Y-118467142D01*
X212472380Y-118610000D01*
X212472380Y-118848095D01*
X211900952Y-117705238D02*
X211853333Y-117800476D01*
X211805714Y-117848095D01*
X211710476Y-117895714D01*
X211662857Y-117895714D01*
X211567619Y-117848095D01*
X211520000Y-117800476D01*
X211472380Y-117705238D01*
X211472380Y-117514761D01*
X211520000Y-117419523D01*
X211567619Y-117371904D01*
X211662857Y-117324285D01*
X211710476Y-117324285D01*
X211805714Y-117371904D01*
X211853333Y-117419523D01*
X211900952Y-117514761D01*
X211900952Y-117705238D01*
X211948571Y-117800476D01*
X211996190Y-117848095D01*
X212091428Y-117895714D01*
X212281904Y-117895714D01*
X212377142Y-117848095D01*
X212424761Y-117800476D01*
X212472380Y-117705238D01*
X212472380Y-117514761D01*
X212424761Y-117419523D01*
X212377142Y-117371904D01*
X212281904Y-117324285D01*
X212091428Y-117324285D01*
X211996190Y-117371904D01*
X211948571Y-117419523D01*
X211900952Y-117514761D01*
%TO.C,U2*%
X255778095Y-80942380D02*
X255778095Y-81751904D01*
X255825714Y-81847142D01*
X255873333Y-81894761D01*
X255968571Y-81942380D01*
X256159047Y-81942380D01*
X256254285Y-81894761D01*
X256301904Y-81847142D01*
X256349523Y-81751904D01*
X256349523Y-80942380D01*
X256778095Y-81037619D02*
X256825714Y-80990000D01*
X256920952Y-80942380D01*
X257159047Y-80942380D01*
X257254285Y-80990000D01*
X257301904Y-81037619D01*
X257349523Y-81132857D01*
X257349523Y-81228095D01*
X257301904Y-81370952D01*
X256730476Y-81942380D01*
X257349523Y-81942380D01*
%TO.C,Q16*%
X232267619Y-39941428D02*
X232220000Y-40036666D01*
X232124761Y-40131904D01*
X231981904Y-40274761D01*
X231934285Y-40370000D01*
X231934285Y-40465238D01*
X232172380Y-40417619D02*
X232124761Y-40512857D01*
X232029523Y-40608095D01*
X231839047Y-40655714D01*
X231505714Y-40655714D01*
X231315238Y-40608095D01*
X231220000Y-40512857D01*
X231172380Y-40417619D01*
X231172380Y-40227142D01*
X231220000Y-40131904D01*
X231315238Y-40036666D01*
X231505714Y-39989047D01*
X231839047Y-39989047D01*
X232029523Y-40036666D01*
X232124761Y-40131904D01*
X232172380Y-40227142D01*
X232172380Y-40417619D01*
X232172380Y-39036666D02*
X232172380Y-39608095D01*
X232172380Y-39322380D02*
X231172380Y-39322380D01*
X231315238Y-39417619D01*
X231410476Y-39512857D01*
X231458095Y-39608095D01*
X231172380Y-38179523D02*
X231172380Y-38370000D01*
X231220000Y-38465238D01*
X231267619Y-38512857D01*
X231410476Y-38608095D01*
X231600952Y-38655714D01*
X231981904Y-38655714D01*
X232077142Y-38608095D01*
X232124761Y-38560476D01*
X232172380Y-38465238D01*
X232172380Y-38274761D01*
X232124761Y-38179523D01*
X232077142Y-38131904D01*
X231981904Y-38084285D01*
X231743809Y-38084285D01*
X231648571Y-38131904D01*
X231600952Y-38179523D01*
X231553333Y-38274761D01*
X231553333Y-38465238D01*
X231600952Y-38560476D01*
X231648571Y-38608095D01*
X231743809Y-38655714D01*
%TO.C,Q15*%
X223807619Y-39991428D02*
X223760000Y-40086666D01*
X223664761Y-40181904D01*
X223521904Y-40324761D01*
X223474285Y-40420000D01*
X223474285Y-40515238D01*
X223712380Y-40467619D02*
X223664761Y-40562857D01*
X223569523Y-40658095D01*
X223379047Y-40705714D01*
X223045714Y-40705714D01*
X222855238Y-40658095D01*
X222760000Y-40562857D01*
X222712380Y-40467619D01*
X222712380Y-40277142D01*
X222760000Y-40181904D01*
X222855238Y-40086666D01*
X223045714Y-40039047D01*
X223379047Y-40039047D01*
X223569523Y-40086666D01*
X223664761Y-40181904D01*
X223712380Y-40277142D01*
X223712380Y-40467619D01*
X223712380Y-39086666D02*
X223712380Y-39658095D01*
X223712380Y-39372380D02*
X222712380Y-39372380D01*
X222855238Y-39467619D01*
X222950476Y-39562857D01*
X222998095Y-39658095D01*
X222712380Y-38181904D02*
X222712380Y-38658095D01*
X223188571Y-38705714D01*
X223140952Y-38658095D01*
X223093333Y-38562857D01*
X223093333Y-38324761D01*
X223140952Y-38229523D01*
X223188571Y-38181904D01*
X223283809Y-38134285D01*
X223521904Y-38134285D01*
X223617142Y-38181904D01*
X223664761Y-38229523D01*
X223712380Y-38324761D01*
X223712380Y-38562857D01*
X223664761Y-38658095D01*
X223617142Y-38705714D01*
%TO.C,Q14*%
X214917619Y-39991428D02*
X214870000Y-40086666D01*
X214774761Y-40181904D01*
X214631904Y-40324761D01*
X214584285Y-40420000D01*
X214584285Y-40515238D01*
X214822380Y-40467619D02*
X214774761Y-40562857D01*
X214679523Y-40658095D01*
X214489047Y-40705714D01*
X214155714Y-40705714D01*
X213965238Y-40658095D01*
X213870000Y-40562857D01*
X213822380Y-40467619D01*
X213822380Y-40277142D01*
X213870000Y-40181904D01*
X213965238Y-40086666D01*
X214155714Y-40039047D01*
X214489047Y-40039047D01*
X214679523Y-40086666D01*
X214774761Y-40181904D01*
X214822380Y-40277142D01*
X214822380Y-40467619D01*
X214822380Y-39086666D02*
X214822380Y-39658095D01*
X214822380Y-39372380D02*
X213822380Y-39372380D01*
X213965238Y-39467619D01*
X214060476Y-39562857D01*
X214108095Y-39658095D01*
X214155714Y-38229523D02*
X214822380Y-38229523D01*
X213774761Y-38467619D02*
X214489047Y-38705714D01*
X214489047Y-38086666D01*
%TO.C,Q13*%
X205597619Y-39941428D02*
X205550000Y-40036666D01*
X205454761Y-40131904D01*
X205311904Y-40274761D01*
X205264285Y-40370000D01*
X205264285Y-40465238D01*
X205502380Y-40417619D02*
X205454761Y-40512857D01*
X205359523Y-40608095D01*
X205169047Y-40655714D01*
X204835714Y-40655714D01*
X204645238Y-40608095D01*
X204550000Y-40512857D01*
X204502380Y-40417619D01*
X204502380Y-40227142D01*
X204550000Y-40131904D01*
X204645238Y-40036666D01*
X204835714Y-39989047D01*
X205169047Y-39989047D01*
X205359523Y-40036666D01*
X205454761Y-40131904D01*
X205502380Y-40227142D01*
X205502380Y-40417619D01*
X205502380Y-39036666D02*
X205502380Y-39608095D01*
X205502380Y-39322380D02*
X204502380Y-39322380D01*
X204645238Y-39417619D01*
X204740476Y-39512857D01*
X204788095Y-39608095D01*
X204502380Y-38703333D02*
X204502380Y-38084285D01*
X204883333Y-38417619D01*
X204883333Y-38274761D01*
X204930952Y-38179523D01*
X204978571Y-38131904D01*
X205073809Y-38084285D01*
X205311904Y-38084285D01*
X205407142Y-38131904D01*
X205454761Y-38179523D01*
X205502380Y-38274761D01*
X205502380Y-38560476D01*
X205454761Y-38655714D01*
X205407142Y-38703333D01*
%TO.C,Q12*%
X228027619Y-53651428D02*
X227980000Y-53746666D01*
X227884761Y-53841904D01*
X227741904Y-53984761D01*
X227694285Y-54080000D01*
X227694285Y-54175238D01*
X227932380Y-54127619D02*
X227884761Y-54222857D01*
X227789523Y-54318095D01*
X227599047Y-54365714D01*
X227265714Y-54365714D01*
X227075238Y-54318095D01*
X226980000Y-54222857D01*
X226932380Y-54127619D01*
X226932380Y-53937142D01*
X226980000Y-53841904D01*
X227075238Y-53746666D01*
X227265714Y-53699047D01*
X227599047Y-53699047D01*
X227789523Y-53746666D01*
X227884761Y-53841904D01*
X227932380Y-53937142D01*
X227932380Y-54127619D01*
X227932380Y-52746666D02*
X227932380Y-53318095D01*
X227932380Y-53032380D02*
X226932380Y-53032380D01*
X227075238Y-53127619D01*
X227170476Y-53222857D01*
X227218095Y-53318095D01*
X227027619Y-52365714D02*
X226980000Y-52318095D01*
X226932380Y-52222857D01*
X226932380Y-51984761D01*
X226980000Y-51889523D01*
X227027619Y-51841904D01*
X227122857Y-51794285D01*
X227218095Y-51794285D01*
X227360952Y-51841904D01*
X227932380Y-52413333D01*
X227932380Y-51794285D01*
%TO.C,Q11*%
X219137619Y-53651428D02*
X219090000Y-53746666D01*
X218994761Y-53841904D01*
X218851904Y-53984761D01*
X218804285Y-54080000D01*
X218804285Y-54175238D01*
X219042380Y-54127619D02*
X218994761Y-54222857D01*
X218899523Y-54318095D01*
X218709047Y-54365714D01*
X218375714Y-54365714D01*
X218185238Y-54318095D01*
X218090000Y-54222857D01*
X218042380Y-54127619D01*
X218042380Y-53937142D01*
X218090000Y-53841904D01*
X218185238Y-53746666D01*
X218375714Y-53699047D01*
X218709047Y-53699047D01*
X218899523Y-53746666D01*
X218994761Y-53841904D01*
X219042380Y-53937142D01*
X219042380Y-54127619D01*
X219042380Y-52746666D02*
X219042380Y-53318095D01*
X219042380Y-53032380D02*
X218042380Y-53032380D01*
X218185238Y-53127619D01*
X218280476Y-53222857D01*
X218328095Y-53318095D01*
X219042380Y-51794285D02*
X219042380Y-52365714D01*
X219042380Y-52080000D02*
X218042380Y-52080000D01*
X218185238Y-52175238D01*
X218280476Y-52270476D01*
X218328095Y-52365714D01*
%TO.C,Q10*%
X210247619Y-53651428D02*
X210200000Y-53746666D01*
X210104761Y-53841904D01*
X209961904Y-53984761D01*
X209914285Y-54080000D01*
X209914285Y-54175238D01*
X210152380Y-54127619D02*
X210104761Y-54222857D01*
X210009523Y-54318095D01*
X209819047Y-54365714D01*
X209485714Y-54365714D01*
X209295238Y-54318095D01*
X209200000Y-54222857D01*
X209152380Y-54127619D01*
X209152380Y-53937142D01*
X209200000Y-53841904D01*
X209295238Y-53746666D01*
X209485714Y-53699047D01*
X209819047Y-53699047D01*
X210009523Y-53746666D01*
X210104761Y-53841904D01*
X210152380Y-53937142D01*
X210152380Y-54127619D01*
X210152380Y-52746666D02*
X210152380Y-53318095D01*
X210152380Y-53032380D02*
X209152380Y-53032380D01*
X209295238Y-53127619D01*
X209390476Y-53222857D01*
X209438095Y-53318095D01*
X209152380Y-52127619D02*
X209152380Y-52032380D01*
X209200000Y-51937142D01*
X209247619Y-51889523D01*
X209342857Y-51841904D01*
X209533333Y-51794285D01*
X209771428Y-51794285D01*
X209961904Y-51841904D01*
X210057142Y-51889523D01*
X210104761Y-51937142D01*
X210152380Y-52032380D01*
X210152380Y-52127619D01*
X210104761Y-52222857D01*
X210057142Y-52270476D01*
X209961904Y-52318095D01*
X209771428Y-52365714D01*
X209533333Y-52365714D01*
X209342857Y-52318095D01*
X209247619Y-52270476D01*
X209200000Y-52222857D01*
X209152380Y-52127619D01*
%TO.C,Q9*%
X201357619Y-53175238D02*
X201310000Y-53270476D01*
X201214761Y-53365714D01*
X201071904Y-53508571D01*
X201024285Y-53603809D01*
X201024285Y-53699047D01*
X201262380Y-53651428D02*
X201214761Y-53746666D01*
X201119523Y-53841904D01*
X200929047Y-53889523D01*
X200595714Y-53889523D01*
X200405238Y-53841904D01*
X200310000Y-53746666D01*
X200262380Y-53651428D01*
X200262380Y-53460952D01*
X200310000Y-53365714D01*
X200405238Y-53270476D01*
X200595714Y-53222857D01*
X200929047Y-53222857D01*
X201119523Y-53270476D01*
X201214761Y-53365714D01*
X201262380Y-53460952D01*
X201262380Y-53651428D01*
X201262380Y-52746666D02*
X201262380Y-52556190D01*
X201214761Y-52460952D01*
X201167142Y-52413333D01*
X201024285Y-52318095D01*
X200833809Y-52270476D01*
X200452857Y-52270476D01*
X200357619Y-52318095D01*
X200310000Y-52365714D01*
X200262380Y-52460952D01*
X200262380Y-52651428D01*
X200310000Y-52746666D01*
X200357619Y-52794285D01*
X200452857Y-52841904D01*
X200690952Y-52841904D01*
X200786190Y-52794285D01*
X200833809Y-52746666D01*
X200881428Y-52651428D01*
X200881428Y-52460952D01*
X200833809Y-52365714D01*
X200786190Y-52318095D01*
X200690952Y-52270476D01*
%TO.C,Q8*%
X219137619Y-67145238D02*
X219090000Y-67240476D01*
X218994761Y-67335714D01*
X218851904Y-67478571D01*
X218804285Y-67573809D01*
X218804285Y-67669047D01*
X219042380Y-67621428D02*
X218994761Y-67716666D01*
X218899523Y-67811904D01*
X218709047Y-67859523D01*
X218375714Y-67859523D01*
X218185238Y-67811904D01*
X218090000Y-67716666D01*
X218042380Y-67621428D01*
X218042380Y-67430952D01*
X218090000Y-67335714D01*
X218185238Y-67240476D01*
X218375714Y-67192857D01*
X218709047Y-67192857D01*
X218899523Y-67240476D01*
X218994761Y-67335714D01*
X219042380Y-67430952D01*
X219042380Y-67621428D01*
X218470952Y-66621428D02*
X218423333Y-66716666D01*
X218375714Y-66764285D01*
X218280476Y-66811904D01*
X218232857Y-66811904D01*
X218137619Y-66764285D01*
X218090000Y-66716666D01*
X218042380Y-66621428D01*
X218042380Y-66430952D01*
X218090000Y-66335714D01*
X218137619Y-66288095D01*
X218232857Y-66240476D01*
X218280476Y-66240476D01*
X218375714Y-66288095D01*
X218423333Y-66335714D01*
X218470952Y-66430952D01*
X218470952Y-66621428D01*
X218518571Y-66716666D01*
X218566190Y-66764285D01*
X218661428Y-66811904D01*
X218851904Y-66811904D01*
X218947142Y-66764285D01*
X218994761Y-66716666D01*
X219042380Y-66621428D01*
X219042380Y-66430952D01*
X218994761Y-66335714D01*
X218947142Y-66288095D01*
X218851904Y-66240476D01*
X218661428Y-66240476D01*
X218566190Y-66288095D01*
X218518571Y-66335714D01*
X218470952Y-66430952D01*
%TO.C,Q7*%
X210247619Y-67145238D02*
X210200000Y-67240476D01*
X210104761Y-67335714D01*
X209961904Y-67478571D01*
X209914285Y-67573809D01*
X209914285Y-67669047D01*
X210152380Y-67621428D02*
X210104761Y-67716666D01*
X210009523Y-67811904D01*
X209819047Y-67859523D01*
X209485714Y-67859523D01*
X209295238Y-67811904D01*
X209200000Y-67716666D01*
X209152380Y-67621428D01*
X209152380Y-67430952D01*
X209200000Y-67335714D01*
X209295238Y-67240476D01*
X209485714Y-67192857D01*
X209819047Y-67192857D01*
X210009523Y-67240476D01*
X210104761Y-67335714D01*
X210152380Y-67430952D01*
X210152380Y-67621428D01*
X209152380Y-66859523D02*
X209152380Y-66192857D01*
X210152380Y-66621428D01*
%TO.C,Q6*%
X200947619Y-67145238D02*
X200900000Y-67240476D01*
X200804761Y-67335714D01*
X200661904Y-67478571D01*
X200614285Y-67573809D01*
X200614285Y-67669047D01*
X200852380Y-67621428D02*
X200804761Y-67716666D01*
X200709523Y-67811904D01*
X200519047Y-67859523D01*
X200185714Y-67859523D01*
X199995238Y-67811904D01*
X199900000Y-67716666D01*
X199852380Y-67621428D01*
X199852380Y-67430952D01*
X199900000Y-67335714D01*
X199995238Y-67240476D01*
X200185714Y-67192857D01*
X200519047Y-67192857D01*
X200709523Y-67240476D01*
X200804761Y-67335714D01*
X200852380Y-67430952D01*
X200852380Y-67621428D01*
X199852380Y-66335714D02*
X199852380Y-66526190D01*
X199900000Y-66621428D01*
X199947619Y-66669047D01*
X200090476Y-66764285D01*
X200280952Y-66811904D01*
X200661904Y-66811904D01*
X200757142Y-66764285D01*
X200804761Y-66716666D01*
X200852380Y-66621428D01*
X200852380Y-66430952D01*
X200804761Y-66335714D01*
X200757142Y-66288095D01*
X200661904Y-66240476D01*
X200423809Y-66240476D01*
X200328571Y-66288095D01*
X200280952Y-66335714D01*
X200233333Y-66430952D01*
X200233333Y-66621428D01*
X200280952Y-66716666D01*
X200328571Y-66764285D01*
X200423809Y-66811904D01*
%TO.C,Q5*%
X219137619Y-81115238D02*
X219090000Y-81210476D01*
X218994761Y-81305714D01*
X218851904Y-81448571D01*
X218804285Y-81543809D01*
X218804285Y-81639047D01*
X219042380Y-81591428D02*
X218994761Y-81686666D01*
X218899523Y-81781904D01*
X218709047Y-81829523D01*
X218375714Y-81829523D01*
X218185238Y-81781904D01*
X218090000Y-81686666D01*
X218042380Y-81591428D01*
X218042380Y-81400952D01*
X218090000Y-81305714D01*
X218185238Y-81210476D01*
X218375714Y-81162857D01*
X218709047Y-81162857D01*
X218899523Y-81210476D01*
X218994761Y-81305714D01*
X219042380Y-81400952D01*
X219042380Y-81591428D01*
X218042380Y-80258095D02*
X218042380Y-80734285D01*
X218518571Y-80781904D01*
X218470952Y-80734285D01*
X218423333Y-80639047D01*
X218423333Y-80400952D01*
X218470952Y-80305714D01*
X218518571Y-80258095D01*
X218613809Y-80210476D01*
X218851904Y-80210476D01*
X218947142Y-80258095D01*
X218994761Y-80305714D01*
X219042380Y-80400952D01*
X219042380Y-80639047D01*
X218994761Y-80734285D01*
X218947142Y-80781904D01*
%TO.C,Q4*%
X210247619Y-81115238D02*
X210200000Y-81210476D01*
X210104761Y-81305714D01*
X209961904Y-81448571D01*
X209914285Y-81543809D01*
X209914285Y-81639047D01*
X210152380Y-81591428D02*
X210104761Y-81686666D01*
X210009523Y-81781904D01*
X209819047Y-81829523D01*
X209485714Y-81829523D01*
X209295238Y-81781904D01*
X209200000Y-81686666D01*
X209152380Y-81591428D01*
X209152380Y-81400952D01*
X209200000Y-81305714D01*
X209295238Y-81210476D01*
X209485714Y-81162857D01*
X209819047Y-81162857D01*
X210009523Y-81210476D01*
X210104761Y-81305714D01*
X210152380Y-81400952D01*
X210152380Y-81591428D01*
X209485714Y-80305714D02*
X210152380Y-80305714D01*
X209104761Y-80543809D02*
X209819047Y-80781904D01*
X209819047Y-80162857D01*
%TO.C,Q3*%
X201357619Y-81115238D02*
X201310000Y-81210476D01*
X201214761Y-81305714D01*
X201071904Y-81448571D01*
X201024285Y-81543809D01*
X201024285Y-81639047D01*
X201262380Y-81591428D02*
X201214761Y-81686666D01*
X201119523Y-81781904D01*
X200929047Y-81829523D01*
X200595714Y-81829523D01*
X200405238Y-81781904D01*
X200310000Y-81686666D01*
X200262380Y-81591428D01*
X200262380Y-81400952D01*
X200310000Y-81305714D01*
X200405238Y-81210476D01*
X200595714Y-81162857D01*
X200929047Y-81162857D01*
X201119523Y-81210476D01*
X201214761Y-81305714D01*
X201262380Y-81400952D01*
X201262380Y-81591428D01*
X200262380Y-80829523D02*
X200262380Y-80210476D01*
X200643333Y-80543809D01*
X200643333Y-80400952D01*
X200690952Y-80305714D01*
X200738571Y-80258095D01*
X200833809Y-80210476D01*
X201071904Y-80210476D01*
X201167142Y-80258095D01*
X201214761Y-80305714D01*
X201262380Y-80400952D01*
X201262380Y-80686666D01*
X201214761Y-80781904D01*
X201167142Y-80829523D01*
%TO.C,Q2*%
X210247619Y-96355238D02*
X210200000Y-96450476D01*
X210104761Y-96545714D01*
X209961904Y-96688571D01*
X209914285Y-96783809D01*
X209914285Y-96879047D01*
X210152380Y-96831428D02*
X210104761Y-96926666D01*
X210009523Y-97021904D01*
X209819047Y-97069523D01*
X209485714Y-97069523D01*
X209295238Y-97021904D01*
X209200000Y-96926666D01*
X209152380Y-96831428D01*
X209152380Y-96640952D01*
X209200000Y-96545714D01*
X209295238Y-96450476D01*
X209485714Y-96402857D01*
X209819047Y-96402857D01*
X210009523Y-96450476D01*
X210104761Y-96545714D01*
X210152380Y-96640952D01*
X210152380Y-96831428D01*
X209247619Y-96021904D02*
X209200000Y-95974285D01*
X209152380Y-95879047D01*
X209152380Y-95640952D01*
X209200000Y-95545714D01*
X209247619Y-95498095D01*
X209342857Y-95450476D01*
X209438095Y-95450476D01*
X209580952Y-95498095D01*
X210152380Y-96069523D01*
X210152380Y-95450476D01*
%TO.C,Q1*%
X200947619Y-96355238D02*
X200900000Y-96450476D01*
X200804761Y-96545714D01*
X200661904Y-96688571D01*
X200614285Y-96783809D01*
X200614285Y-96879047D01*
X200852380Y-96831428D02*
X200804761Y-96926666D01*
X200709523Y-97021904D01*
X200519047Y-97069523D01*
X200185714Y-97069523D01*
X199995238Y-97021904D01*
X199900000Y-96926666D01*
X199852380Y-96831428D01*
X199852380Y-96640952D01*
X199900000Y-96545714D01*
X199995238Y-96450476D01*
X200185714Y-96402857D01*
X200519047Y-96402857D01*
X200709523Y-96450476D01*
X200804761Y-96545714D01*
X200852380Y-96640952D01*
X200852380Y-96831428D01*
X200852380Y-95450476D02*
X200852380Y-96021904D01*
X200852380Y-95736190D02*
X199852380Y-95736190D01*
X199995238Y-95831428D01*
X200090476Y-95926666D01*
X200138095Y-96021904D01*
%TO.C,G_G#_A2*%
X184070000Y-139404761D02*
X184022380Y-139500000D01*
X184022380Y-139642857D01*
X184070000Y-139785714D01*
X184165238Y-139880952D01*
X184260476Y-139928571D01*
X184450952Y-139976190D01*
X184593809Y-139976190D01*
X184784285Y-139928571D01*
X184879523Y-139880952D01*
X184974761Y-139785714D01*
X185022380Y-139642857D01*
X185022380Y-139547619D01*
X184974761Y-139404761D01*
X184927142Y-139357142D01*
X184593809Y-139357142D01*
X184593809Y-139547619D01*
X185117619Y-139166666D02*
X185117619Y-138404761D01*
X184070000Y-137642857D02*
X184022380Y-137738095D01*
X184022380Y-137880952D01*
X184070000Y-138023809D01*
X184165238Y-138119047D01*
X184260476Y-138166666D01*
X184450952Y-138214285D01*
X184593809Y-138214285D01*
X184784285Y-138166666D01*
X184879523Y-138119047D01*
X184974761Y-138023809D01*
X185022380Y-137880952D01*
X185022380Y-137785714D01*
X184974761Y-137642857D01*
X184927142Y-137595238D01*
X184593809Y-137595238D01*
X184593809Y-137785714D01*
X184355714Y-137214285D02*
X184355714Y-136500000D01*
X183927142Y-136928571D02*
X185212857Y-137214285D01*
X184784285Y-136595238D02*
X184784285Y-137309523D01*
X185212857Y-136880952D02*
X183927142Y-136595238D01*
X185117619Y-136404761D02*
X185117619Y-135642857D01*
X184736666Y-135452380D02*
X184736666Y-134976190D01*
X185022380Y-135547619D02*
X184022380Y-135214285D01*
X185022380Y-134880952D01*
X184117619Y-134595238D02*
X184070000Y-134547619D01*
X184022380Y-134452380D01*
X184022380Y-134214285D01*
X184070000Y-134119047D01*
X184117619Y-134071428D01*
X184212857Y-134023809D01*
X184308095Y-134023809D01*
X184450952Y-134071428D01*
X185022380Y-134642857D01*
X185022380Y-134023809D01*
%TO.C,G_G#_A1*%
X184070000Y-63364761D02*
X184022380Y-63460000D01*
X184022380Y-63602857D01*
X184070000Y-63745714D01*
X184165238Y-63840952D01*
X184260476Y-63888571D01*
X184450952Y-63936190D01*
X184593809Y-63936190D01*
X184784285Y-63888571D01*
X184879523Y-63840952D01*
X184974761Y-63745714D01*
X185022380Y-63602857D01*
X185022380Y-63507619D01*
X184974761Y-63364761D01*
X184927142Y-63317142D01*
X184593809Y-63317142D01*
X184593809Y-63507619D01*
X185117619Y-63126666D02*
X185117619Y-62364761D01*
X184070000Y-61602857D02*
X184022380Y-61698095D01*
X184022380Y-61840952D01*
X184070000Y-61983809D01*
X184165238Y-62079047D01*
X184260476Y-62126666D01*
X184450952Y-62174285D01*
X184593809Y-62174285D01*
X184784285Y-62126666D01*
X184879523Y-62079047D01*
X184974761Y-61983809D01*
X185022380Y-61840952D01*
X185022380Y-61745714D01*
X184974761Y-61602857D01*
X184927142Y-61555238D01*
X184593809Y-61555238D01*
X184593809Y-61745714D01*
X184355714Y-61174285D02*
X184355714Y-60460000D01*
X183927142Y-60888571D02*
X185212857Y-61174285D01*
X184784285Y-60555238D02*
X184784285Y-61269523D01*
X185212857Y-60840952D02*
X183927142Y-60555238D01*
X185117619Y-60364761D02*
X185117619Y-59602857D01*
X184736666Y-59412380D02*
X184736666Y-58936190D01*
X185022380Y-59507619D02*
X184022380Y-59174285D01*
X185022380Y-58840952D01*
X185022380Y-57983809D02*
X185022380Y-58555238D01*
X185022380Y-58269523D02*
X184022380Y-58269523D01*
X184165238Y-58364761D01*
X184260476Y-58460000D01*
X184308095Y-58555238D01*
%TO.C,F_G_C1*%
X184498571Y-245935238D02*
X184498571Y-246268571D01*
X185022380Y-246268571D02*
X184022380Y-246268571D01*
X184022380Y-245792380D01*
X185117619Y-245649523D02*
X185117619Y-244887619D01*
X184070000Y-244125714D02*
X184022380Y-244220952D01*
X184022380Y-244363809D01*
X184070000Y-244506666D01*
X184165238Y-244601904D01*
X184260476Y-244649523D01*
X184450952Y-244697142D01*
X184593809Y-244697142D01*
X184784285Y-244649523D01*
X184879523Y-244601904D01*
X184974761Y-244506666D01*
X185022380Y-244363809D01*
X185022380Y-244268571D01*
X184974761Y-244125714D01*
X184927142Y-244078095D01*
X184593809Y-244078095D01*
X184593809Y-244268571D01*
X185117619Y-243887619D02*
X185117619Y-243125714D01*
X184927142Y-242316190D02*
X184974761Y-242363809D01*
X185022380Y-242506666D01*
X185022380Y-242601904D01*
X184974761Y-242744761D01*
X184879523Y-242840000D01*
X184784285Y-242887619D01*
X184593809Y-242935238D01*
X184450952Y-242935238D01*
X184260476Y-242887619D01*
X184165238Y-242840000D01*
X184070000Y-242744761D01*
X184022380Y-242601904D01*
X184022380Y-242506666D01*
X184070000Y-242363809D01*
X184117619Y-242316190D01*
X185022380Y-241363809D02*
X185022380Y-241935238D01*
X185022380Y-241649523D02*
X184022380Y-241649523D01*
X184165238Y-241744761D01*
X184260476Y-241840000D01*
X184308095Y-241935238D01*
%TO.C,F#_G_A1*%
X184498571Y-215883809D02*
X184498571Y-216217142D01*
X185022380Y-216217142D02*
X184022380Y-216217142D01*
X184022380Y-215740952D01*
X184355714Y-215407619D02*
X184355714Y-214693333D01*
X183927142Y-215121904D02*
X185212857Y-215407619D01*
X184784285Y-214788571D02*
X184784285Y-215502857D01*
X185212857Y-215074285D02*
X183927142Y-214788571D01*
X185117619Y-214598095D02*
X185117619Y-213836190D01*
X184070000Y-213074285D02*
X184022380Y-213169523D01*
X184022380Y-213312380D01*
X184070000Y-213455238D01*
X184165238Y-213550476D01*
X184260476Y-213598095D01*
X184450952Y-213645714D01*
X184593809Y-213645714D01*
X184784285Y-213598095D01*
X184879523Y-213550476D01*
X184974761Y-213455238D01*
X185022380Y-213312380D01*
X185022380Y-213217142D01*
X184974761Y-213074285D01*
X184927142Y-213026666D01*
X184593809Y-213026666D01*
X184593809Y-213217142D01*
X185117619Y-212836190D02*
X185117619Y-212074285D01*
X184736666Y-211883809D02*
X184736666Y-211407619D01*
X185022380Y-211979047D02*
X184022380Y-211645714D01*
X185022380Y-211312380D01*
X185022380Y-210455238D02*
X185022380Y-211026666D01*
X185022380Y-210740952D02*
X184022380Y-210740952D01*
X184165238Y-210836190D01*
X184260476Y-210931428D01*
X184308095Y-211026666D01*
%TO.C,E_F_F#2*%
X184498571Y-155209523D02*
X184498571Y-154876190D01*
X185022380Y-154733333D02*
X185022380Y-155209523D01*
X184022380Y-155209523D01*
X184022380Y-154733333D01*
X185117619Y-154542857D02*
X185117619Y-153780952D01*
X184498571Y-153209523D02*
X184498571Y-153542857D01*
X185022380Y-153542857D02*
X184022380Y-153542857D01*
X184022380Y-153066666D01*
X185117619Y-152923809D02*
X185117619Y-152161904D01*
X184498571Y-151590476D02*
X184498571Y-151923809D01*
X185022380Y-151923809D02*
X184022380Y-151923809D01*
X184022380Y-151447619D01*
X184355714Y-151114285D02*
X184355714Y-150400000D01*
X183927142Y-150828571D02*
X185212857Y-151114285D01*
X184784285Y-150495238D02*
X184784285Y-151209523D01*
X185212857Y-150780952D02*
X183927142Y-150495238D01*
X184117619Y-150114285D02*
X184070000Y-150066666D01*
X184022380Y-149971428D01*
X184022380Y-149733333D01*
X184070000Y-149638095D01*
X184117619Y-149590476D01*
X184212857Y-149542857D01*
X184308095Y-149542857D01*
X184450952Y-149590476D01*
X185022380Y-150161904D01*
X185022380Y-149542857D01*
%TO.C,D_E_F1*%
X185022380Y-230980952D02*
X184022380Y-230980952D01*
X184022380Y-230742857D01*
X184070000Y-230600000D01*
X184165238Y-230504761D01*
X184260476Y-230457142D01*
X184450952Y-230409523D01*
X184593809Y-230409523D01*
X184784285Y-230457142D01*
X184879523Y-230504761D01*
X184974761Y-230600000D01*
X185022380Y-230742857D01*
X185022380Y-230980952D01*
X185117619Y-230219047D02*
X185117619Y-229457142D01*
X184498571Y-229219047D02*
X184498571Y-228885714D01*
X185022380Y-228742857D02*
X185022380Y-229219047D01*
X184022380Y-229219047D01*
X184022380Y-228742857D01*
X185117619Y-228552380D02*
X185117619Y-227790476D01*
X184498571Y-227219047D02*
X184498571Y-227552380D01*
X185022380Y-227552380D02*
X184022380Y-227552380D01*
X184022380Y-227076190D01*
X185022380Y-226171428D02*
X185022380Y-226742857D01*
X185022380Y-226457142D02*
X184022380Y-226457142D01*
X184165238Y-226552380D01*
X184260476Y-226647619D01*
X184308095Y-226742857D01*
%TO.C,C#_D_D#1*%
X184927142Y-94368571D02*
X184974761Y-94416190D01*
X185022380Y-94559047D01*
X185022380Y-94654285D01*
X184974761Y-94797142D01*
X184879523Y-94892380D01*
X184784285Y-94940000D01*
X184593809Y-94987619D01*
X184450952Y-94987619D01*
X184260476Y-94940000D01*
X184165238Y-94892380D01*
X184070000Y-94797142D01*
X184022380Y-94654285D01*
X184022380Y-94559047D01*
X184070000Y-94416190D01*
X184117619Y-94368571D01*
X184355714Y-93987619D02*
X184355714Y-93273333D01*
X183927142Y-93701904D02*
X185212857Y-93987619D01*
X184784285Y-93368571D02*
X184784285Y-94082857D01*
X185212857Y-93654285D02*
X183927142Y-93368571D01*
X185117619Y-93178095D02*
X185117619Y-92416190D01*
X185022380Y-92178095D02*
X184022380Y-92178095D01*
X184022380Y-91940000D01*
X184070000Y-91797142D01*
X184165238Y-91701904D01*
X184260476Y-91654285D01*
X184450952Y-91606666D01*
X184593809Y-91606666D01*
X184784285Y-91654285D01*
X184879523Y-91701904D01*
X184974761Y-91797142D01*
X185022380Y-91940000D01*
X185022380Y-92178095D01*
X185117619Y-91416190D02*
X185117619Y-90654285D01*
X185022380Y-90416190D02*
X184022380Y-90416190D01*
X184022380Y-90178095D01*
X184070000Y-90035238D01*
X184165238Y-89940000D01*
X184260476Y-89892380D01*
X184450952Y-89844761D01*
X184593809Y-89844761D01*
X184784285Y-89892380D01*
X184879523Y-89940000D01*
X184974761Y-90035238D01*
X185022380Y-90178095D01*
X185022380Y-90416190D01*
X184355714Y-89463809D02*
X184355714Y-88749523D01*
X183927142Y-89178095D02*
X185212857Y-89463809D01*
X184784285Y-88844761D02*
X184784285Y-89559047D01*
X185212857Y-89130476D02*
X183927142Y-88844761D01*
X185022380Y-87892380D02*
X185022380Y-88463809D01*
X185022380Y-88178095D02*
X184022380Y-88178095D01*
X184165238Y-88273333D01*
X184260476Y-88368571D01*
X184308095Y-88463809D01*
%TO.C,Bb_B_C3*%
X184498571Y-200739047D02*
X184546190Y-200596190D01*
X184593809Y-200548571D01*
X184689047Y-200500952D01*
X184831904Y-200500952D01*
X184927142Y-200548571D01*
X184974761Y-200596190D01*
X185022380Y-200691428D01*
X185022380Y-201072380D01*
X184022380Y-201072380D01*
X184022380Y-200739047D01*
X184070000Y-200643809D01*
X184117619Y-200596190D01*
X184212857Y-200548571D01*
X184308095Y-200548571D01*
X184403333Y-200596190D01*
X184450952Y-200643809D01*
X184498571Y-200739047D01*
X184498571Y-201072380D01*
X185022380Y-200072380D02*
X184022380Y-200072380D01*
X184403333Y-200072380D02*
X184355714Y-199977142D01*
X184355714Y-199786666D01*
X184403333Y-199691428D01*
X184450952Y-199643809D01*
X184546190Y-199596190D01*
X184831904Y-199596190D01*
X184927142Y-199643809D01*
X184974761Y-199691428D01*
X185022380Y-199786666D01*
X185022380Y-199977142D01*
X184974761Y-200072380D01*
X185117619Y-199405714D02*
X185117619Y-198643809D01*
X184498571Y-198072380D02*
X184546190Y-197929523D01*
X184593809Y-197881904D01*
X184689047Y-197834285D01*
X184831904Y-197834285D01*
X184927142Y-197881904D01*
X184974761Y-197929523D01*
X185022380Y-198024761D01*
X185022380Y-198405714D01*
X184022380Y-198405714D01*
X184022380Y-198072380D01*
X184070000Y-197977142D01*
X184117619Y-197929523D01*
X184212857Y-197881904D01*
X184308095Y-197881904D01*
X184403333Y-197929523D01*
X184450952Y-197977142D01*
X184498571Y-198072380D01*
X184498571Y-198405714D01*
X185117619Y-197643809D02*
X185117619Y-196881904D01*
X184927142Y-196072380D02*
X184974761Y-196120000D01*
X185022380Y-196262857D01*
X185022380Y-196358095D01*
X184974761Y-196500952D01*
X184879523Y-196596190D01*
X184784285Y-196643809D01*
X184593809Y-196691428D01*
X184450952Y-196691428D01*
X184260476Y-196643809D01*
X184165238Y-196596190D01*
X184070000Y-196500952D01*
X184022380Y-196358095D01*
X184022380Y-196262857D01*
X184070000Y-196120000D01*
X184117619Y-196072380D01*
X184022380Y-195739047D02*
X184022380Y-195120000D01*
X184403333Y-195453333D01*
X184403333Y-195310476D01*
X184450952Y-195215238D01*
X184498571Y-195167619D01*
X184593809Y-195120000D01*
X184831904Y-195120000D01*
X184927142Y-195167619D01*
X184974761Y-195215238D01*
X185022380Y-195310476D01*
X185022380Y-195596190D01*
X184974761Y-195691428D01*
X184927142Y-195739047D01*
%TO.C,Bb_B_C2*%
X184498571Y-124539047D02*
X184546190Y-124396190D01*
X184593809Y-124348571D01*
X184689047Y-124300952D01*
X184831904Y-124300952D01*
X184927142Y-124348571D01*
X184974761Y-124396190D01*
X185022380Y-124491428D01*
X185022380Y-124872380D01*
X184022380Y-124872380D01*
X184022380Y-124539047D01*
X184070000Y-124443809D01*
X184117619Y-124396190D01*
X184212857Y-124348571D01*
X184308095Y-124348571D01*
X184403333Y-124396190D01*
X184450952Y-124443809D01*
X184498571Y-124539047D01*
X184498571Y-124872380D01*
X185022380Y-123872380D02*
X184022380Y-123872380D01*
X184403333Y-123872380D02*
X184355714Y-123777142D01*
X184355714Y-123586666D01*
X184403333Y-123491428D01*
X184450952Y-123443809D01*
X184546190Y-123396190D01*
X184831904Y-123396190D01*
X184927142Y-123443809D01*
X184974761Y-123491428D01*
X185022380Y-123586666D01*
X185022380Y-123777142D01*
X184974761Y-123872380D01*
X185117619Y-123205714D02*
X185117619Y-122443809D01*
X184498571Y-121872380D02*
X184546190Y-121729523D01*
X184593809Y-121681904D01*
X184689047Y-121634285D01*
X184831904Y-121634285D01*
X184927142Y-121681904D01*
X184974761Y-121729523D01*
X185022380Y-121824761D01*
X185022380Y-122205714D01*
X184022380Y-122205714D01*
X184022380Y-121872380D01*
X184070000Y-121777142D01*
X184117619Y-121729523D01*
X184212857Y-121681904D01*
X184308095Y-121681904D01*
X184403333Y-121729523D01*
X184450952Y-121777142D01*
X184498571Y-121872380D01*
X184498571Y-122205714D01*
X185117619Y-121443809D02*
X185117619Y-120681904D01*
X184927142Y-119872380D02*
X184974761Y-119920000D01*
X185022380Y-120062857D01*
X185022380Y-120158095D01*
X184974761Y-120300952D01*
X184879523Y-120396190D01*
X184784285Y-120443809D01*
X184593809Y-120491428D01*
X184450952Y-120491428D01*
X184260476Y-120443809D01*
X184165238Y-120396190D01*
X184070000Y-120300952D01*
X184022380Y-120158095D01*
X184022380Y-120062857D01*
X184070000Y-119920000D01*
X184117619Y-119872380D01*
X184117619Y-119491428D02*
X184070000Y-119443809D01*
X184022380Y-119348571D01*
X184022380Y-119110476D01*
X184070000Y-119015238D01*
X184117619Y-118967619D01*
X184212857Y-118920000D01*
X184308095Y-118920000D01*
X184450952Y-118967619D01*
X185022380Y-119539047D01*
X185022380Y-118920000D01*
%TO.C,Bb_B_C1*%
X184498571Y-48339047D02*
X184546190Y-48196190D01*
X184593809Y-48148571D01*
X184689047Y-48100952D01*
X184831904Y-48100952D01*
X184927142Y-48148571D01*
X184974761Y-48196190D01*
X185022380Y-48291428D01*
X185022380Y-48672380D01*
X184022380Y-48672380D01*
X184022380Y-48339047D01*
X184070000Y-48243809D01*
X184117619Y-48196190D01*
X184212857Y-48148571D01*
X184308095Y-48148571D01*
X184403333Y-48196190D01*
X184450952Y-48243809D01*
X184498571Y-48339047D01*
X184498571Y-48672380D01*
X185022380Y-47672380D02*
X184022380Y-47672380D01*
X184403333Y-47672380D02*
X184355714Y-47577142D01*
X184355714Y-47386666D01*
X184403333Y-47291428D01*
X184450952Y-47243809D01*
X184546190Y-47196190D01*
X184831904Y-47196190D01*
X184927142Y-47243809D01*
X184974761Y-47291428D01*
X185022380Y-47386666D01*
X185022380Y-47577142D01*
X184974761Y-47672380D01*
X185117619Y-47005714D02*
X185117619Y-46243809D01*
X184498571Y-45672380D02*
X184546190Y-45529523D01*
X184593809Y-45481904D01*
X184689047Y-45434285D01*
X184831904Y-45434285D01*
X184927142Y-45481904D01*
X184974761Y-45529523D01*
X185022380Y-45624761D01*
X185022380Y-46005714D01*
X184022380Y-46005714D01*
X184022380Y-45672380D01*
X184070000Y-45577142D01*
X184117619Y-45529523D01*
X184212857Y-45481904D01*
X184308095Y-45481904D01*
X184403333Y-45529523D01*
X184450952Y-45577142D01*
X184498571Y-45672380D01*
X184498571Y-46005714D01*
X185117619Y-45243809D02*
X185117619Y-44481904D01*
X184927142Y-43672380D02*
X184974761Y-43720000D01*
X185022380Y-43862857D01*
X185022380Y-43958095D01*
X184974761Y-44100952D01*
X184879523Y-44196190D01*
X184784285Y-44243809D01*
X184593809Y-44291428D01*
X184450952Y-44291428D01*
X184260476Y-44243809D01*
X184165238Y-44196190D01*
X184070000Y-44100952D01*
X184022380Y-43958095D01*
X184022380Y-43862857D01*
X184070000Y-43720000D01*
X184117619Y-43672380D01*
X185022380Y-42720000D02*
X185022380Y-43291428D01*
X185022380Y-43005714D02*
X184022380Y-43005714D01*
X184165238Y-43100952D01*
X184260476Y-43196190D01*
X184308095Y-43291428D01*
%TO.C,H4*%
X180848095Y-284542380D02*
X180848095Y-283542380D01*
X180848095Y-284018571D02*
X181419523Y-284018571D01*
X181419523Y-284542380D02*
X181419523Y-283542380D01*
X182324285Y-283875714D02*
X182324285Y-284542380D01*
X182086190Y-283494761D02*
X181848095Y-284209047D01*
X182467142Y-284209047D01*
%TO.C,H3*%
X251968095Y-31812380D02*
X251968095Y-30812380D01*
X251968095Y-31288571D02*
X252539523Y-31288571D01*
X252539523Y-31812380D02*
X252539523Y-30812380D01*
X252920476Y-30812380D02*
X253539523Y-30812380D01*
X253206190Y-31193333D01*
X253349047Y-31193333D01*
X253444285Y-31240952D01*
X253491904Y-31288571D01*
X253539523Y-31383809D01*
X253539523Y-31621904D01*
X253491904Y-31717142D01*
X253444285Y-31764761D01*
X253349047Y-31812380D01*
X253063333Y-31812380D01*
X252968095Y-31764761D01*
X252920476Y-31717142D01*
%TO.C,H2*%
X245618095Y-116902380D02*
X245618095Y-115902380D01*
X245618095Y-116378571D02*
X246189523Y-116378571D01*
X246189523Y-116902380D02*
X246189523Y-115902380D01*
X246618095Y-115997619D02*
X246665714Y-115950000D01*
X246760952Y-115902380D01*
X246999047Y-115902380D01*
X247094285Y-115950000D01*
X247141904Y-115997619D01*
X247189523Y-116092857D01*
X247189523Y-116188095D01*
X247141904Y-116330952D01*
X246570476Y-116902380D01*
X247189523Y-116902380D01*
%TO.C,H1*%
X193548095Y-172782380D02*
X193548095Y-171782380D01*
X193548095Y-172258571D02*
X194119523Y-172258571D01*
X194119523Y-172782380D02*
X194119523Y-171782380D01*
X195119523Y-172782380D02*
X194548095Y-172782380D01*
X194833809Y-172782380D02*
X194833809Y-171782380D01*
X194738571Y-171925238D01*
X194643333Y-172020476D01*
X194548095Y-172068095D01*
%TO.C,D17*%
X208662380Y-109164285D02*
X207662380Y-109164285D01*
X207662380Y-108926190D01*
X207710000Y-108783333D01*
X207805238Y-108688095D01*
X207900476Y-108640476D01*
X208090952Y-108592857D01*
X208233809Y-108592857D01*
X208424285Y-108640476D01*
X208519523Y-108688095D01*
X208614761Y-108783333D01*
X208662380Y-108926190D01*
X208662380Y-109164285D01*
X208662380Y-107640476D02*
X208662380Y-108211904D01*
X208662380Y-107926190D02*
X207662380Y-107926190D01*
X207805238Y-108021428D01*
X207900476Y-108116666D01*
X207948095Y-108211904D01*
X207662380Y-107307142D02*
X207662380Y-106640476D01*
X208662380Y-107069047D01*
%TO.C,D16*%
X212472380Y-109164285D02*
X211472380Y-109164285D01*
X211472380Y-108926190D01*
X211520000Y-108783333D01*
X211615238Y-108688095D01*
X211710476Y-108640476D01*
X211900952Y-108592857D01*
X212043809Y-108592857D01*
X212234285Y-108640476D01*
X212329523Y-108688095D01*
X212424761Y-108783333D01*
X212472380Y-108926190D01*
X212472380Y-109164285D01*
X212472380Y-107640476D02*
X212472380Y-108211904D01*
X212472380Y-107926190D02*
X211472380Y-107926190D01*
X211615238Y-108021428D01*
X211710476Y-108116666D01*
X211758095Y-108211904D01*
X211472380Y-106783333D02*
X211472380Y-106973809D01*
X211520000Y-107069047D01*
X211567619Y-107116666D01*
X211710476Y-107211904D01*
X211900952Y-107259523D01*
X212281904Y-107259523D01*
X212377142Y-107211904D01*
X212424761Y-107164285D01*
X212472380Y-107069047D01*
X212472380Y-106878571D01*
X212424761Y-106783333D01*
X212377142Y-106735714D01*
X212281904Y-106688095D01*
X212043809Y-106688095D01*
X211948571Y-106735714D01*
X211900952Y-106783333D01*
X211853333Y-106878571D01*
X211853333Y-107069047D01*
X211900952Y-107164285D01*
X211948571Y-107211904D01*
X212043809Y-107259523D01*
%TO.C,D15*%
X216282380Y-109164285D02*
X215282380Y-109164285D01*
X215282380Y-108926190D01*
X215330000Y-108783333D01*
X215425238Y-108688095D01*
X215520476Y-108640476D01*
X215710952Y-108592857D01*
X215853809Y-108592857D01*
X216044285Y-108640476D01*
X216139523Y-108688095D01*
X216234761Y-108783333D01*
X216282380Y-108926190D01*
X216282380Y-109164285D01*
X216282380Y-107640476D02*
X216282380Y-108211904D01*
X216282380Y-107926190D02*
X215282380Y-107926190D01*
X215425238Y-108021428D01*
X215520476Y-108116666D01*
X215568095Y-108211904D01*
X215282380Y-106735714D02*
X215282380Y-107211904D01*
X215758571Y-107259523D01*
X215710952Y-107211904D01*
X215663333Y-107116666D01*
X215663333Y-106878571D01*
X215710952Y-106783333D01*
X215758571Y-106735714D01*
X215853809Y-106688095D01*
X216091904Y-106688095D01*
X216187142Y-106735714D01*
X216234761Y-106783333D01*
X216282380Y-106878571D01*
X216282380Y-107116666D01*
X216234761Y-107211904D01*
X216187142Y-107259523D01*
%TO.C,D14*%
X220092380Y-109164285D02*
X219092380Y-109164285D01*
X219092380Y-108926190D01*
X219140000Y-108783333D01*
X219235238Y-108688095D01*
X219330476Y-108640476D01*
X219520952Y-108592857D01*
X219663809Y-108592857D01*
X219854285Y-108640476D01*
X219949523Y-108688095D01*
X220044761Y-108783333D01*
X220092380Y-108926190D01*
X220092380Y-109164285D01*
X220092380Y-107640476D02*
X220092380Y-108211904D01*
X220092380Y-107926190D02*
X219092380Y-107926190D01*
X219235238Y-108021428D01*
X219330476Y-108116666D01*
X219378095Y-108211904D01*
X219425714Y-106783333D02*
X220092380Y-106783333D01*
X219044761Y-107021428D02*
X219759047Y-107259523D01*
X219759047Y-106640476D01*
%TO.C,D13*%
X223902380Y-109164285D02*
X222902380Y-109164285D01*
X222902380Y-108926190D01*
X222950000Y-108783333D01*
X223045238Y-108688095D01*
X223140476Y-108640476D01*
X223330952Y-108592857D01*
X223473809Y-108592857D01*
X223664285Y-108640476D01*
X223759523Y-108688095D01*
X223854761Y-108783333D01*
X223902380Y-108926190D01*
X223902380Y-109164285D01*
X223902380Y-107640476D02*
X223902380Y-108211904D01*
X223902380Y-107926190D02*
X222902380Y-107926190D01*
X223045238Y-108021428D01*
X223140476Y-108116666D01*
X223188095Y-108211904D01*
X222902380Y-107307142D02*
X222902380Y-106688095D01*
X223283333Y-107021428D01*
X223283333Y-106878571D01*
X223330952Y-106783333D01*
X223378571Y-106735714D01*
X223473809Y-106688095D01*
X223711904Y-106688095D01*
X223807142Y-106735714D01*
X223854761Y-106783333D01*
X223902380Y-106878571D01*
X223902380Y-107164285D01*
X223854761Y-107259523D01*
X223807142Y-107307142D01*
%TO.C,D12*%
X227712380Y-109164285D02*
X226712380Y-109164285D01*
X226712380Y-108926190D01*
X226760000Y-108783333D01*
X226855238Y-108688095D01*
X226950476Y-108640476D01*
X227140952Y-108592857D01*
X227283809Y-108592857D01*
X227474285Y-108640476D01*
X227569523Y-108688095D01*
X227664761Y-108783333D01*
X227712380Y-108926190D01*
X227712380Y-109164285D01*
X227712380Y-107640476D02*
X227712380Y-108211904D01*
X227712380Y-107926190D02*
X226712380Y-107926190D01*
X226855238Y-108021428D01*
X226950476Y-108116666D01*
X226998095Y-108211904D01*
X226807619Y-107259523D02*
X226760000Y-107211904D01*
X226712380Y-107116666D01*
X226712380Y-106878571D01*
X226760000Y-106783333D01*
X226807619Y-106735714D01*
X226902857Y-106688095D01*
X226998095Y-106688095D01*
X227140952Y-106735714D01*
X227712380Y-107307142D01*
X227712380Y-106688095D01*
%TO.C,D11*%
X231522380Y-109164285D02*
X230522380Y-109164285D01*
X230522380Y-108926190D01*
X230570000Y-108783333D01*
X230665238Y-108688095D01*
X230760476Y-108640476D01*
X230950952Y-108592857D01*
X231093809Y-108592857D01*
X231284285Y-108640476D01*
X231379523Y-108688095D01*
X231474761Y-108783333D01*
X231522380Y-108926190D01*
X231522380Y-109164285D01*
X231522380Y-107640476D02*
X231522380Y-108211904D01*
X231522380Y-107926190D02*
X230522380Y-107926190D01*
X230665238Y-108021428D01*
X230760476Y-108116666D01*
X230808095Y-108211904D01*
X231522380Y-106688095D02*
X231522380Y-107259523D01*
X231522380Y-106973809D02*
X230522380Y-106973809D01*
X230665238Y-107069047D01*
X230760476Y-107164285D01*
X230808095Y-107259523D01*
%TO.C,D10*%
X235332380Y-109164285D02*
X234332380Y-109164285D01*
X234332380Y-108926190D01*
X234380000Y-108783333D01*
X234475238Y-108688095D01*
X234570476Y-108640476D01*
X234760952Y-108592857D01*
X234903809Y-108592857D01*
X235094285Y-108640476D01*
X235189523Y-108688095D01*
X235284761Y-108783333D01*
X235332380Y-108926190D01*
X235332380Y-109164285D01*
X235332380Y-107640476D02*
X235332380Y-108211904D01*
X235332380Y-107926190D02*
X234332380Y-107926190D01*
X234475238Y-108021428D01*
X234570476Y-108116666D01*
X234618095Y-108211904D01*
X234332380Y-107021428D02*
X234332380Y-106926190D01*
X234380000Y-106830952D01*
X234427619Y-106783333D01*
X234522857Y-106735714D01*
X234713333Y-106688095D01*
X234951428Y-106688095D01*
X235141904Y-106735714D01*
X235237142Y-106783333D01*
X235284761Y-106830952D01*
X235332380Y-106926190D01*
X235332380Y-107021428D01*
X235284761Y-107116666D01*
X235237142Y-107164285D01*
X235141904Y-107211904D01*
X234951428Y-107259523D01*
X234713333Y-107259523D01*
X234522857Y-107211904D01*
X234427619Y-107164285D01*
X234380000Y-107116666D01*
X234332380Y-107021428D01*
%TO.C,D9*%
X208662380Y-118848095D02*
X207662380Y-118848095D01*
X207662380Y-118610000D01*
X207710000Y-118467142D01*
X207805238Y-118371904D01*
X207900476Y-118324285D01*
X208090952Y-118276666D01*
X208233809Y-118276666D01*
X208424285Y-118324285D01*
X208519523Y-118371904D01*
X208614761Y-118467142D01*
X208662380Y-118610000D01*
X208662380Y-118848095D01*
X208662380Y-117800476D02*
X208662380Y-117610000D01*
X208614761Y-117514761D01*
X208567142Y-117467142D01*
X208424285Y-117371904D01*
X208233809Y-117324285D01*
X207852857Y-117324285D01*
X207757619Y-117371904D01*
X207710000Y-117419523D01*
X207662380Y-117514761D01*
X207662380Y-117705238D01*
X207710000Y-117800476D01*
X207757619Y-117848095D01*
X207852857Y-117895714D01*
X208090952Y-117895714D01*
X208186190Y-117848095D01*
X208233809Y-117800476D01*
X208281428Y-117705238D01*
X208281428Y-117514761D01*
X208233809Y-117419523D01*
X208186190Y-117371904D01*
X208090952Y-117324285D01*
%TO.C,D6*%
X216282380Y-118848095D02*
X215282380Y-118848095D01*
X215282380Y-118610000D01*
X215330000Y-118467142D01*
X215425238Y-118371904D01*
X215520476Y-118324285D01*
X215710952Y-118276666D01*
X215853809Y-118276666D01*
X216044285Y-118324285D01*
X216139523Y-118371904D01*
X216234761Y-118467142D01*
X216282380Y-118610000D01*
X216282380Y-118848095D01*
X215282380Y-117419523D02*
X215282380Y-117610000D01*
X215330000Y-117705238D01*
X215377619Y-117752857D01*
X215520476Y-117848095D01*
X215710952Y-117895714D01*
X216091904Y-117895714D01*
X216187142Y-117848095D01*
X216234761Y-117800476D01*
X216282380Y-117705238D01*
X216282380Y-117514761D01*
X216234761Y-117419523D01*
X216187142Y-117371904D01*
X216091904Y-117324285D01*
X215853809Y-117324285D01*
X215758571Y-117371904D01*
X215710952Y-117419523D01*
X215663333Y-117514761D01*
X215663333Y-117705238D01*
X215710952Y-117800476D01*
X215758571Y-117848095D01*
X215853809Y-117895714D01*
%TO.C,D5*%
X220092380Y-118848095D02*
X219092380Y-118848095D01*
X219092380Y-118610000D01*
X219140000Y-118467142D01*
X219235238Y-118371904D01*
X219330476Y-118324285D01*
X219520952Y-118276666D01*
X219663809Y-118276666D01*
X219854285Y-118324285D01*
X219949523Y-118371904D01*
X220044761Y-118467142D01*
X220092380Y-118610000D01*
X220092380Y-118848095D01*
X219092380Y-117371904D02*
X219092380Y-117848095D01*
X219568571Y-117895714D01*
X219520952Y-117848095D01*
X219473333Y-117752857D01*
X219473333Y-117514761D01*
X219520952Y-117419523D01*
X219568571Y-117371904D01*
X219663809Y-117324285D01*
X219901904Y-117324285D01*
X219997142Y-117371904D01*
X220044761Y-117419523D01*
X220092380Y-117514761D01*
X220092380Y-117752857D01*
X220044761Y-117848095D01*
X219997142Y-117895714D01*
%TO.C,D4*%
X223902380Y-118848095D02*
X222902380Y-118848095D01*
X222902380Y-118610000D01*
X222950000Y-118467142D01*
X223045238Y-118371904D01*
X223140476Y-118324285D01*
X223330952Y-118276666D01*
X223473809Y-118276666D01*
X223664285Y-118324285D01*
X223759523Y-118371904D01*
X223854761Y-118467142D01*
X223902380Y-118610000D01*
X223902380Y-118848095D01*
X223235714Y-117419523D02*
X223902380Y-117419523D01*
X222854761Y-117657619D02*
X223569047Y-117895714D01*
X223569047Y-117276666D01*
%TO.C,D3*%
X227712380Y-118848095D02*
X226712380Y-118848095D01*
X226712380Y-118610000D01*
X226760000Y-118467142D01*
X226855238Y-118371904D01*
X226950476Y-118324285D01*
X227140952Y-118276666D01*
X227283809Y-118276666D01*
X227474285Y-118324285D01*
X227569523Y-118371904D01*
X227664761Y-118467142D01*
X227712380Y-118610000D01*
X227712380Y-118848095D01*
X226712380Y-117943333D02*
X226712380Y-117324285D01*
X227093333Y-117657619D01*
X227093333Y-117514761D01*
X227140952Y-117419523D01*
X227188571Y-117371904D01*
X227283809Y-117324285D01*
X227521904Y-117324285D01*
X227617142Y-117371904D01*
X227664761Y-117419523D01*
X227712380Y-117514761D01*
X227712380Y-117800476D01*
X227664761Y-117895714D01*
X227617142Y-117943333D01*
%TO.C,D2*%
X231522380Y-118848095D02*
X230522380Y-118848095D01*
X230522380Y-118610000D01*
X230570000Y-118467142D01*
X230665238Y-118371904D01*
X230760476Y-118324285D01*
X230950952Y-118276666D01*
X231093809Y-118276666D01*
X231284285Y-118324285D01*
X231379523Y-118371904D01*
X231474761Y-118467142D01*
X231522380Y-118610000D01*
X231522380Y-118848095D01*
X230617619Y-117895714D02*
X230570000Y-117848095D01*
X230522380Y-117752857D01*
X230522380Y-117514761D01*
X230570000Y-117419523D01*
X230617619Y-117371904D01*
X230712857Y-117324285D01*
X230808095Y-117324285D01*
X230950952Y-117371904D01*
X231522380Y-117943333D01*
X231522380Y-117324285D01*
%TO.C,D1*%
X235332380Y-118848095D02*
X234332380Y-118848095D01*
X234332380Y-118610000D01*
X234380000Y-118467142D01*
X234475238Y-118371904D01*
X234570476Y-118324285D01*
X234760952Y-118276666D01*
X234903809Y-118276666D01*
X235094285Y-118324285D01*
X235189523Y-118371904D01*
X235284761Y-118467142D01*
X235332380Y-118610000D01*
X235332380Y-118848095D01*
X235332380Y-117324285D02*
X235332380Y-117895714D01*
X235332380Y-117610000D02*
X234332380Y-117610000D01*
X234475238Y-117705238D01*
X234570476Y-117800476D01*
X234618095Y-117895714D01*
%TO.C,A1*%
X252015714Y-33186666D02*
X252491904Y-33186666D01*
X251920476Y-33472380D02*
X252253809Y-32472380D01*
X252587142Y-33472380D01*
X253444285Y-33472380D02*
X252872857Y-33472380D01*
X253158571Y-33472380D02*
X253158571Y-32472380D01*
X253063333Y-32615238D01*
X252968095Y-32710476D01*
X252872857Y-32758095D01*
%TO.C,keypad1*%
X236672380Y-61229523D02*
X235672380Y-61229523D01*
X236291428Y-61134285D02*
X236672380Y-60848571D01*
X236005714Y-60848571D02*
X236386666Y-61229523D01*
X236624761Y-60039047D02*
X236672380Y-60134285D01*
X236672380Y-60324761D01*
X236624761Y-60420000D01*
X236529523Y-60467619D01*
X236148571Y-60467619D01*
X236053333Y-60420000D01*
X236005714Y-60324761D01*
X236005714Y-60134285D01*
X236053333Y-60039047D01*
X236148571Y-59991428D01*
X236243809Y-59991428D01*
X236339047Y-60467619D01*
X236005714Y-59658095D02*
X236672380Y-59420000D01*
X236005714Y-59181904D02*
X236672380Y-59420000D01*
X236910476Y-59515238D01*
X236958095Y-59562857D01*
X237005714Y-59658095D01*
X236005714Y-58800952D02*
X237005714Y-58800952D01*
X236053333Y-58800952D02*
X236005714Y-58705714D01*
X236005714Y-58515238D01*
X236053333Y-58420000D01*
X236100952Y-58372380D01*
X236196190Y-58324761D01*
X236481904Y-58324761D01*
X236577142Y-58372380D01*
X236624761Y-58420000D01*
X236672380Y-58515238D01*
X236672380Y-58705714D01*
X236624761Y-58800952D01*
X236672380Y-57467619D02*
X236148571Y-57467619D01*
X236053333Y-57515238D01*
X236005714Y-57610476D01*
X236005714Y-57800952D01*
X236053333Y-57896190D01*
X236624761Y-57467619D02*
X236672380Y-57562857D01*
X236672380Y-57800952D01*
X236624761Y-57896190D01*
X236529523Y-57943809D01*
X236434285Y-57943809D01*
X236339047Y-57896190D01*
X236291428Y-57800952D01*
X236291428Y-57562857D01*
X236243809Y-57467619D01*
X236672380Y-56562857D02*
X235672380Y-56562857D01*
X236624761Y-56562857D02*
X236672380Y-56658095D01*
X236672380Y-56848571D01*
X236624761Y-56943809D01*
X236577142Y-56991428D01*
X236481904Y-57039047D01*
X236196190Y-57039047D01*
X236100952Y-56991428D01*
X236053333Y-56943809D01*
X236005714Y-56848571D01*
X236005714Y-56658095D01*
X236053333Y-56562857D01*
X236672380Y-55562857D02*
X236672380Y-56134285D01*
X236672380Y-55848571D02*
X235672380Y-55848571D01*
X235815238Y-55943809D01*
X235910476Y-56039047D01*
X235958095Y-56134285D01*
%TO.C,U1*%
X255778095Y-103802380D02*
X255778095Y-104611904D01*
X255825714Y-104707142D01*
X255873333Y-104754761D01*
X255968571Y-104802380D01*
X256159047Y-104802380D01*
X256254285Y-104754761D01*
X256301904Y-104707142D01*
X256349523Y-104611904D01*
X256349523Y-103802380D01*
X257349523Y-104802380D02*
X256778095Y-104802380D01*
X257063809Y-104802380D02*
X257063809Y-103802380D01*
X256968571Y-103945238D01*
X256873333Y-104040476D01*
X256778095Y-104088095D01*
%TD*%
M02*
