M48
; DRILL file {KiCad (5.1.6-0-10_14)} date Saturday, September 12, 2020 at 09:29:38 PM
; FORMAT={-:-/ absolute / inch / decimal}
; #@! TF.CreationDate,2020-09-12T21:29:38-04:00
; #@! TF.GenerationSoftware,Kicad,Pcbnew,(5.1.6-0-10_14)
FMAT,2
INCH
T1C0.0157
T2C0.0276
T3C0.0315
T4C0.0354
T5C0.0394
T6C0.0591
T7C0.1260
%
G90
G05
T1
X-0.6Y-1.65
X0.0Y-7.975
X0.1Y-7.925
X0.5904Y-5.8404
T2
X0.08Y-2.45
X0.28Y-2.45
X0.08Y-3.55
X0.28Y-3.55
X0.38Y-2.45
X0.58Y-2.45
X0.38Y-3.55
X0.58Y-3.55
X0.025Y-8.875
X0.225Y-8.875
X0.025Y-10.0
X0.225Y-10.0
X0.325Y-8.875
X0.525Y-8.875
X0.325Y-10.0
X0.525Y-10.0
X0.025Y-9.425
X0.225Y-9.425
X0.025Y-10.575
X0.225Y-10.575
X0.325Y-9.425
X0.525Y-9.425
X0.325Y-10.575
X0.525Y-10.575
X0.08Y-1.9
X0.28Y-1.9
X0.38Y-1.9
X0.58Y-1.9
X0.08Y-3.0
X0.28Y-3.0
X0.38Y-3.0
X0.58Y-3.0
T3
X0.225Y-6.025
X0.225Y-6.125
X0.225Y-6.225
X0.225Y-6.325
X0.225Y-6.425
X0.225Y-6.525
X0.225Y-6.625
X0.225Y-6.725
X0.525Y-6.025
X0.525Y-6.125
X0.525Y-6.225
X0.525Y-6.325
X0.525Y-6.425
X0.525Y-6.525
X0.525Y-6.625
X0.525Y-6.725
X0.225Y-7.6
X0.225Y-7.7
X0.225Y-7.8
X0.225Y-7.9
X0.225Y-8.0
X0.225Y-8.1
X0.225Y-8.2
X0.225Y-8.3
X0.525Y-7.6
X0.525Y-7.7
X0.525Y-7.8
X0.525Y-7.9
X0.525Y-8.0
X0.525Y-8.1
X0.525Y-8.2
X0.525Y-8.3
T4
X0.1Y-4.95
X0.3Y-4.95
X0.1Y-3.95
X0.3Y-3.95
X-0.3Y-8.95
X-0.1Y-8.95
X0.1Y-5.35
X0.3Y-5.35
X-0.3Y-9.15
X-0.1Y-9.15
X0.1Y-4.55
X0.3Y-4.55
X0.475Y-3.75
X0.475Y-3.95
X0.1Y-4.75
X0.3Y-4.75
X0.1Y-3.75
X0.3Y-3.75
X0.1Y-5.75
X0.3Y-5.75
X-0.3Y-9.575
X-0.1Y-9.575
X0.1Y-4.15
X0.3Y-4.15
X0.1Y-4.35
X0.3Y-4.35
X0.1Y-5.15
X0.3Y-5.15
X0.1Y-5.55
X0.3Y-5.55
X-0.3Y-9.375
X-0.1Y-9.375
T5
X-0.65Y-9.775
X-0.65Y-9.875
X-0.55Y-9.775
X-0.55Y-9.875
X-0.45Y-9.775
X-0.45Y-9.875
X0.1Y-0.525
X0.1Y-0.625
X0.1Y-0.725
X0.1Y-0.825
X0.1Y-0.925
X0.1Y-1.025
X0.1Y-1.125
X0.1Y-1.225
X-0.3Y-9.775
X-0.3Y-9.875
X-0.2Y-9.775
X-0.2Y-9.875
X0.075Y-6.125
X0.075Y-6.225
X0.075Y-6.325
X0.075Y-6.425
X0.075Y-6.525
X0.075Y-6.625
X0.075Y-6.725
X0.075Y-6.825
X0.075Y-6.925
X0.075Y-7.025
X0.075Y-7.125
X0.075Y-7.225
X0.075Y-7.325
X0.075Y-7.425
X0.075Y-7.525
X0.675Y-6.125
X0.675Y-6.225
X0.675Y-6.325
X0.675Y-6.425
X0.675Y-6.525
X0.675Y-6.625
X0.675Y-6.725
X0.675Y-6.825
X0.675Y-6.925
X0.675Y-7.025
X0.675Y-7.125
X0.675Y-7.225
X0.675Y-7.325
X0.675Y-7.425
X0.675Y-7.525
T6
X-0.3Y-5.3563
X-0.3Y-5.5531
X-0.3Y-5.75
X-0.3Y-6.5563
X-0.3Y-6.7531
X-0.3Y-6.95
X-0.3Y-4.7563
X-0.3Y-4.9531
X-0.3Y-5.15
X-0.3Y-1.1563
X-0.3Y-1.3531
X-0.3Y-1.55
X-0.3Y-1.7563
X-0.3Y-1.9531
X-0.3Y-2.15
X-0.3Y-7.7563
X-0.3Y-7.9531
X-0.3Y-8.15
X-0.625Y-9.3781
X-0.625Y-9.575
X-0.3Y-8.3563
X-0.3Y-8.5531
X-0.3Y-8.75
X-0.3Y-3.5563
X-0.3Y-3.7531
X-0.3Y-3.95
X-0.625Y-8.9531
X-0.625Y-9.15
X-0.3Y-2.3563
X-0.3Y-2.5531
X-0.3Y-2.75
X-0.3Y-7.1563
X-0.3Y-7.3531
X-0.3Y-7.55
X-0.3Y-4.15
X-0.3Y-4.3469
X-0.3Y-4.5437
X-0.3Y-0.5563
X-0.3Y-0.7531
X-0.3Y-0.95
T7
X0.6Y-0.55
X-0.5Y-6.175
X-0.575Y-10.5
X0.5Y-5.6
T0
M30
