%TF.GenerationSoftware,KiCad,Pcbnew,(5.1.6-0-10_14)*%
%TF.CreationDate,2020-09-12T21:29:34-04:00*%
%TF.ProjectId,smart-o-harp,736d6172-742d-46f2-9d68-6172702e6b69,rev?*%
%TF.SameCoordinates,Original*%
%TF.FileFunction,Copper,L2,Bot*%
%TF.FilePolarity,Positive*%
%FSLAX46Y46*%
G04 Gerber Fmt 4.6, Leading zero omitted, Abs format (unit mm)*
G04 Created by KiCad (PCBNEW (5.1.6-0-10_14)) date 2020-09-12 21:29:34*
%MOMM*%
%LPD*%
G01*
G04 APERTURE LIST*
%TA.AperFunction,ComponentPad*%
%ADD10R,1.700000X1.700000*%
%TD*%
%TA.AperFunction,ComponentPad*%
%ADD11O,1.700000X1.700000*%
%TD*%
%TA.AperFunction,ComponentPad*%
%ADD12O,1.400000X1.400000*%
%TD*%
%TA.AperFunction,ComponentPad*%
%ADD13C,1.400000*%
%TD*%
%TA.AperFunction,ComponentPad*%
%ADD14C,3.000000*%
%TD*%
%TA.AperFunction,ComponentPad*%
%ADD15R,3.000000X3.000000*%
%TD*%
%TA.AperFunction,ComponentPad*%
%ADD16O,1.800000X1.800000*%
%TD*%
%TA.AperFunction,ComponentPad*%
%ADD17R,1.800000X1.800000*%
%TD*%
%TA.AperFunction,ComponentPad*%
%ADD18R,1.600000X1.600000*%
%TD*%
%TA.AperFunction,ComponentPad*%
%ADD19O,1.600000X1.600000*%
%TD*%
%TA.AperFunction,ViaPad*%
%ADD20C,0.800000*%
%TD*%
%TA.AperFunction,Conductor*%
%ADD21C,0.250000*%
%TD*%
%TA.AperFunction,Conductor*%
%ADD22C,0.800000*%
%TD*%
G04 APERTURE END LIST*
D10*
%TO.P,keypad1,1*%
%TO.N,Net-(A1-Pad12)*%
X2540000Y-13335000D03*
D11*
%TO.P,keypad1,2*%
%TO.N,Net-(A1-Pad11)*%
X2540000Y-15875000D03*
%TO.P,keypad1,3*%
%TO.N,Net-(A1-Pad10)*%
X2540000Y-18415000D03*
%TO.P,keypad1,4*%
%TO.N,Net-(A1-Pad9)*%
X2540000Y-20955000D03*
%TO.P,keypad1,5*%
%TO.N,Net-(A1-Pad8)*%
X2540000Y-23495000D03*
%TO.P,keypad1,6*%
%TO.N,Net-(A1-Pad7)*%
X2540000Y-26035000D03*
%TO.P,keypad1,7*%
%TO.N,Net-(A1-Pad6)*%
X2540000Y-28575000D03*
%TO.P,keypad1,8*%
%TO.N,Net-(A1-Pad5)*%
X2540000Y-31115000D03*
%TD*%
D12*
%TO.P,R16,2*%
%TO.N,Net-(R16-Pad2)*%
X7112000Y-48260000D03*
D13*
%TO.P,R16,1*%
%TO.N,Net-(Q16-Pad1)*%
X2032000Y-48260000D03*
%TD*%
D12*
%TO.P,R15,2*%
%TO.N,Net-(R15-Pad2)*%
X14732000Y-48260000D03*
D13*
%TO.P,R15,1*%
%TO.N,Net-(Q15-Pad1)*%
X9652000Y-48260000D03*
%TD*%
D12*
%TO.P,R14,2*%
%TO.N,Net-(R14-Pad2)*%
X7112000Y-62230000D03*
D13*
%TO.P,R14,1*%
%TO.N,Net-(Q14-Pad1)*%
X2032000Y-62230000D03*
%TD*%
D12*
%TO.P,R13,2*%
%TO.N,Net-(R13-Pad2)*%
X14732000Y-62230000D03*
D13*
%TO.P,R13,1*%
%TO.N,Net-(Q13-Pad1)*%
X9652000Y-62230000D03*
%TD*%
D12*
%TO.P,R12,2*%
%TO.N,Net-(R12-Pad2)*%
X7112000Y-76200000D03*
D13*
%TO.P,R12,1*%
%TO.N,Net-(Q12-Pad1)*%
X2032000Y-76200000D03*
%TD*%
D12*
%TO.P,R11,2*%
%TO.N,Net-(R11-Pad2)*%
X14732000Y-76200000D03*
D13*
%TO.P,R11,1*%
%TO.N,Net-(Q11-Pad1)*%
X9652000Y-76200000D03*
%TD*%
D12*
%TO.P,R10,2*%
%TO.N,Net-(R10-Pad2)*%
X7112000Y-90170000D03*
D13*
%TO.P,R10,1*%
%TO.N,Net-(Q10-Pad1)*%
X2032000Y-90170000D03*
%TD*%
D12*
%TO.P,R9,2*%
%TO.N,Net-(R9-Pad2)*%
X14732000Y-90170000D03*
D13*
%TO.P,R9,1*%
%TO.N,Net-(Q9-Pad1)*%
X9652000Y-90170000D03*
%TD*%
D12*
%TO.P,R8,2*%
%TO.N,Net-(R8-Pad2)*%
X5715000Y-225425000D03*
D13*
%TO.P,R8,1*%
%TO.N,Net-(Q8-Pad1)*%
X635000Y-225425000D03*
%TD*%
D12*
%TO.P,R7,2*%
%TO.N,Net-(R7-Pad2)*%
X13335000Y-225425000D03*
D13*
%TO.P,R7,1*%
%TO.N,Net-(Q7-Pad1)*%
X8255000Y-225425000D03*
%TD*%
D12*
%TO.P,R6,2*%
%TO.N,Net-(R6-Pad2)*%
X5715000Y-239395000D03*
D13*
%TO.P,R6,1*%
%TO.N,Net-(Q6-Pad1)*%
X635000Y-239395000D03*
%TD*%
D12*
%TO.P,R5,2*%
%TO.N,Net-(R5-Pad2)*%
X13335000Y-239395000D03*
D13*
%TO.P,R5,1*%
%TO.N,Net-(Q5-Pad1)*%
X8255000Y-239395000D03*
%TD*%
D12*
%TO.P,R4,2*%
%TO.N,Net-(R4-Pad2)*%
X5715000Y-254000000D03*
D13*
%TO.P,R4,1*%
%TO.N,Net-(Q4-Pad1)*%
X635000Y-254000000D03*
%TD*%
D12*
%TO.P,R3,2*%
%TO.N,Net-(R3-Pad2)*%
X13335000Y-254000000D03*
D13*
%TO.P,R3,1*%
%TO.N,Net-(Q3-Pad1)*%
X8255000Y-254000000D03*
%TD*%
D12*
%TO.P,R2,2*%
%TO.N,Net-(R2-Pad2)*%
X5715000Y-268605000D03*
D13*
%TO.P,R2,1*%
%TO.N,Net-(Q2-Pad1)*%
X635000Y-268605000D03*
%TD*%
D12*
%TO.P,R1,2*%
%TO.N,Net-(R1-Pad2)*%
X13335000Y-268605000D03*
D13*
%TO.P,R1,1*%
%TO.N,Net-(Q1-Pad1)*%
X8255000Y-268605000D03*
%TD*%
D14*
%TO.P,C#_D_D#2,3*%
%TO.N,Net-(C#_D_D#1-Pad3)*%
X-7620000Y-136050000D03*
%TO.P,C#_D_D#2,2*%
%TO.N,Net-(C#_D_D#1-Pad2)*%
X-7620000Y-141050000D03*
D15*
%TO.P,C#_D_D#2,1*%
%TO.N,Net-(C#_D_D#1-Pad1)*%
X-7620000Y-146050000D03*
%TD*%
D14*
%TO.P,E_F_F#1,3*%
%TO.N,Net-(D11-Pad2)*%
X-7620000Y-44610000D03*
%TO.P,E_F_F#1,2*%
%TO.N,Net-(D10-Pad2)*%
X-7620000Y-49610000D03*
D15*
%TO.P,E_F_F#1,1*%
%TO.N,Net-(D9-Pad2)*%
X-7620000Y-54610000D03*
%TD*%
D16*
%TO.P,D8,2*%
%TO.N,Net-(C#_D_D#1-Pad3)*%
X2540000Y-135890000D03*
D17*
%TO.P,D8,1*%
%TO.N,+12V*%
X7620000Y-135890000D03*
%TD*%
D18*
%TO.P,U2,1*%
%TO.N,Net-(R15-Pad2)*%
X13335000Y-170815000D03*
D19*
%TO.P,U2,9*%
%TO.N,Net-(U1-Pad14)*%
X5715000Y-153035000D03*
%TO.P,U2,2*%
%TO.N,Net-(R14-Pad2)*%
X13335000Y-168275000D03*
%TO.P,U2,10*%
%TO.N,Net-(A1-Pad27)*%
X5715000Y-155575000D03*
%TO.P,U2,3*%
%TO.N,Net-(R13-Pad2)*%
X13335000Y-165735000D03*
%TO.P,U2,11*%
%TO.N,Net-(A1-Pad15)*%
X5715000Y-158115000D03*
%TO.P,U2,4*%
%TO.N,Net-(R12-Pad2)*%
X13335000Y-163195000D03*
%TO.P,U2,12*%
%TO.N,Net-(A1-Pad16)*%
X5715000Y-160655000D03*
%TO.P,U2,5*%
%TO.N,Net-(R11-Pad2)*%
X13335000Y-160655000D03*
%TO.P,U2,13*%
%TO.N,Net-(A1-Pad13)*%
X5715000Y-163195000D03*
%TO.P,U2,6*%
%TO.N,Net-(R10-Pad2)*%
X13335000Y-158115000D03*
%TO.P,U2,14*%
%TO.N,Net-(A1-Pad14)*%
X5715000Y-165735000D03*
%TO.P,U2,7*%
%TO.N,Net-(R9-Pad2)*%
X13335000Y-155575000D03*
%TO.P,U2,15*%
%TO.N,Net-(R16-Pad2)*%
X5715000Y-168275000D03*
%TO.P,U2,8*%
%TO.N,GND*%
X13335000Y-153035000D03*
%TO.P,U2,16*%
%TO.N,Net-(A1-Pad27)*%
X5715000Y-170815000D03*
%TD*%
D14*
%TO.P,J3,2*%
%TO.N,Net-(D4-Pad2)*%
X-15875000Y-227410000D03*
D15*
%TO.P,J3,1*%
%TO.N,Net-(D3-Pad2)*%
X-15875000Y-232410000D03*
%TD*%
D14*
%TO.P,J2,2*%
%TO.N,Net-(D2-Pad2)*%
X-15875000Y-238205000D03*
D15*
%TO.P,J2,1*%
%TO.N,Net-(D1-Pad2)*%
X-15875000Y-243205000D03*
%TD*%
D14*
%TO.P,G_G#_A2,3*%
%TO.N,Net-(D14-Pad2)*%
X-7620000Y-105410000D03*
%TO.P,G_G#_A2,2*%
%TO.N,Net-(D13-Pad2)*%
X-7620000Y-110410000D03*
D15*
%TO.P,G_G#_A2,1*%
%TO.N,Net-(D12-Pad2)*%
X-7620000Y-115410000D03*
%TD*%
D14*
%TO.P,G_G#_A1,3*%
%TO.N,Net-(D14-Pad2)*%
X-7620000Y-29370000D03*
%TO.P,G_G#_A1,2*%
%TO.N,Net-(D13-Pad2)*%
X-7620000Y-34370000D03*
D15*
%TO.P,G_G#_A1,1*%
%TO.N,Net-(D12-Pad2)*%
X-7620000Y-39370000D03*
%TD*%
%TO.P,F_G_C1,1*%
%TO.N,Net-(D10-Pad2)*%
X-7620000Y-222250000D03*
D14*
%TO.P,F_G_C1,2*%
%TO.N,Net-(D12-Pad2)*%
X-7620000Y-217250000D03*
%TO.P,F_G_C1,3*%
%TO.N,Net-(Bb_B_C1-Pad3)*%
X-7620000Y-212250000D03*
%TD*%
D15*
%TO.P,F#_G_A1,1*%
%TO.N,Net-(D11-Pad2)*%
X-7620000Y-191770000D03*
D14*
%TO.P,F#_G_A1,2*%
%TO.N,Net-(D12-Pad2)*%
X-7620000Y-186770000D03*
%TO.P,F#_G_A1,3*%
%TO.N,Net-(D14-Pad2)*%
X-7620000Y-181770000D03*
%TD*%
%TO.P,E_F_F#2,3*%
%TO.N,Net-(D11-Pad2)*%
X-7620000Y-120810000D03*
%TO.P,E_F_F#2,2*%
%TO.N,Net-(D10-Pad2)*%
X-7620000Y-125810000D03*
D15*
%TO.P,E_F_F#2,1*%
%TO.N,Net-(D9-Pad2)*%
X-7620000Y-130810000D03*
%TD*%
%TO.P,D_E_F1,1*%
%TO.N,Net-(C#_D_D#1-Pad2)*%
X-7620000Y-207010000D03*
D14*
%TO.P,D_E_F1,2*%
%TO.N,Net-(D9-Pad2)*%
X-7620000Y-202010000D03*
%TO.P,D_E_F1,3*%
%TO.N,Net-(D10-Pad2)*%
X-7620000Y-197010000D03*
%TD*%
%TO.P,C#_D_D#1,3*%
%TO.N,Net-(C#_D_D#1-Pad3)*%
X-7620000Y-59850000D03*
%TO.P,C#_D_D#1,2*%
%TO.N,Net-(C#_D_D#1-Pad2)*%
X-7620000Y-64850000D03*
D15*
%TO.P,C#_D_D#1,1*%
%TO.N,Net-(C#_D_D#1-Pad1)*%
X-7620000Y-69850000D03*
%TD*%
%TO.P,Bb_B_C3,1*%
%TO.N,Net-(Bb_B_C1-Pad1)*%
X-7620000Y-176530000D03*
D14*
%TO.P,Bb_B_C3,2*%
%TO.N,Net-(Bb_B_C1-Pad2)*%
X-7620000Y-171530000D03*
%TO.P,Bb_B_C3,3*%
%TO.N,Net-(Bb_B_C1-Pad3)*%
X-7620000Y-166530000D03*
%TD*%
%TO.P,Bb_B_C2,3*%
%TO.N,Net-(Bb_B_C1-Pad3)*%
X-7620000Y-90330000D03*
%TO.P,Bb_B_C2,2*%
%TO.N,Net-(Bb_B_C1-Pad2)*%
X-7620000Y-95330000D03*
D15*
%TO.P,Bb_B_C2,1*%
%TO.N,Net-(Bb_B_C1-Pad1)*%
X-7620000Y-100330000D03*
%TD*%
%TO.P,Bb_B_C1,1*%
%TO.N,Net-(Bb_B_C1-Pad1)*%
X-7620000Y-24130000D03*
D14*
%TO.P,Bb_B_C1,2*%
%TO.N,Net-(Bb_B_C1-Pad2)*%
X-7620000Y-19130000D03*
%TO.P,Bb_B_C1,3*%
%TO.N,Net-(Bb_B_C1-Pad3)*%
X-7620000Y-14130000D03*
%TD*%
D16*
%TO.P,D17,2*%
%TO.N,Net-(Bb_B_C1-Pad3)*%
X12065000Y-95250000D03*
D17*
%TO.P,D17,1*%
%TO.N,+12V*%
X12065000Y-100330000D03*
%TD*%
D16*
%TO.P,D16,2*%
%TO.N,Net-(Bb_B_C1-Pad2)*%
X2540000Y-95250000D03*
D17*
%TO.P,D16,1*%
%TO.N,+12V*%
X7620000Y-95250000D03*
%TD*%
D16*
%TO.P,D15,2*%
%TO.N,Net-(Bb_B_C1-Pad1)*%
X2540000Y-100330000D03*
D17*
%TO.P,D15,1*%
%TO.N,+12V*%
X7620000Y-100330000D03*
%TD*%
D16*
%TO.P,D14,2*%
%TO.N,Net-(D14-Pad2)*%
X2540000Y-105410000D03*
D17*
%TO.P,D14,1*%
%TO.N,+12V*%
X7620000Y-105410000D03*
%TD*%
D16*
%TO.P,D13,2*%
%TO.N,Net-(D13-Pad2)*%
X2540000Y-110490000D03*
D17*
%TO.P,D13,1*%
%TO.N,+12V*%
X7620000Y-110490000D03*
%TD*%
D16*
%TO.P,D12,2*%
%TO.N,Net-(D12-Pad2)*%
X2540000Y-115570000D03*
D17*
%TO.P,D12,1*%
%TO.N,+12V*%
X7620000Y-115570000D03*
%TD*%
D16*
%TO.P,D11,2*%
%TO.N,Net-(D11-Pad2)*%
X2540000Y-120650000D03*
D17*
%TO.P,D11,1*%
%TO.N,+12V*%
X7620000Y-120650000D03*
%TD*%
D16*
%TO.P,D10,2*%
%TO.N,Net-(D10-Pad2)*%
X2540000Y-125730000D03*
D17*
%TO.P,D10,1*%
%TO.N,+12V*%
X7620000Y-125730000D03*
%TD*%
D16*
%TO.P,D9,2*%
%TO.N,Net-(D9-Pad2)*%
X2540000Y-130810000D03*
D17*
%TO.P,D9,1*%
%TO.N,+12V*%
X7620000Y-130810000D03*
%TD*%
D16*
%TO.P,D6,2*%
%TO.N,Net-(C#_D_D#1-Pad2)*%
X2540000Y-140970000D03*
D17*
%TO.P,D6,1*%
%TO.N,+12V*%
X7620000Y-140970000D03*
%TD*%
D16*
%TO.P,D5,2*%
%TO.N,Net-(C#_D_D#1-Pad1)*%
X2540000Y-146050000D03*
D17*
%TO.P,D5,1*%
%TO.N,+12V*%
X7620000Y-146050000D03*
%TD*%
D16*
%TO.P,D4,2*%
%TO.N,Net-(D4-Pad2)*%
X-7620000Y-227330000D03*
D17*
%TO.P,D4,1*%
%TO.N,+12V*%
X-2540000Y-227330000D03*
%TD*%
D16*
%TO.P,D3,2*%
%TO.N,Net-(D3-Pad2)*%
X-7620000Y-232410000D03*
D17*
%TO.P,D3,1*%
%TO.N,+12V*%
X-2540000Y-232410000D03*
%TD*%
D16*
%TO.P,D2,2*%
%TO.N,Net-(D2-Pad2)*%
X-7620000Y-238125000D03*
D17*
%TO.P,D2,1*%
%TO.N,+12V*%
X-2540000Y-238125000D03*
%TD*%
D16*
%TO.P,D1,2*%
%TO.N,Net-(D1-Pad2)*%
X-7620000Y-243205000D03*
D17*
%TO.P,D1,1*%
%TO.N,+12V*%
X-2540000Y-243205000D03*
%TD*%
D10*
%TO.P,J1,1*%
%TO.N,+12V*%
X-5080000Y-248285000D03*
D11*
%TO.P,J1,2*%
%TO.N,GND*%
X-5080000Y-250825000D03*
%TO.P,J1,3*%
%TO.N,+12V*%
X-7620000Y-248285000D03*
%TO.P,J1,4*%
%TO.N,GND*%
X-7620000Y-250825000D03*
%TD*%
D18*
%TO.P,A1,1*%
%TO.N,Net-(A1-Pad1)*%
X1905000Y-155575000D03*
D19*
%TO.P,A1,17*%
%TO.N,Net-(A1-Pad17)*%
X17145000Y-188595000D03*
%TO.P,A1,2*%
%TO.N,Net-(A1-Pad2)*%
X1905000Y-158115000D03*
%TO.P,A1,18*%
%TO.N,Net-(A1-Pad18)*%
X17145000Y-186055000D03*
%TO.P,A1,3*%
%TO.N,Net-(A1-Pad3)*%
X1905000Y-160655000D03*
%TO.P,A1,19*%
%TO.N,Net-(A1-Pad19)*%
X17145000Y-183515000D03*
%TO.P,A1,4*%
%TO.N,GND*%
X1905000Y-163195000D03*
%TO.P,A1,20*%
%TO.N,Net-(A1-Pad20)*%
X17145000Y-180975000D03*
%TO.P,A1,5*%
%TO.N,Net-(A1-Pad5)*%
X1905000Y-165735000D03*
%TO.P,A1,21*%
%TO.N,Net-(A1-Pad21)*%
X17145000Y-178435000D03*
%TO.P,A1,6*%
%TO.N,Net-(A1-Pad6)*%
X1905000Y-168275000D03*
%TO.P,A1,22*%
%TO.N,Net-(A1-Pad22)*%
X17145000Y-175895000D03*
%TO.P,A1,7*%
%TO.N,Net-(A1-Pad7)*%
X1905000Y-170815000D03*
%TO.P,A1,23*%
%TO.N,Net-(A1-Pad23)*%
X17145000Y-173355000D03*
%TO.P,A1,8*%
%TO.N,Net-(A1-Pad8)*%
X1905000Y-173355000D03*
%TO.P,A1,24*%
%TO.N,Net-(A1-Pad24)*%
X17145000Y-170815000D03*
%TO.P,A1,9*%
%TO.N,Net-(A1-Pad9)*%
X1905000Y-175895000D03*
%TO.P,A1,25*%
%TO.N,Net-(A1-Pad25)*%
X17145000Y-168275000D03*
%TO.P,A1,10*%
%TO.N,Net-(A1-Pad10)*%
X1905000Y-178435000D03*
%TO.P,A1,26*%
%TO.N,Net-(A1-Pad26)*%
X17145000Y-165735000D03*
%TO.P,A1,11*%
%TO.N,Net-(A1-Pad11)*%
X1905000Y-180975000D03*
%TO.P,A1,27*%
%TO.N,Net-(A1-Pad27)*%
X17145000Y-163195000D03*
%TO.P,A1,12*%
%TO.N,Net-(A1-Pad12)*%
X1905000Y-183515000D03*
%TO.P,A1,28*%
%TO.N,Net-(A1-Pad28)*%
X17145000Y-160655000D03*
%TO.P,A1,13*%
%TO.N,Net-(A1-Pad13)*%
X1905000Y-186055000D03*
%TO.P,A1,29*%
%TO.N,GND*%
X17145000Y-158115000D03*
%TO.P,A1,14*%
%TO.N,Net-(A1-Pad14)*%
X1905000Y-188595000D03*
%TO.P,A1,30*%
%TO.N,+12V*%
X17145000Y-155575000D03*
%TO.P,A1,15*%
%TO.N,Net-(A1-Pad15)*%
X1905000Y-191135000D03*
%TO.P,A1,16*%
%TO.N,Net-(A1-Pad16)*%
X17145000Y-191135000D03*
%TD*%
D10*
%TO.P,solenoid_power1,1*%
%TO.N,GND*%
X-16510000Y-250825000D03*
D11*
%TO.P,solenoid_power1,2*%
%TO.N,+12V*%
X-16510000Y-248285000D03*
%TO.P,solenoid_power1,3*%
%TO.N,GND*%
X-13970000Y-250825000D03*
%TO.P,solenoid_power1,4*%
%TO.N,+12V*%
X-13970000Y-248285000D03*
%TO.P,solenoid_power1,5*%
%TO.N,GND*%
X-11430000Y-250825000D03*
%TO.P,solenoid_power1,6*%
%TO.N,+12V*%
X-11430000Y-248285000D03*
%TD*%
D19*
%TO.P,U1,16*%
%TO.N,Net-(A1-Pad27)*%
X5715000Y-210820000D03*
%TO.P,U1,8*%
%TO.N,GND*%
X13335000Y-193040000D03*
%TO.P,U1,15*%
%TO.N,Net-(R8-Pad2)*%
X5715000Y-208280000D03*
%TO.P,U1,7*%
%TO.N,Net-(R1-Pad2)*%
X13335000Y-195580000D03*
%TO.P,U1,14*%
%TO.N,Net-(U1-Pad14)*%
X5715000Y-205740000D03*
%TO.P,U1,6*%
%TO.N,Net-(R2-Pad2)*%
X13335000Y-198120000D03*
%TO.P,U1,13*%
%TO.N,Net-(A1-Pad13)*%
X5715000Y-203200000D03*
%TO.P,U1,5*%
%TO.N,Net-(R3-Pad2)*%
X13335000Y-200660000D03*
%TO.P,U1,12*%
%TO.N,Net-(A1-Pad16)*%
X5715000Y-200660000D03*
%TO.P,U1,4*%
%TO.N,Net-(R4-Pad2)*%
X13335000Y-203200000D03*
%TO.P,U1,11*%
%TO.N,Net-(A1-Pad15)*%
X5715000Y-198120000D03*
%TO.P,U1,3*%
%TO.N,Net-(R5-Pad2)*%
X13335000Y-205740000D03*
%TO.P,U1,10*%
%TO.N,Net-(A1-Pad27)*%
X5715000Y-195580000D03*
%TO.P,U1,2*%
%TO.N,Net-(R6-Pad2)*%
X13335000Y-208280000D03*
%TO.P,U1,9*%
%TO.N,Net-(U1-Pad9)*%
X5715000Y-193040000D03*
D18*
%TO.P,U1,1*%
%TO.N,Net-(R7-Pad2)*%
X13335000Y-210820000D03*
%TD*%
D20*
%TO.N,GND*%
X14995001Y-148345001D03*
%TO.N,Net-(D9-Pad2)*%
X2540000Y-201295000D03*
%TO.N,Net-(D12-Pad2)*%
X-15240000Y-41910000D03*
%TO.N,Net-(C#_D_D#1-Pad2)*%
X0Y-202565000D03*
%TD*%
D21*
%TO.N,GND*%
X10529980Y-190234980D02*
X13335000Y-193040000D01*
X6255001Y-169689999D02*
X10529980Y-173964978D01*
X10529980Y-173964978D02*
X10529980Y-190234980D01*
X3359991Y-164649991D02*
X3359991Y-167584993D01*
X5464997Y-169689999D02*
X6255001Y-169689999D01*
X3359991Y-167584993D02*
X5464997Y-169689999D01*
X1905000Y-163195000D02*
X3359991Y-164649991D01*
D22*
X14995001Y-151374999D02*
X13335000Y-153035000D01*
X14995001Y-148345001D02*
X14995001Y-151374999D01*
D21*
%TO.N,Net-(A1-Pad5)*%
X779999Y-32875001D02*
X2540000Y-31115000D01*
X779999Y-164609999D02*
X779999Y-32875001D01*
X1905000Y-165735000D02*
X779999Y-164609999D01*
%TO.N,Net-(A1-Pad6)*%
X329989Y-166699989D02*
X1905000Y-168275000D01*
X329989Y-30785011D02*
X329989Y-166699989D01*
X2540000Y-28575000D02*
X329989Y-30785011D01*
%TO.N,Net-(A1-Pad7)*%
X-120020Y-28695020D02*
X-120020Y-168789980D01*
X-120020Y-168789980D02*
X1905000Y-170815000D01*
X2540000Y-26035000D02*
X-120020Y-28695020D01*
%TO.N,Net-(A1-Pad8)*%
X-570030Y-26605030D02*
X2540000Y-23495000D01*
X-570030Y-170879970D02*
X-570030Y-26605030D01*
X1905000Y-173355000D02*
X-570030Y-170879970D01*
%TO.N,Net-(A1-Pad9)*%
X-1020037Y-172969963D02*
X1905000Y-175895000D01*
X-1020039Y-172969961D02*
X1905000Y-175895000D01*
X-1020039Y-24515039D02*
X-1020039Y-172969961D01*
X2540000Y-20955000D02*
X-1020039Y-24515039D01*
%TO.N,Net-(A1-Pad10)*%
X-1470048Y-175059952D02*
X1905000Y-178435000D01*
X-1470048Y-22425048D02*
X-1470048Y-175059952D01*
X2540000Y-18415000D02*
X-1470048Y-22425048D01*
%TO.N,Net-(A1-Pad11)*%
X-1920057Y-20335057D02*
X2540000Y-15875000D01*
X-1920057Y-177149943D02*
X-1920057Y-20335057D01*
X1905000Y-180975000D02*
X-1920057Y-177149943D01*
%TO.N,Net-(A1-Pad27)*%
X6840001Y-171940001D02*
X5715000Y-170815000D01*
X6840001Y-194454999D02*
X6840001Y-171940001D01*
X5715000Y-195580000D02*
X6840001Y-194454999D01*
X4589999Y-205199999D02*
X4589999Y-209694999D01*
X4589999Y-209694999D02*
X5715000Y-210820000D01*
X5174999Y-204614999D02*
X4589999Y-205199999D01*
X5965003Y-204614999D02*
X5174999Y-204614999D01*
X6840001Y-203740001D02*
X5965003Y-204614999D01*
X6840001Y-196705001D02*
X6840001Y-203740001D01*
X5715000Y-195580000D02*
X6840001Y-196705001D01*
%TO.N,Net-(A1-Pad12)*%
X-2370066Y-179239934D02*
X1905000Y-183515000D01*
X-2370066Y-18245066D02*
X-2370066Y-179239934D01*
X2540000Y-13335000D02*
X-2370066Y-18245066D01*
%TO.N,Net-(A1-Pad13)*%
X779999Y-198264999D02*
X5715000Y-203200000D01*
X779999Y-187180001D02*
X779999Y-198264999D01*
X1905000Y-186055000D02*
X779999Y-187180001D01*
D22*
%TO.N,+12V*%
X-2540000Y-243205000D02*
X-2540000Y-227330000D01*
X-16510000Y-248285000D02*
X-5080000Y-248285000D01*
X-5080000Y-245745000D02*
X-2540000Y-243205000D01*
X-5080000Y-248285000D02*
X-5080000Y-245745000D01*
D21*
%TO.N,Net-(A1-Pad15)*%
X1905000Y-194310000D02*
X5715000Y-198120000D01*
X1905000Y-191135000D02*
X1905000Y-194310000D01*
%TO.N,Net-(A1-Pad16)*%
X7519952Y-162459952D02*
X7519952Y-165636362D01*
X5715000Y-160655000D02*
X7519952Y-162459952D01*
X7519952Y-165636362D02*
X11430000Y-169546410D01*
X11430000Y-185420000D02*
X17145000Y-191135000D01*
X11430000Y-169546410D02*
X11430000Y-185420000D01*
%TO.N,Net-(R1-Pad2)*%
X8825009Y-200089991D02*
X13335000Y-195580000D01*
X7229999Y-217430019D02*
X8825009Y-215835009D01*
X7229999Y-225427003D02*
X7229999Y-217430019D01*
X1905000Y-230752002D02*
X7229999Y-225427003D01*
X3565001Y-269630001D02*
X1905000Y-267970000D01*
X8825009Y-215835009D02*
X8825009Y-200089991D01*
X12309999Y-269630001D02*
X3565001Y-269630001D01*
X1905000Y-267970000D02*
X1905000Y-230752002D01*
X13335000Y-268605000D02*
X12309999Y-269630001D01*
%TO.N,Net-(R2-Pad2)*%
X4445000Y-267335000D02*
X5715000Y-268605000D01*
X4057002Y-266947002D02*
X4445000Y-267335000D01*
X9275019Y-202179981D02*
X13335000Y-198120000D01*
X9280001Y-202955001D02*
X9275019Y-202950019D01*
X2540000Y-265430000D02*
X2540000Y-232657002D01*
X2540000Y-232657002D02*
X9280001Y-225917001D01*
X9275019Y-202950019D02*
X9275019Y-202179981D01*
X9280001Y-225917001D02*
X9280001Y-202955001D01*
X4445000Y-267335000D02*
X2540000Y-265430000D01*
%TO.N,Net-(R3-Pad2)*%
X14910010Y-202235010D02*
X14910010Y-252424990D01*
X14910010Y-252424990D02*
X13335000Y-254000000D01*
X13335000Y-200660000D02*
X14910010Y-202235010D01*
%TO.N,Net-(R4-Pad2)*%
X4689999Y-252974999D02*
X5715000Y-254000000D01*
X4689999Y-238902999D02*
X4689999Y-252974999D01*
X9730011Y-233862987D02*
X4689999Y-238902999D01*
X9730011Y-206804989D02*
X9730011Y-233862987D01*
X13335000Y-203200000D02*
X9730011Y-206804989D01*
%TO.N,Net-(R5-Pad2)*%
X14460001Y-238269999D02*
X13335000Y-239395000D01*
X14460001Y-206865001D02*
X14460001Y-238269999D01*
X13335000Y-205740000D02*
X14460001Y-206865001D01*
%TO.N,Net-(R6-Pad2)*%
X10795000Y-234315000D02*
X5715000Y-239395000D01*
X10795000Y-210820000D02*
X10795000Y-234315000D01*
X13335000Y-208280000D02*
X10795000Y-210820000D01*
%TO.N,Net-(R7-Pad2)*%
X13335000Y-210820000D02*
X13335000Y-225425000D01*
%TO.N,Net-(R8-Pad2)*%
X5715000Y-218308608D02*
X5715000Y-225425000D01*
X6840001Y-217183607D02*
X5715000Y-218308608D01*
X6840001Y-209405001D02*
X6840001Y-217183607D01*
X5715000Y-208280000D02*
X6840001Y-209405001D01*
%TO.N,Net-(R9-Pad2)*%
X17064970Y-151845030D02*
X17064970Y-93264970D01*
X13335000Y-155575000D02*
X17064970Y-151845030D01*
X17064970Y-92502970D02*
X14732000Y-90170000D01*
X17064970Y-93264970D02*
X17064970Y-92502970D01*
%TO.N,Net-(R10-Pad2)*%
X7740020Y-152520020D02*
X7740019Y-151247199D01*
X13335000Y-158115000D02*
X7740020Y-152520020D01*
X5530010Y-149037190D02*
X5530010Y-92259990D01*
X7740019Y-151247199D02*
X5530010Y-149037190D01*
X7112000Y-90678000D02*
X7112000Y-90170000D01*
X5530010Y-92259990D02*
X7112000Y-90678000D01*
%TO.N,Net-(R11-Pad2)*%
X15424990Y-154755010D02*
X17514980Y-152665020D01*
X17514980Y-152665020D02*
X17514980Y-79744980D01*
X15424990Y-158565010D02*
X15424990Y-154755010D01*
X13335000Y-160655000D02*
X15424990Y-158565010D01*
X17514980Y-78982980D02*
X14732000Y-76200000D01*
X17514980Y-79744980D02*
X17514980Y-78982980D01*
%TO.N,Net-(R12-Pad2)*%
X7290010Y-157150010D02*
X7290010Y-151433600D01*
X13335000Y-163195000D02*
X7290010Y-157150010D01*
X5080000Y-78232000D02*
X7112000Y-76200000D01*
X5080000Y-149223590D02*
X5080000Y-78232000D01*
X7290010Y-151433600D02*
X5080000Y-149223590D01*
%TO.N,Net-(R13-Pad2)*%
X13335000Y-165735000D02*
X15875000Y-163195000D01*
X15875000Y-155179998D02*
X17964990Y-153090008D01*
X15875000Y-163195000D02*
X15875000Y-155179998D01*
X17964990Y-153090008D02*
X17964990Y-66859990D01*
X17964990Y-65462990D02*
X14732000Y-62230000D01*
X17964990Y-66859990D02*
X17964990Y-65462990D01*
%TO.N,Net-(R14-Pad2)*%
X6840001Y-151620001D02*
X4589999Y-149369999D01*
X6840001Y-160905003D02*
X6840001Y-151620001D01*
X13335000Y-167400002D02*
X6840001Y-160905003D01*
X13335000Y-168275000D02*
X13335000Y-167400002D01*
X4589999Y-64752001D02*
X7112000Y-62230000D01*
X4589999Y-149369999D02*
X4589999Y-64752001D01*
%TO.N,Net-(R15-Pad2)*%
X17685001Y-166860001D02*
X18415000Y-166130002D01*
X16894997Y-166860001D02*
X17685001Y-166860001D01*
X16019999Y-168130001D02*
X16019999Y-167734999D01*
X16019999Y-167734999D02*
X16894997Y-166860001D01*
X13335000Y-170815000D02*
X16019999Y-168130001D01*
X18415000Y-166130002D02*
X18415000Y-52705000D01*
X18415000Y-51943000D02*
X14732000Y-48260000D01*
X18415000Y-52705000D02*
X18415000Y-51943000D01*
%TO.N,Net-(R16-Pad2)*%
X4139989Y-51232011D02*
X7112000Y-48260000D01*
X4139989Y-166699989D02*
X4139989Y-51232011D01*
X5715000Y-168275000D02*
X4139989Y-166699989D01*
%TO.N,Net-(U1-Pad14)*%
X4589999Y-154160001D02*
X5715000Y-153035000D01*
X10979990Y-171874988D02*
X6255001Y-167149999D01*
X10979990Y-189019988D02*
X10979990Y-171874988D01*
X14460001Y-192499999D02*
X10979990Y-189019988D01*
X12794999Y-194454999D02*
X13585003Y-194454999D01*
X4589999Y-166275001D02*
X4589999Y-154160001D01*
X8374999Y-203080001D02*
X8374999Y-198874999D01*
X8374999Y-198874999D02*
X12794999Y-194454999D01*
X5464997Y-167149999D02*
X4589999Y-166275001D01*
X6255001Y-167149999D02*
X5464997Y-167149999D01*
X14460001Y-193580001D02*
X14460001Y-192499999D01*
X13585003Y-194454999D02*
X14460001Y-193580001D01*
X5715000Y-205740000D02*
X8374999Y-203080001D01*
%TO.N,Net-(D1-Pad2)*%
X-7620000Y-243205000D02*
X-15875000Y-243205000D01*
%TO.N,Net-(D2-Pad2)*%
X-7700000Y-238205000D02*
X-7620000Y-238125000D01*
X-15875000Y-238205000D02*
X-7700000Y-238205000D01*
%TO.N,Net-(D3-Pad2)*%
X-7620000Y-232410000D02*
X-15875000Y-232410000D01*
%TO.N,Net-(D4-Pad2)*%
X-7700000Y-227410000D02*
X-7620000Y-227330000D01*
X-15875000Y-227410000D02*
X-7700000Y-227410000D01*
%TO.N,Net-(D9-Pad2)*%
X-10345021Y-57335021D02*
X-7620000Y-54610000D01*
X-10345021Y-74112799D02*
X-10345021Y-57335021D01*
X-4445000Y-80012820D02*
X-10345021Y-74112799D01*
X-4445000Y-127635000D02*
X-4445000Y-80012820D01*
X-7620000Y-130810000D02*
X-4445000Y-127635000D01*
X-6179999Y-200569999D02*
X-7620000Y-202010000D01*
X1814999Y-200569999D02*
X-6179999Y-200569999D01*
X2540000Y-201295000D02*
X1814999Y-200569999D01*
%TO.N,Net-(D10-Pad2)*%
X-10795030Y-52785030D02*
X-10795030Y-74299200D01*
X-7620000Y-49610000D02*
X-10795030Y-52785030D01*
X-10795030Y-74299200D02*
X-5080000Y-80014230D01*
X-5080000Y-123270000D02*
X-7620000Y-125810000D01*
X-5080000Y-80014230D02*
X-5080000Y-123270000D01*
%TO.N,Net-(D11-Pad2)*%
X-11245039Y-48235039D02*
X-11245039Y-74485601D01*
X-7620000Y-44610000D02*
X-11245039Y-48235039D01*
X-11245039Y-74485601D02*
X-5715000Y-80015640D01*
X-5715000Y-118905000D02*
X-7620000Y-120810000D01*
X-5715000Y-80015640D02*
X-5715000Y-118905000D01*
%TO.N,Net-(D12-Pad2)*%
X-7620000Y-115410000D02*
X-14050029Y-108979971D01*
X-15240000Y-41910000D02*
X-14130058Y-41910000D01*
X-14050029Y-41990029D02*
X-14050029Y-41829971D01*
X-14130058Y-41910000D02*
X-14050029Y-41990029D01*
X-14050029Y-108979971D02*
X-14050029Y-41990029D01*
%TO.N,Net-(D13-Pad2)*%
X-13600020Y-104429980D02*
X-7620000Y-110410000D01*
X-13600020Y-37728610D02*
X-13600020Y-104429980D01*
X-10241410Y-34370000D02*
X-13600020Y-37728610D01*
X-7620000Y-34370000D02*
X-10241410Y-34370000D01*
%TO.N,Net-(D14-Pad2)*%
X-8093997Y-37544999D02*
X-9380001Y-37544999D01*
X-5794999Y-35246001D02*
X-8093997Y-37544999D01*
X-5794999Y-31195001D02*
X-5794999Y-35246001D01*
X-7620000Y-29370000D02*
X-5794999Y-31195001D01*
X-9445001Y-37609999D02*
X-12844999Y-37609999D01*
X-9380001Y-37544999D02*
X-9445001Y-37609999D01*
X-13150010Y-99879990D02*
X-7620000Y-105410000D01*
X-13150010Y-37915010D02*
X-13150010Y-99879990D01*
X-12844999Y-37609999D02*
X-13150010Y-37915010D01*
%TO.N,Net-(Bb_B_C1-Pad3)*%
X-11695049Y-75934951D02*
X-7620000Y-80010000D01*
X-11695049Y-45984047D02*
X-11695049Y-75934951D01*
X-5319999Y-42784999D02*
X-8496001Y-42784999D01*
X-8496001Y-42784999D02*
X-11695049Y-45984047D01*
X-3175000Y-40640000D02*
X-5319999Y-42784999D01*
X-7620000Y-80010000D02*
X-7620000Y-90330000D01*
X-3175000Y-18575000D02*
X-3175000Y-40640000D01*
X-7620000Y-14130000D02*
X-3175000Y-18575000D01*
%TO.N,Net-(Bb_B_C1-Pad2)*%
X-7620000Y-19130000D02*
X-3810000Y-22940000D01*
X-3810000Y-22940000D02*
X-3810000Y-40638590D01*
X-5506399Y-42334989D02*
X-8682402Y-42334990D01*
X-8682402Y-42334990D02*
X-12145059Y-45797647D01*
X-3810000Y-40638590D02*
X-5506399Y-42334989D01*
X-12145059Y-90804941D02*
X-7620000Y-95330000D01*
X-12145059Y-45797647D02*
X-12145059Y-90804941D01*
%TO.N,Net-(Bb_B_C1-Pad1)*%
X-7620000Y-24130000D02*
X-4445000Y-27305000D01*
X-4445000Y-27305000D02*
X-4445000Y-40005000D01*
X-6324981Y-41884981D02*
X-8868803Y-41884981D01*
X-8868803Y-41884981D02*
X-12700000Y-45716178D01*
X-4445000Y-40005000D02*
X-6324981Y-41884981D01*
X-12700000Y-95250000D02*
X-7620000Y-100330000D01*
X-12700000Y-45716178D02*
X-12700000Y-95250000D01*
%TO.N,Net-(C#_D_D#1-Pad3)*%
X-7620000Y-136050000D02*
X-3810000Y-132240000D01*
X-9895011Y-62125011D02*
X-7620000Y-59850000D01*
X-9895011Y-73926399D02*
X-9895011Y-62125011D01*
X-3810000Y-80011410D02*
X-9895011Y-73926399D01*
X-3810000Y-132240000D02*
X-3810000Y-80011410D01*
%TO.N,Net-(C#_D_D#1-Pad2)*%
X-9445001Y-73739999D02*
X-3270086Y-79914914D01*
X-9445001Y-66675001D02*
X-9445001Y-73739999D01*
X-7620000Y-64850000D02*
X-9445001Y-66675001D01*
X-3270086Y-136700086D02*
X-7620000Y-141050000D01*
X-3270086Y-79914914D02*
X-3270086Y-136700086D01*
X-3175000Y-202565000D02*
X-7620000Y-207010000D01*
X0Y-202565000D02*
X-3175000Y-202565000D01*
%TO.N,Net-(C#_D_D#1-Pad1)*%
X-5870000Y-69850000D02*
X-2820076Y-72899924D01*
X-7620000Y-69850000D02*
X-5870000Y-69850000D01*
X-2820076Y-141250076D02*
X-7620000Y-146050000D01*
X-2820076Y-72899924D02*
X-2820076Y-141250076D01*
%TD*%
M02*
