%TF.GenerationSoftware,KiCad,Pcbnew,(5.1.6-0-10_14)*%
%TF.CreationDate,2020-09-12T21:29:34-04:00*%
%TF.ProjectId,smart-o-harp,736d6172-742d-46f2-9d68-6172702e6b69,rev?*%
%TF.SameCoordinates,Original*%
%TF.FileFunction,Soldermask,Top*%
%TF.FilePolarity,Negative*%
%FSLAX46Y46*%
G04 Gerber Fmt 4.6, Leading zero omitted, Abs format (unit mm)*
G04 Created by KiCad (PCBNEW (5.1.6-0-10_14)) date 2020-09-12 21:29:34*
%MOMM*%
%LPD*%
G01*
G04 APERTURE LIST*
%ADD10R,1.800000X1.800000*%
%ADD11O,1.800000X1.800000*%
%ADD12R,2.100000X2.100000*%
%ADD13O,1.500000X1.500000*%
%ADD14C,1.500000*%
%ADD15C,3.100000*%
%ADD16R,3.100000X3.100000*%
%ADD17O,1.900000X1.900000*%
%ADD18R,1.900000X1.900000*%
%ADD19R,1.700000X1.700000*%
%ADD20O,1.700000X1.700000*%
%ADD21R,6.600000X6.800000*%
%ADD22R,1.600000X1.700000*%
%ADD23C,3.300000*%
G04 APERTURE END LIST*
D10*
%TO.C,keypad1*%
X2540000Y-13335000D03*
D11*
X2540000Y-15875000D03*
X2540000Y-18415000D03*
X2540000Y-20955000D03*
X2540000Y-23495000D03*
X2540000Y-26035000D03*
X2540000Y-28575000D03*
X2540000Y-31115000D03*
%TD*%
D12*
%TO.C,J46*%
X-16510000Y-110490000D03*
%TD*%
%TO.C,J45*%
X-16510000Y-207010000D03*
%TD*%
%TO.C,J44*%
X-16510000Y-171450000D03*
%TD*%
%TO.C,J43*%
X-16510000Y-201930000D03*
%TD*%
%TO.C,J42*%
X-16510000Y-212090000D03*
%TD*%
%TO.C,J41*%
X-16510000Y-115570000D03*
%TD*%
%TO.C,J40*%
X-16510000Y-176530000D03*
%TD*%
%TO.C,J39*%
X-16510000Y-186690000D03*
%TD*%
%TO.C,J37*%
X-16510000Y-120650000D03*
%TD*%
%TO.C,J36*%
X-16510000Y-181610000D03*
%TD*%
%TO.C,J35*%
X-16510000Y-217170000D03*
%TD*%
%TO.C,J33*%
X-16510000Y-125730000D03*
%TD*%
%TO.C,J32*%
X-16510000Y-191770000D03*
%TD*%
%TO.C,J31*%
X-16510000Y-222250000D03*
%TD*%
%TO.C,J29*%
X-16510000Y-130810000D03*
%TD*%
%TO.C,J28*%
X-16510000Y-196850000D03*
%TD*%
%TO.C,J25*%
X-16510000Y-135890000D03*
%TD*%
%TO.C,J22*%
X-16510000Y-140970000D03*
%TD*%
%TO.C,J21*%
X-16510000Y-166370000D03*
%TD*%
%TO.C,J20*%
X-16510000Y-146050000D03*
%TD*%
%TO.C,J19*%
X-16510000Y-105410000D03*
%TD*%
%TO.C,J18*%
X-16510000Y-39370000D03*
%TD*%
%TO.C,J17*%
X-16510000Y-44450000D03*
%TD*%
%TO.C,J16*%
X-16510000Y-100330000D03*
%TD*%
%TO.C,J15*%
X-16510000Y-49530000D03*
%TD*%
%TO.C,J14*%
X-16510000Y-90170000D03*
%TD*%
%TO.C,J13*%
X-16510000Y-95250000D03*
%TD*%
%TO.C,J12*%
X-16510000Y-54610000D03*
%TD*%
%TO.C,J11*%
X-16510000Y-59690000D03*
%TD*%
%TO.C,J10*%
X-16510000Y-64770000D03*
%TD*%
%TO.C,J9*%
X-16510000Y-29210000D03*
%TD*%
%TO.C,J8*%
X-16510000Y-69850000D03*
%TD*%
%TO.C,J7*%
X-16510000Y-13970000D03*
%TD*%
%TO.C,J6*%
X-16510000Y-24130000D03*
%TD*%
%TO.C,J5*%
X-16510000Y-34290000D03*
%TD*%
%TO.C,J4*%
X-16510000Y-19050000D03*
%TD*%
D13*
%TO.C,R16*%
X7112000Y-48260000D03*
D14*
X2032000Y-48260000D03*
%TD*%
D13*
%TO.C,R15*%
X14732000Y-48260000D03*
D14*
X9652000Y-48260000D03*
%TD*%
D13*
%TO.C,R14*%
X7112000Y-62230000D03*
D14*
X2032000Y-62230000D03*
%TD*%
D13*
%TO.C,R13*%
X14732000Y-62230000D03*
D14*
X9652000Y-62230000D03*
%TD*%
D13*
%TO.C,R12*%
X7112000Y-76200000D03*
D14*
X2032000Y-76200000D03*
%TD*%
D13*
%TO.C,R11*%
X14732000Y-76200000D03*
D14*
X9652000Y-76200000D03*
%TD*%
D13*
%TO.C,R10*%
X7112000Y-90170000D03*
D14*
X2032000Y-90170000D03*
%TD*%
D13*
%TO.C,R9*%
X14732000Y-90170000D03*
D14*
X9652000Y-90170000D03*
%TD*%
D13*
%TO.C,R8*%
X5715000Y-225425000D03*
D14*
X635000Y-225425000D03*
%TD*%
D13*
%TO.C,R7*%
X13335000Y-225425000D03*
D14*
X8255000Y-225425000D03*
%TD*%
D13*
%TO.C,R6*%
X5715000Y-239395000D03*
D14*
X635000Y-239395000D03*
%TD*%
D13*
%TO.C,R5*%
X13335000Y-239395000D03*
D14*
X8255000Y-239395000D03*
%TD*%
D13*
%TO.C,R4*%
X5715000Y-254000000D03*
D14*
X635000Y-254000000D03*
%TD*%
D13*
%TO.C,R3*%
X13335000Y-254000000D03*
D14*
X8255000Y-254000000D03*
%TD*%
D13*
%TO.C,R2*%
X5715000Y-268605000D03*
D14*
X635000Y-268605000D03*
%TD*%
D13*
%TO.C,R1*%
X13335000Y-268605000D03*
D14*
X8255000Y-268605000D03*
%TD*%
D15*
%TO.C,C#_D_D#2*%
X-7620000Y-136050000D03*
X-7620000Y-141050000D03*
D16*
X-7620000Y-146050000D03*
%TD*%
D15*
%TO.C,E_F_F#1*%
X-7620000Y-44610000D03*
X-7620000Y-49610000D03*
D16*
X-7620000Y-54610000D03*
%TD*%
D17*
%TO.C,D8*%
X2540000Y-135890000D03*
D18*
X7620000Y-135890000D03*
%TD*%
D19*
%TO.C,U2*%
X13335000Y-170815000D03*
D20*
X5715000Y-153035000D03*
X13335000Y-168275000D03*
X5715000Y-155575000D03*
X13335000Y-165735000D03*
X5715000Y-158115000D03*
X13335000Y-163195000D03*
X5715000Y-160655000D03*
X13335000Y-160655000D03*
X5715000Y-163195000D03*
X13335000Y-158115000D03*
X5715000Y-165735000D03*
X13335000Y-155575000D03*
X5715000Y-168275000D03*
X13335000Y-153035000D03*
X5715000Y-170815000D03*
%TD*%
D21*
%TO.C,Q16*%
X4572000Y-39570000D03*
D22*
X6872000Y-45720000D03*
X2272000Y-45720000D03*
%TD*%
D21*
%TO.C,Q15*%
X12192000Y-39570000D03*
D22*
X14492000Y-45720000D03*
X9892000Y-45720000D03*
%TD*%
D21*
%TO.C,Q14*%
X4572000Y-53540000D03*
D22*
X6872000Y-59690000D03*
X2272000Y-59690000D03*
%TD*%
D21*
%TO.C,Q13*%
X12192000Y-53540000D03*
D22*
X14492000Y-59690000D03*
X9892000Y-59690000D03*
%TD*%
D21*
%TO.C,Q12*%
X4572000Y-67510000D03*
D22*
X6872000Y-73660000D03*
X2272000Y-73660000D03*
%TD*%
D21*
%TO.C,Q11*%
X12192000Y-67510000D03*
D22*
X14492000Y-73660000D03*
X9892000Y-73660000D03*
%TD*%
D21*
%TO.C,Q10*%
X4572000Y-81480000D03*
D22*
X6872000Y-87630000D03*
X2272000Y-87630000D03*
%TD*%
D21*
%TO.C,Q9*%
X12192000Y-81480000D03*
D22*
X14492000Y-87630000D03*
X9892000Y-87630000D03*
%TD*%
D21*
%TO.C,Q8*%
X3175000Y-216640000D03*
D22*
X5475000Y-222790000D03*
X875000Y-222790000D03*
%TD*%
D21*
%TO.C,Q7*%
X10795000Y-216535000D03*
D22*
X13095000Y-222685000D03*
X8495000Y-222685000D03*
%TD*%
D21*
%TO.C,Q6*%
X3175000Y-230610000D03*
D22*
X5475000Y-236760000D03*
X875000Y-236760000D03*
%TD*%
D21*
%TO.C,Q5*%
X10795000Y-230705000D03*
D22*
X13095000Y-236855000D03*
X8495000Y-236855000D03*
%TD*%
D21*
%TO.C,Q4*%
X3175000Y-245110000D03*
D22*
X5475000Y-251260000D03*
X875000Y-251260000D03*
%TD*%
D21*
%TO.C,Q3*%
X10795000Y-245110000D03*
D22*
X13095000Y-251260000D03*
X8495000Y-251260000D03*
%TD*%
D21*
%TO.C,Q2*%
X3175000Y-259715000D03*
D22*
X5475000Y-265865000D03*
X875000Y-265865000D03*
%TD*%
D21*
%TO.C,Q1*%
X10795000Y-259715000D03*
D22*
X13095000Y-265865000D03*
X8495000Y-265865000D03*
%TD*%
D15*
%TO.C,J3*%
X-15875000Y-227410000D03*
D16*
X-15875000Y-232410000D03*
%TD*%
D15*
%TO.C,J2*%
X-15875000Y-238205000D03*
D16*
X-15875000Y-243205000D03*
%TD*%
D15*
%TO.C,G_G#_A2*%
X-7620000Y-105410000D03*
X-7620000Y-110410000D03*
D16*
X-7620000Y-115410000D03*
%TD*%
D15*
%TO.C,G_G#_A1*%
X-7620000Y-29370000D03*
X-7620000Y-34370000D03*
D16*
X-7620000Y-39370000D03*
%TD*%
%TO.C,F_G_C1*%
X-7620000Y-222250000D03*
D15*
X-7620000Y-217250000D03*
X-7620000Y-212250000D03*
%TD*%
D16*
%TO.C,F#_G_A1*%
X-7620000Y-191770000D03*
D15*
X-7620000Y-186770000D03*
X-7620000Y-181770000D03*
%TD*%
%TO.C,E_F_F#2*%
X-7620000Y-120810000D03*
X-7620000Y-125810000D03*
D16*
X-7620000Y-130810000D03*
%TD*%
%TO.C,D_E_F1*%
X-7620000Y-207010000D03*
D15*
X-7620000Y-202010000D03*
X-7620000Y-197010000D03*
%TD*%
%TO.C,C#_D_D#1*%
X-7620000Y-59850000D03*
X-7620000Y-64850000D03*
D16*
X-7620000Y-69850000D03*
%TD*%
%TO.C,Bb_B_C3*%
X-7620000Y-176530000D03*
D15*
X-7620000Y-171530000D03*
X-7620000Y-166530000D03*
%TD*%
%TO.C,Bb_B_C2*%
X-7620000Y-90330000D03*
X-7620000Y-95330000D03*
D16*
X-7620000Y-100330000D03*
%TD*%
%TO.C,Bb_B_C1*%
X-7620000Y-24130000D03*
D15*
X-7620000Y-19130000D03*
X-7620000Y-14130000D03*
%TD*%
D23*
%TO.C,H4*%
X-14605000Y-266700000D03*
%TD*%
%TO.C,H3*%
X15240000Y-13970000D03*
%TD*%
%TO.C,H2*%
X-12700000Y-156845000D03*
%TD*%
%TO.C,H1*%
X12700000Y-142240000D03*
%TD*%
D17*
%TO.C,D17*%
X12065000Y-95250000D03*
D18*
X12065000Y-100330000D03*
%TD*%
D17*
%TO.C,D16*%
X2540000Y-95250000D03*
D18*
X7620000Y-95250000D03*
%TD*%
D17*
%TO.C,D15*%
X2540000Y-100330000D03*
D18*
X7620000Y-100330000D03*
%TD*%
D17*
%TO.C,D14*%
X2540000Y-105410000D03*
D18*
X7620000Y-105410000D03*
%TD*%
D17*
%TO.C,D13*%
X2540000Y-110490000D03*
D18*
X7620000Y-110490000D03*
%TD*%
D17*
%TO.C,D12*%
X2540000Y-115570000D03*
D18*
X7620000Y-115570000D03*
%TD*%
D17*
%TO.C,D11*%
X2540000Y-120650000D03*
D18*
X7620000Y-120650000D03*
%TD*%
D17*
%TO.C,D10*%
X2540000Y-125730000D03*
D18*
X7620000Y-125730000D03*
%TD*%
D17*
%TO.C,D9*%
X2540000Y-130810000D03*
D18*
X7620000Y-130810000D03*
%TD*%
D17*
%TO.C,D6*%
X2540000Y-140970000D03*
D18*
X7620000Y-140970000D03*
%TD*%
D17*
%TO.C,D5*%
X2540000Y-146050000D03*
D18*
X7620000Y-146050000D03*
%TD*%
D17*
%TO.C,D4*%
X-7620000Y-227330000D03*
D18*
X-2540000Y-227330000D03*
%TD*%
D17*
%TO.C,D3*%
X-7620000Y-232410000D03*
D18*
X-2540000Y-232410000D03*
%TD*%
D17*
%TO.C,D2*%
X-7620000Y-238125000D03*
D18*
X-2540000Y-238125000D03*
%TD*%
D17*
%TO.C,D1*%
X-7620000Y-243205000D03*
D18*
X-2540000Y-243205000D03*
%TD*%
D10*
%TO.C,J1*%
X-5080000Y-248285000D03*
D11*
X-5080000Y-250825000D03*
X-7620000Y-248285000D03*
X-7620000Y-250825000D03*
%TD*%
D19*
%TO.C,A1*%
X1905000Y-155575000D03*
D20*
X17145000Y-188595000D03*
X1905000Y-158115000D03*
X17145000Y-186055000D03*
X1905000Y-160655000D03*
X17145000Y-183515000D03*
X1905000Y-163195000D03*
X17145000Y-180975000D03*
X1905000Y-165735000D03*
X17145000Y-178435000D03*
X1905000Y-168275000D03*
X17145000Y-175895000D03*
X1905000Y-170815000D03*
X17145000Y-173355000D03*
X1905000Y-173355000D03*
X17145000Y-170815000D03*
X1905000Y-175895000D03*
X17145000Y-168275000D03*
X1905000Y-178435000D03*
X17145000Y-165735000D03*
X1905000Y-180975000D03*
X17145000Y-163195000D03*
X1905000Y-183515000D03*
X17145000Y-160655000D03*
X1905000Y-186055000D03*
X17145000Y-158115000D03*
X1905000Y-188595000D03*
X17145000Y-155575000D03*
X1905000Y-191135000D03*
X17145000Y-191135000D03*
%TD*%
D10*
%TO.C,solenoid_power1*%
X-16510000Y-250825000D03*
D11*
X-16510000Y-248285000D03*
X-13970000Y-250825000D03*
X-13970000Y-248285000D03*
X-11430000Y-250825000D03*
X-11430000Y-248285000D03*
%TD*%
D20*
%TO.C,U1*%
X5715000Y-210820000D03*
X13335000Y-193040000D03*
X5715000Y-208280000D03*
X13335000Y-195580000D03*
X5715000Y-205740000D03*
X13335000Y-198120000D03*
X5715000Y-203200000D03*
X13335000Y-200660000D03*
X5715000Y-200660000D03*
X13335000Y-203200000D03*
X5715000Y-198120000D03*
X13335000Y-205740000D03*
X5715000Y-195580000D03*
X13335000Y-208280000D03*
X5715000Y-193040000D03*
D19*
X13335000Y-210820000D03*
%TD*%
M02*
