%TF.GenerationSoftware,KiCad,Pcbnew,(5.1.6-0-10_14)*%
%TF.CreationDate,2020-09-12T21:29:34-04:00*%
%TF.ProjectId,smart-o-harp,736d6172-742d-46f2-9d68-6172702e6b69,rev?*%
%TF.SameCoordinates,Original*%
%TF.FileFunction,Soldermask,Bot*%
%TF.FilePolarity,Negative*%
%FSLAX46Y46*%
G04 Gerber Fmt 4.6, Leading zero omitted, Abs format (unit mm)*
G04 Created by KiCad (PCBNEW (5.1.6-0-10_14)) date 2020-09-12 21:29:34*
%MOMM*%
%LPD*%
G01*
G04 APERTURE LIST*
%ADD10R,1.800000X1.800000*%
%ADD11O,1.800000X1.800000*%
%ADD12O,1.500000X1.500000*%
%ADD13C,1.500000*%
%ADD14C,3.100000*%
%ADD15R,3.100000X3.100000*%
%ADD16O,1.900000X1.900000*%
%ADD17R,1.900000X1.900000*%
%ADD18R,1.700000X1.700000*%
%ADD19O,1.700000X1.700000*%
%ADD20C,3.300000*%
G04 APERTURE END LIST*
D10*
%TO.C,keypad1*%
X2540000Y-13335000D03*
D11*
X2540000Y-15875000D03*
X2540000Y-18415000D03*
X2540000Y-20955000D03*
X2540000Y-23495000D03*
X2540000Y-26035000D03*
X2540000Y-28575000D03*
X2540000Y-31115000D03*
%TD*%
D12*
%TO.C,R16*%
X7112000Y-48260000D03*
D13*
X2032000Y-48260000D03*
%TD*%
D12*
%TO.C,R15*%
X14732000Y-48260000D03*
D13*
X9652000Y-48260000D03*
%TD*%
D12*
%TO.C,R14*%
X7112000Y-62230000D03*
D13*
X2032000Y-62230000D03*
%TD*%
D12*
%TO.C,R13*%
X14732000Y-62230000D03*
D13*
X9652000Y-62230000D03*
%TD*%
D12*
%TO.C,R12*%
X7112000Y-76200000D03*
D13*
X2032000Y-76200000D03*
%TD*%
D12*
%TO.C,R11*%
X14732000Y-76200000D03*
D13*
X9652000Y-76200000D03*
%TD*%
D12*
%TO.C,R10*%
X7112000Y-90170000D03*
D13*
X2032000Y-90170000D03*
%TD*%
D12*
%TO.C,R9*%
X14732000Y-90170000D03*
D13*
X9652000Y-90170000D03*
%TD*%
D12*
%TO.C,R8*%
X5715000Y-225425000D03*
D13*
X635000Y-225425000D03*
%TD*%
D12*
%TO.C,R7*%
X13335000Y-225425000D03*
D13*
X8255000Y-225425000D03*
%TD*%
D12*
%TO.C,R6*%
X5715000Y-239395000D03*
D13*
X635000Y-239395000D03*
%TD*%
D12*
%TO.C,R5*%
X13335000Y-239395000D03*
D13*
X8255000Y-239395000D03*
%TD*%
D12*
%TO.C,R4*%
X5715000Y-254000000D03*
D13*
X635000Y-254000000D03*
%TD*%
D12*
%TO.C,R3*%
X13335000Y-254000000D03*
D13*
X8255000Y-254000000D03*
%TD*%
D12*
%TO.C,R2*%
X5715000Y-268605000D03*
D13*
X635000Y-268605000D03*
%TD*%
D12*
%TO.C,R1*%
X13335000Y-268605000D03*
D13*
X8255000Y-268605000D03*
%TD*%
D14*
%TO.C,C#_D_D#2*%
X-7620000Y-136050000D03*
X-7620000Y-141050000D03*
D15*
X-7620000Y-146050000D03*
%TD*%
D14*
%TO.C,E_F_F#1*%
X-7620000Y-44610000D03*
X-7620000Y-49610000D03*
D15*
X-7620000Y-54610000D03*
%TD*%
D16*
%TO.C,D8*%
X2540000Y-135890000D03*
D17*
X7620000Y-135890000D03*
%TD*%
D18*
%TO.C,U2*%
X13335000Y-170815000D03*
D19*
X5715000Y-153035000D03*
X13335000Y-168275000D03*
X5715000Y-155575000D03*
X13335000Y-165735000D03*
X5715000Y-158115000D03*
X13335000Y-163195000D03*
X5715000Y-160655000D03*
X13335000Y-160655000D03*
X5715000Y-163195000D03*
X13335000Y-158115000D03*
X5715000Y-165735000D03*
X13335000Y-155575000D03*
X5715000Y-168275000D03*
X13335000Y-153035000D03*
X5715000Y-170815000D03*
%TD*%
D14*
%TO.C,J3*%
X-15875000Y-227410000D03*
D15*
X-15875000Y-232410000D03*
%TD*%
D14*
%TO.C,J2*%
X-15875000Y-238205000D03*
D15*
X-15875000Y-243205000D03*
%TD*%
D14*
%TO.C,G_G#_A2*%
X-7620000Y-105410000D03*
X-7620000Y-110410000D03*
D15*
X-7620000Y-115410000D03*
%TD*%
D14*
%TO.C,G_G#_A1*%
X-7620000Y-29370000D03*
X-7620000Y-34370000D03*
D15*
X-7620000Y-39370000D03*
%TD*%
%TO.C,F_G_C1*%
X-7620000Y-222250000D03*
D14*
X-7620000Y-217250000D03*
X-7620000Y-212250000D03*
%TD*%
D15*
%TO.C,F#_G_A1*%
X-7620000Y-191770000D03*
D14*
X-7620000Y-186770000D03*
X-7620000Y-181770000D03*
%TD*%
%TO.C,E_F_F#2*%
X-7620000Y-120810000D03*
X-7620000Y-125810000D03*
D15*
X-7620000Y-130810000D03*
%TD*%
%TO.C,D_E_F1*%
X-7620000Y-207010000D03*
D14*
X-7620000Y-202010000D03*
X-7620000Y-197010000D03*
%TD*%
%TO.C,C#_D_D#1*%
X-7620000Y-59850000D03*
X-7620000Y-64850000D03*
D15*
X-7620000Y-69850000D03*
%TD*%
%TO.C,Bb_B_C3*%
X-7620000Y-176530000D03*
D14*
X-7620000Y-171530000D03*
X-7620000Y-166530000D03*
%TD*%
%TO.C,Bb_B_C2*%
X-7620000Y-90330000D03*
X-7620000Y-95330000D03*
D15*
X-7620000Y-100330000D03*
%TD*%
%TO.C,Bb_B_C1*%
X-7620000Y-24130000D03*
D14*
X-7620000Y-19130000D03*
X-7620000Y-14130000D03*
%TD*%
D20*
%TO.C,H4*%
X-14605000Y-266700000D03*
%TD*%
%TO.C,H3*%
X15240000Y-13970000D03*
%TD*%
%TO.C,H2*%
X-12700000Y-156845000D03*
%TD*%
%TO.C,H1*%
X12700000Y-142240000D03*
%TD*%
D16*
%TO.C,D17*%
X12065000Y-95250000D03*
D17*
X12065000Y-100330000D03*
%TD*%
D16*
%TO.C,D16*%
X2540000Y-95250000D03*
D17*
X7620000Y-95250000D03*
%TD*%
D16*
%TO.C,D15*%
X2540000Y-100330000D03*
D17*
X7620000Y-100330000D03*
%TD*%
D16*
%TO.C,D14*%
X2540000Y-105410000D03*
D17*
X7620000Y-105410000D03*
%TD*%
D16*
%TO.C,D13*%
X2540000Y-110490000D03*
D17*
X7620000Y-110490000D03*
%TD*%
D16*
%TO.C,D12*%
X2540000Y-115570000D03*
D17*
X7620000Y-115570000D03*
%TD*%
D16*
%TO.C,D11*%
X2540000Y-120650000D03*
D17*
X7620000Y-120650000D03*
%TD*%
D16*
%TO.C,D10*%
X2540000Y-125730000D03*
D17*
X7620000Y-125730000D03*
%TD*%
D16*
%TO.C,D9*%
X2540000Y-130810000D03*
D17*
X7620000Y-130810000D03*
%TD*%
D16*
%TO.C,D6*%
X2540000Y-140970000D03*
D17*
X7620000Y-140970000D03*
%TD*%
D16*
%TO.C,D5*%
X2540000Y-146050000D03*
D17*
X7620000Y-146050000D03*
%TD*%
D16*
%TO.C,D4*%
X-7620000Y-227330000D03*
D17*
X-2540000Y-227330000D03*
%TD*%
D16*
%TO.C,D3*%
X-7620000Y-232410000D03*
D17*
X-2540000Y-232410000D03*
%TD*%
D16*
%TO.C,D2*%
X-7620000Y-238125000D03*
D17*
X-2540000Y-238125000D03*
%TD*%
D16*
%TO.C,D1*%
X-7620000Y-243205000D03*
D17*
X-2540000Y-243205000D03*
%TD*%
D10*
%TO.C,J1*%
X-5080000Y-248285000D03*
D11*
X-5080000Y-250825000D03*
X-7620000Y-248285000D03*
X-7620000Y-250825000D03*
%TD*%
D18*
%TO.C,A1*%
X1905000Y-155575000D03*
D19*
X17145000Y-188595000D03*
X1905000Y-158115000D03*
X17145000Y-186055000D03*
X1905000Y-160655000D03*
X17145000Y-183515000D03*
X1905000Y-163195000D03*
X17145000Y-180975000D03*
X1905000Y-165735000D03*
X17145000Y-178435000D03*
X1905000Y-168275000D03*
X17145000Y-175895000D03*
X1905000Y-170815000D03*
X17145000Y-173355000D03*
X1905000Y-173355000D03*
X17145000Y-170815000D03*
X1905000Y-175895000D03*
X17145000Y-168275000D03*
X1905000Y-178435000D03*
X17145000Y-165735000D03*
X1905000Y-180975000D03*
X17145000Y-163195000D03*
X1905000Y-183515000D03*
X17145000Y-160655000D03*
X1905000Y-186055000D03*
X17145000Y-158115000D03*
X1905000Y-188595000D03*
X17145000Y-155575000D03*
X1905000Y-191135000D03*
X17145000Y-191135000D03*
%TD*%
D10*
%TO.C,solenoid_power1*%
X-16510000Y-250825000D03*
D11*
X-16510000Y-248285000D03*
X-13970000Y-250825000D03*
X-13970000Y-248285000D03*
X-11430000Y-250825000D03*
X-11430000Y-248285000D03*
%TD*%
D19*
%TO.C,U1*%
X5715000Y-210820000D03*
X13335000Y-193040000D03*
X5715000Y-208280000D03*
X13335000Y-195580000D03*
X5715000Y-205740000D03*
X13335000Y-198120000D03*
X5715000Y-203200000D03*
X13335000Y-200660000D03*
X5715000Y-200660000D03*
X13335000Y-203200000D03*
X5715000Y-198120000D03*
X13335000Y-205740000D03*
X5715000Y-195580000D03*
X13335000Y-208280000D03*
X5715000Y-193040000D03*
D18*
X13335000Y-210820000D03*
%TD*%
M02*
